<svg xmlns="http://www.w3.org/2000/svg" width="810" viewBox="0 0 810 810" height="810" version="1.0"><defs><clipPath id="a"><path d="M 105.371094 179 L 655.8125 179 L 655.8125 688.308594 L 105.371094 688.308594 Z M 105.371094 179"/></clipPath><clipPath id="b"><path d="M 151.4375 179 L 651 179 L 651 688.308594 L 151.4375 688.308594 Z M 151.4375 179"/></clipPath><clipPath id="c"><path d="M 105.371094 172.542969 L 641 172.542969 L 641 672 L 105.371094 672 Z M 105.371094 172.542969"/></clipPath><clipPath id="d"><path d="M 145.53125 180 L 655.8125 180 L 655.8125 688.308594 L 145.53125 688.308594 Z M 145.53125 180"/></clipPath><clipPath id="e"><path d="M 209 309 L 663.359375 309 L 663.359375 672.949219 L 209 672.949219 Z M 209 309"/></clipPath></defs><g clip-path="url(#a)"><path fill="#F6836B" d="M 591.90625 577.179688 L 571.429688 546.355469 L 563.527344 546.355469 C 555.511719 557.058594 547.054688 567.375 538.230469 577.179688 Z M 188.445312 230.460938 C 188.445312 230.929688 188.484375 231.398438 188.550781 231.851562 C 193.632812 228.390625 198.902344 225.109375 204.328125 222.011719 C 202.699219 220.90625 200.738281 220.261719 198.625 220.261719 C 193.011719 220.261719 188.445312 224.832031 188.445312 230.460938 Z M 655.566406 595.601562 L 631.824219 595.601562 L 642.574219 688.308594 L 625.328125 688.308594 L 614.570312 595.601562 L 553.761719 595.601562 L 543.011719 688.308594 L 525.757812 688.308594 L 536.515625 595.601562 L 520.597656 595.601562 C 474.605469 640.691406 420.765625 671.078125 367.996094 671.078125 C 344.410156 671.078125 321.042969 666.476562 298.535156 658.191406 L 302.03125 688.308594 L 284.78125 688.308594 L 280.410156 650.640625 C 256.082031 639.316406 233.027344 623.757812 212.113281 605.144531 L 202.464844 688.308594 L 185.21875 688.308594 L 195.96875 595.601562 L 173.53125 595.601562 L 173.53125 577.179688 L 184.28125 577.179688 C 136.519531 523.09375 105.371094 452.820312 105.371094 386.164062 C 105.371094 324 132.460938 275.839844 174.851562 241.960938 C 174.117188 240.445312 173.527344 238.871094 173.097656 237.238281 L 165.339844 235.53125 L 165.339844 225.386719 L 173.097656 223.679688 C 173.703125 221.398438 174.601562 219.214844 175.78125 217.179688 L 171.503906 210.480469 L 178.675781 203.308594 L 185.367188 207.589844 C 187.402344 206.402344 189.574219 205.503906 191.851562 204.902344 L 193.558594 197.132812 L 203.699219 197.132812 L 205.398438 204.902344 C 207.679688 205.503906 209.855469 206.402344 211.890625 207.589844 L 218.582031 203.308594 L 225.75 210.480469 L 225.226562 211.300781 C 229.078125 209.535156 232.996094 207.847656 236.96875 206.242188 L 236.96875 197.132812 L 262.859375 197.132812 C 283.695312 190.832031 305.683594 186.507812 328.222656 184.179688 C 328.199219 183.988281 328.164062 183.796875 328.164062 183.59375 C 328.164062 181.238281 330.082031 179.320312 332.433594 179.320312 C 334.722656 179.320312 336.578125 181.132812 336.683594 183.394531 C 347.042969 182.558594 357.492188 182.140625 367.996094 182.140625 C 502.863281 182.140625 644.71875 202.542969 644.71875 337.5625 C 644.71875 399.875 614.496094 475.714844 568.695312 539.324219 L 604.488281 539.324219 L 629.636719 577.179688 L 655.566406 577.179688 Z M 168.273438 187.871094 C 170.628906 187.871094 172.542969 185.953125 172.542969 183.59375 C 172.542969 181.238281 170.628906 179.320312 168.273438 179.320312 C 165.917969 179.320312 164.003906 181.238281 164.003906 183.59375 C 164.003906 185.953125 165.917969 187.871094 168.273438 187.871094 Z M 496.078125 183.59375 C 496.078125 181.238281 497.996094 179.320312 500.351562 179.320312 C 502.707031 179.320312 504.621094 181.238281 504.621094 183.59375 C 504.621094 185.953125 502.707031 187.871094 500.351562 187.871094 C 497.996094 187.871094 496.078125 185.953125 496.078125 183.59375"/></g><g clip-path="url(#b)"><path fill="#5EC9CC" d="M 488.648438 186.6875 C 490.355469 186.6875 491.738281 185.304688 491.738281 183.59375 C 491.738281 181.890625 490.355469 180.503906 488.648438 180.503906 C 486.941406 180.503906 485.558594 181.890625 485.558594 183.59375 C 485.558594 185.304688 486.941406 186.6875 488.648438 186.6875 Z M 558.554688 279.273438 L 572.941406 279.273438 L 572.941406 275.726562 L 558.554688 275.726562 Z M 552.972656 231.402344 L 533.367188 219.679688 L 533.367188 243.128906 Z M 601.960938 263.78125 L 484.378906 263.78125 L 484.378906 202.296875 L 601.960938 202.296875 Z M 579.203125 271.78125 L 569.1875 271.78125 L 569.1875 275.328125 L 579.203125 275.328125 Z M 558.554688 271.78125 L 558.554688 275.328125 L 568.574219 275.328125 L 568.574219 271.78125 Z M 579.203125 267.839844 L 558.554688 267.839844 L 558.554688 271.390625 L 579.203125 271.390625 Z M 248.574219 279.472656 L 236.554688 279.472656 L 236.554688 280.65625 L 248.574219 280.65625 Z M 254.835938 276.710938 L 254.835938 275.527344 L 247.183594 275.527344 L 247.183594 276.710938 Z M 244.203125 275.527344 L 236.554688 275.527344 L 236.554688 276.710938 L 244.203125 276.710938 Z M 254.835938 271.585938 L 236.554688 271.585938 L 236.554688 272.769531 L 254.835938 272.769531 Z M 173.15625 279.472656 L 161.136719 279.472656 L 161.136719 280.65625 L 173.15625 280.65625 Z M 179.417969 276.710938 L 179.417969 275.527344 L 171.769531 275.527344 L 171.769531 276.710938 Z M 168.789062 275.527344 L 161.136719 275.527344 L 161.136719 276.710938 L 168.789062 276.710938 Z M 179.417969 271.585938 L 161.136719 271.585938 L 161.136719 272.769531 L 179.417969 272.769531 Z M 259.175781 242.753906 L 238.152344 242.753906 L 238.152344 250.121094 L 259.175781 250.121094 Z M 259.175781 210.617188 L 238.152344 210.617188 L 238.152344 217.980469 L 259.175781 217.980469 Z M 156.574219 186.6875 C 158.277344 186.6875 159.660156 185.304688 159.660156 183.59375 C 159.660156 181.890625 158.277344 180.503906 156.574219 180.503906 C 154.867188 180.503906 153.484375 181.890625 153.484375 183.59375 C 153.484375 185.304688 154.867188 186.6875 156.574219 186.6875 Z M 181.039062 230.460938 C 181.039062 240.167969 188.929688 248.066406 198.625 248.066406 C 208.328125 248.066406 216.21875 240.167969 216.21875 230.460938 C 216.21875 220.75 208.328125 212.847656 198.625 212.847656 C 188.929688 212.847656 181.039062 220.75 181.039062 230.460938 Z M 179.855469 230.460938 C 179.855469 220.09375 188.277344 211.664062 198.625 211.664062 C 208.980469 211.664062 217.402344 220.09375 217.402344 230.460938 C 217.402344 240.820312 208.980469 249.25 198.625 249.25 C 188.277344 249.25 179.855469 240.820312 179.855469 230.460938 Z M 403.988281 336.542969 C 403.027344 336.542969 402.144531 337.328125 402.023438 338.296875 C 401.898438 339.261719 402.585938 340.042969 403.550781 340.042969 C 404.515625 340.042969 405.398438 339.261719 405.515625 338.296875 C 405.636719 337.328125 404.953125 336.542969 403.988281 336.542969 Z M 454.132812 337.109375 L 436.542969 337.109375 C 435.890625 337.109375 435.359375 337.640625 435.359375 338.289062 C 435.359375 338.945312 435.890625 339.472656 436.542969 339.472656 L 454.132812 339.472656 C 454.78125 339.472656 455.3125 338.945312 455.3125 338.289062 C 455.3125 337.640625 454.78125 337.109375 454.132812 337.109375 Z M 320.734375 187.871094 C 323.085938 187.871094 325.007812 185.953125 325.007812 183.59375 C 325.007812 181.238281 323.085938 179.320312 320.734375 179.320312 C 318.378906 179.320312 316.464844 181.238281 316.464844 183.59375 C 316.464844 185.953125 318.378906 187.871094 320.734375 187.871094 Z M 352.589844 267.410156 C 352.589844 269.277344 354.105469 270.796875 355.972656 270.796875 L 381.550781 270.796875 C 383.414062 270.796875 384.933594 269.277344 384.933594 267.410156 C 384.933594 265.546875 383.414062 264.03125 381.550781 264.03125 L 355.972656 264.03125 C 354.105469 264.03125 352.589844 265.546875 352.589844 267.410156 Z M 329.195312 250.21875 L 354.78125 250.21875 C 356.644531 250.21875 358.164062 248.703125 358.164062 246.832031 C 358.164062 244.96875 356.644531 243.453125 354.78125 243.453125 L 329.195312 243.453125 C 327.332031 243.453125 325.8125 244.96875 325.8125 246.832031 C 325.8125 248.703125 327.332031 250.21875 329.195312 250.21875 Z M 329.195312 229.640625 L 373.523438 229.640625 C 375.386719 229.640625 376.902344 228.121094 376.902344 226.257812 C 376.902344 224.390625 375.386719 222.875 373.523438 222.875 L 329.195312 222.875 C 327.332031 222.875 325.8125 224.390625 325.8125 226.257812 C 325.8125 228.121094 327.332031 229.640625 329.195312 229.640625 Z M 382.066406 250.21875 L 391.117188 250.21875 C 392.980469 250.21875 394.492188 248.703125 394.492188 246.832031 C 394.492188 244.96875 392.980469 243.453125 391.117188 243.453125 L 382.066406 243.453125 C 380.203125 243.453125 378.6875 244.96875 378.6875 246.832031 C 378.6875 248.703125 380.203125 250.21875 382.066406 250.21875 Z M 372.84375 250.21875 C 374.707031 250.21875 376.226562 248.703125 376.226562 246.832031 C 376.226562 244.96875 374.707031 243.453125 372.84375 243.453125 L 363.800781 243.453125 C 361.9375 243.453125 360.417969 244.96875 360.417969 246.832031 C 360.417969 248.703125 361.9375 250.21875 363.800781 250.21875 Z M 329.195312 219.355469 L 338.242188 219.355469 C 340.109375 219.355469 341.625 217.835938 341.625 215.96875 C 341.625 214.101562 340.109375 212.582031 338.242188 212.582031 L 329.195312 212.582031 C 327.332031 212.582031 325.8125 214.101562 325.8125 215.96875 C 325.8125 217.835938 327.332031 219.355469 329.195312 219.355469 Z M 329.195312 209.0625 L 359.664062 209.0625 C 361.527344 209.0625 363.042969 207.550781 363.042969 205.683594 C 363.042969 203.816406 361.527344 202.296875 359.664062 202.296875 L 329.195312 202.296875 C 327.332031 202.296875 325.8125 203.816406 325.8125 205.683594 C 325.8125 207.550781 327.332031 209.0625 329.195312 209.0625 Z M 394.992188 656.214844 L 180 656.214844 C 171.144531 656.214844 163.964844 663.398438 163.964844 672.261719 C 163.964844 681.125 171.144531 688.308594 180 688.308594 L 394.992188 688.308594 C 403.847656 688.308594 411.023438 681.125 411.023438 672.261719 C 411.023438 663.398438 403.847656 656.214844 394.992188 656.214844 Z M 643.03125 320.957031 C 643.03125 320.304688 642.5 319.773438 641.851562 319.773438 L 583.773438 319.773438 C 583.117188 319.773438 582.589844 320.304688 582.589844 320.957031 C 582.589844 321.613281 583.117188 322.136719 583.773438 322.136719 L 641.851562 322.136719 C 642.5 322.136719 643.03125 321.613281 643.03125 320.957031 Z M 615.742188 339.472656 L 625.699219 339.472656 C 626.351562 339.472656 626.882812 338.945312 626.882812 338.289062 C 626.882812 337.640625 626.351562 337.109375 625.699219 337.109375 L 615.742188 337.109375 C 615.09375 337.109375 614.5625 337.640625 614.5625 338.289062 C 614.5625 338.945312 615.09375 339.472656 615.742188 339.472656 Z M 639.160156 346.019531 C 639.160156 345.367188 638.628906 344.835938 637.980469 344.835938 L 614.773438 344.835938 C 614.125 344.835938 613.59375 345.367188 613.59375 346.019531 C 613.59375 346.667969 614.125 347.199219 614.773438 347.199219 L 637.980469 347.199219 C 638.628906 347.199219 639.160156 346.667969 639.160156 346.019531 Z M 613.804688 354.929688 L 625.71875 354.929688 C 626.375 354.929688 626.898438 354.398438 626.898438 353.746094 C 626.898438 353.089844 626.375 352.5625 625.71875 352.5625 L 613.804688 352.5625 C 613.15625 352.5625 612.625 353.089844 612.625 353.746094 C 612.625 354.398438 613.15625 354.929688 613.804688 354.929688 Z M 606.824219 404.222656 C 606.167969 404.222656 605.644531 404.75 605.644531 405.40625 C 605.644531 406.058594 606.167969 406.585938 606.824219 406.585938 L 616.777344 406.585938 C 617.425781 406.585938 617.957031 406.058594 617.957031 405.40625 C 617.957031 404.75 617.425781 404.222656 616.777344 404.222656 Z M 630.234375 413.128906 C 630.234375 412.476562 629.707031 411.945312 629.054688 411.945312 L 605.851562 411.945312 C 605.199219 411.945312 604.667969 412.476562 604.667969 413.128906 C 604.667969 413.785156 605.199219 414.3125 605.851562 414.3125 L 629.054688 414.3125 C 629.707031 414.3125 630.234375 413.785156 630.234375 413.128906 Z M 617.976562 420.855469 C 617.976562 420.199219 617.449219 419.671875 616.796875 419.671875 L 604.882812 419.671875 C 604.230469 419.671875 603.699219 420.199219 603.699219 420.855469 C 603.699219 421.507812 604.230469 422.039062 604.882812 422.039062 L 616.796875 422.039062 C 617.449219 422.039062 617.976562 421.507812 617.976562 420.855469 Z M 592.554688 346.910156 C 592.554688 346.257812 592.027344 345.726562 591.371094 345.726562 L 571.472656 345.726562 C 570.816406 345.726562 570.289062 346.257812 570.289062 346.910156 C 570.289062 347.566406 570.816406 348.09375 571.472656 348.09375 L 591.371094 348.09375 C 592.027344 348.09375 592.554688 347.566406 592.554688 346.910156 Z M 582.585938 362.363281 C 582.585938 361.710938 582.0625 361.183594 581.40625 361.183594 L 564.015625 361.183594 C 563.363281 361.183594 562.832031 361.710938 562.832031 362.363281 C 562.832031 363.015625 563.363281 363.546875 564.015625 363.546875 L 581.40625 363.546875 C 582.0625 363.546875 582.585938 363.015625 582.585938 362.363281 Z M 578.429688 459.410156 C 578.429688 458.761719 577.902344 458.230469 577.25 458.230469 L 545.9375 458.230469 C 545.285156 458.230469 544.757812 458.761719 544.757812 459.410156 C 544.757812 460.0625 545.285156 460.59375 545.9375 460.59375 L 577.25 460.59375 C 577.902344 460.59375 578.429688 460.0625 578.429688 459.410156 Z M 489.597656 329.675781 L 403.238281 329.675781 C 399.976562 329.675781 397 332.324219 396.589844 335.589844 L 395.167969 346.910156 L 493.339844 346.910156 L 494.761719 335.589844 C 495.171875 332.324219 492.863281 329.675781 489.597656 329.675781 Z M 479.703125 418.570312 C 479.703125 417.914062 479.171875 417.386719 478.519531 417.386719 L 467.980469 417.386719 C 467.332031 417.386719 466.800781 417.914062 466.800781 418.570312 C 466.800781 419.222656 467.332031 419.753906 467.980469 419.753906 L 478.519531 419.753906 C 479.171875 419.753906 479.703125 419.222656 479.703125 418.570312 Z M 454.28125 424.246094 C 454.28125 423.589844 453.753906 423.0625 453.101562 423.0625 L 443.234375 423.0625 C 442.582031 423.0625 442.050781 423.589844 442.050781 424.246094 C 442.050781 424.898438 442.582031 425.429688 443.234375 425.429688 L 453.101562 425.429688 C 453.753906 425.429688 454.28125 424.898438 454.28125 424.246094 Z M 433.855469 418.570312 C 433.855469 417.914062 433.324219 417.386719 432.675781 417.386719 L 422.136719 417.386719 C 421.480469 417.386719 420.957031 417.914062 420.957031 418.570312 C 420.957031 419.222656 421.480469 419.753906 422.136719 419.753906 L 432.675781 419.753906 C 433.324219 419.753906 433.855469 419.222656 433.855469 418.570312 Z M 405.15625 464.265625 L 396.160156 464.265625 C 394.917969 464.265625 393.789062 465.273438 393.632812 466.515625 C 393.480469 467.753906 394.355469 468.761719 395.597656 468.761719 L 404.59375 468.761719 C 405.832031 468.761719 406.964844 467.753906 407.121094 466.515625 C 407.273438 465.273438 406.398438 464.265625 405.15625 464.265625 Z M 395.917969 448.871094 C 396.882812 448.871094 397.761719 448.085938 397.886719 447.121094 C 398.003906 446.15625 397.324219 445.371094 396.359375 445.371094 C 395.394531 445.371094 394.511719 446.15625 394.390625 447.121094 C 394.269531 448.085938 394.957031 448.871094 395.917969 448.871094 Z M 394.886719 424.246094 C 394.886719 424.898438 395.414062 425.429688 396.066406 425.429688 L 403.316406 425.429688 C 403.964844 425.429688 404.496094 424.898438 404.496094 424.246094 C 404.496094 423.589844 403.964844 423.0625 403.316406 423.0625 L 396.066406 423.0625 C 395.414062 423.0625 394.886719 423.589844 394.886719 424.246094 Z M 441.261719 362.363281 C 441.261719 361.710938 440.734375 361.183594 440.082031 361.183594 L 417.773438 361.183594 C 417.121094 361.183594 416.589844 361.710938 416.589844 362.363281 C 416.589844 363.015625 417.121094 363.546875 417.773438 363.546875 L 440.082031 363.546875 C 440.734375 363.546875 441.261719 363.015625 441.261719 362.363281 Z M 516.84375 490.3125 C 516.84375 490.96875 517.371094 491.496094 518.027344 491.496094 L 563.195312 491.496094 C 563.847656 491.496094 564.375 490.96875 564.375 490.3125 C 564.375 489.660156 563.847656 489.128906 563.195312 489.128906 L 518.027344 489.128906 C 517.371094 489.128906 516.84375 489.660156 516.84375 490.3125 Z M 527.089844 408.71875 C 527.089844 409.367188 527.621094 409.898438 528.269531 409.898438 L 540.183594 409.898438 C 540.832031 409.898438 541.363281 409.367188 541.363281 408.71875 C 541.363281 408.0625 540.832031 407.535156 540.183594 407.535156 L 528.269531 407.535156 C 527.621094 407.535156 527.089844 408.0625 527.089844 408.71875 Z M 530.96875 377.816406 C 530.96875 378.46875 531.5 379 532.148438 379 L 546.503906 379 C 547.160156 379 547.6875 378.46875 547.6875 377.816406 C 547.6875 377.160156 547.160156 376.632812 546.503906 376.632812 L 532.148438 376.632812 C 531.5 376.632812 530.96875 377.160156 530.96875 377.816406 Z M 533.875 354.636719 C 533.875 355.289062 534.40625 355.820312 535.058594 355.820312 L 545.007812 355.820312 C 545.664062 355.820312 546.191406 355.289062 546.191406 354.636719 C 546.191406 353.984375 545.664062 353.457031 545.007812 353.457031 L 535.058594 353.457031 C 534.40625 353.457031 533.875 353.984375 533.875 354.636719 Z M 573.425781 377.816406 C 573.425781 377.160156 572.898438 376.632812 572.246094 376.632812 L 551.667969 376.632812 C 551.015625 376.632812 550.488281 377.160156 550.488281 377.816406 C 550.488281 378.46875 551.015625 379 551.667969 379 L 572.246094 379 C 572.898438 379 573.425781 378.46875 573.425781 377.816406 Z M 576.554688 402.171875 C 577.210938 402.171875 577.738281 401.644531 577.738281 400.988281 C 577.738281 400.339844 577.210938 399.808594 576.554688 399.808594 L 559.164062 399.808594 C 558.515625 399.808594 557.984375 400.339844 557.984375 400.988281 C 557.984375 401.644531 558.515625 402.171875 559.164062 402.171875 Z M 650.566406 324.898438 L 632.269531 490.101562 C 631.730469 494.976562 627.621094 498.660156 622.714844 498.660156 L 366.519531 498.660156 C 363.746094 498.660156 361.203125 497.523438 359.359375 495.457031 C 358.988281 495.046875 358.675781 494.609375 358.390625 494.15625 C 355.726562 513.078125 342.976562 534.433594 342.976562 551.085938 C 342.976562 569.371094 356.902344 595.601562 356.902344 595.601562 C 356.902344 595.601562 351.960938 636.550781 301.796875 636.550781 C 283.664062 636.550781 270.863281 633.367188 264.28125 631.214844 C 260.859375 630.097656 258.34375 627.222656 257.570312 623.707031 C 251.738281 597.207031 255.695312 559.585938 259.804688 546.355469 C 262.585938 537.414062 259.316406 491.609375 248.585938 458.957031 C 243.109375 442.300781 255.503906 425.160156 273.019531 425.160156 L 277.167969 411.945312 C 277.167969 411.945312 290.359375 405.5625 304.296875 408.398438 C 318.238281 411.238281 324.894531 415.074219 330.089844 415.804688 L 326.722656 425.234375 C 332.472656 425.738281 337.613281 429.164062 340.242188 434.390625 C 345.914062 445.667969 354.933594 465.046875 357.890625 479.605469 L 375.257812 322.78125 C 375.796875 317.898438 379.90625 314.214844 384.8125 314.214844 L 641.011719 314.214844 C 643.777344 314.214844 646.324219 315.355469 648.171875 317.421875 C 650.019531 319.488281 650.871094 322.144531 650.566406 324.898438 Z M 410.601562 336.542969 C 409.640625 336.542969 408.761719 337.328125 408.636719 338.296875 C 408.515625 339.261719 409.199219 340.042969 410.164062 340.042969 C 411.128906 340.042969 412.007812 339.261719 412.128906 338.296875 C 412.253906 337.328125 411.570312 336.542969 410.601562 336.542969 Z M 417.21875 336.542969 C 416.253906 336.542969 415.371094 337.328125 415.253906 338.296875 C 415.132812 339.261719 415.816406 340.042969 416.78125 340.042969 C 417.746094 340.042969 418.625 339.261719 418.746094 338.296875 C 418.867188 337.328125 418.183594 336.542969 417.21875 336.542969 Z M 236.179688 331.144531 L 222.117188 331.144531 L 222.117188 361.847656 L 236.179688 361.847656 Z M 186.835938 361.847656 L 200.902344 361.847656 L 200.902344 335.398438 L 186.835938 335.398438 Z M 165.621094 361.847656 L 151.558594 361.847656 L 151.558594 344.625 L 165.621094 344.625 L 165.621094 361.847656"/></g><g clip-path="url(#c)"><path fill="#F3D0D2" d="M 198.625 241.839844 C 204.90625 241.839844 209.996094 236.746094 209.996094 230.460938 C 209.996094 224.171875 204.90625 219.078125 198.625 219.078125 C 192.351562 219.078125 187.261719 224.171875 187.261719 230.460938 C 187.261719 236.746094 192.351562 241.839844 198.625 241.839844 Z M 165.183594 183.59375 C 165.183594 185.304688 166.566406 186.6875 168.273438 186.6875 C 169.984375 186.6875 171.363281 185.304688 171.363281 183.59375 C 171.363281 181.890625 169.984375 180.503906 168.273438 180.503906 C 166.566406 180.503906 165.183594 181.890625 165.183594 183.59375 Z M 173.015625 210.648438 L 177.175781 217.160156 C 175.753906 219.449219 174.699219 221.980469 174.066406 224.675781 L 166.523438 226.335938 L 166.523438 234.578125 L 174.066406 236.242188 C 174.699219 238.941406 175.753906 241.472656 177.175781 243.757812 L 173.015625 250.269531 L 178.835938 256.101562 L 185.347656 251.9375 C 187.632812 253.355469 190.15625 254.414062 192.851562 255.046875 L 194.511719 262.597656 L 202.746094 262.597656 L 204.40625 255.046875 C 207.097656 254.414062 209.625 253.355469 211.910156 251.9375 L 218.421875 256.101562 L 224.242188 250.269531 L 220.082031 243.757812 C 221.5 241.472656 222.558594 238.941406 223.191406 236.242188 L 230.734375 234.578125 L 230.734375 226.335938 L 223.191406 224.675781 C 222.558594 221.980469 221.5 219.449219 220.082031 217.160156 L 224.242188 210.648438 L 218.421875 204.816406 L 211.910156 208.980469 C 209.625 207.5625 207.097656 206.5 204.40625 205.871094 L 202.746094 198.316406 L 194.511719 198.316406 L 192.851562 205.871094 C 190.15625 206.5 187.632812 207.5625 185.347656 208.980469 L 178.835938 204.816406 Z M 238.152344 237.820312 L 270.277344 237.820312 L 270.277344 230.460938 L 238.152344 230.460938 Z M 238.152344 205.683594 L 270.277344 205.683594 L 270.277344 198.316406 L 238.152344 198.316406 Z M 204.554688 271.585938 L 186.273438 271.585938 L 186.273438 272.769531 L 204.554688 272.769531 Z M 204.554688 275.527344 L 196.90625 275.527344 L 196.90625 276.710938 L 204.554688 276.710938 Z M 193.925781 276.710938 L 193.925781 275.527344 L 186.273438 275.527344 L 186.273438 276.710938 Z M 198.300781 279.472656 L 186.273438 279.472656 L 186.273438 280.65625 L 198.300781 280.65625 Z M 284.425781 264.621094 L 305.792969 264.621094 L 305.792969 231.992188 L 284.425781 231.992188 Z M 284.425781 230.808594 L 305.792969 230.808594 L 305.792969 198.1875 L 284.425781 198.1875 Z M 317.648438 267.410156 C 317.648438 268.632812 318.628906 269.613281 319.84375 269.613281 L 320.050781 269.613281 C 321.269531 269.613281 322.25 268.632812 322.25 267.410156 C 322.25 266.195312 321.269531 265.214844 320.050781 265.214844 L 319.84375 265.214844 C 318.628906 265.214844 317.648438 266.195312 317.648438 267.410156 Z M 317.648438 257.125 C 317.648438 258.339844 318.628906 259.328125 319.84375 259.328125 L 320.050781 259.328125 C 321.269531 259.328125 322.25 258.339844 322.25 257.125 C 322.25 255.910156 321.269531 254.921875 320.050781 254.921875 L 319.84375 254.921875 C 318.628906 254.921875 317.648438 255.910156 317.648438 257.125 Z M 317.648438 246.839844 C 317.648438 248.054688 318.628906 249.039062 319.84375 249.039062 L 320.050781 249.039062 C 321.269531 249.039062 322.25 248.054688 322.25 246.839844 C 322.25 245.617188 321.269531 244.636719 320.050781 244.636719 L 319.84375 244.636719 C 318.628906 244.636719 317.648438 245.617188 317.648438 246.839844 Z M 317.648438 236.546875 C 317.648438 237.761719 318.628906 238.75 319.84375 238.75 L 320.050781 238.75 C 321.269531 238.75 322.25 237.761719 322.25 236.546875 C 322.25 235.332031 321.269531 234.34375 320.050781 234.34375 L 319.84375 234.34375 C 318.628906 234.34375 317.648438 235.332031 317.648438 236.546875 Z M 317.648438 226.257812 C 317.648438 227.476562 318.628906 228.460938 319.84375 228.460938 L 320.050781 228.460938 C 321.269531 228.460938 322.25 227.476562 322.25 226.257812 C 322.25 225.042969 321.269531 224.058594 320.050781 224.058594 L 319.84375 224.058594 C 318.628906 224.058594 317.648438 225.042969 317.648438 226.257812 Z M 317.648438 215.96875 C 317.648438 217.183594 318.628906 218.171875 319.84375 218.171875 L 320.050781 218.171875 C 321.269531 218.171875 322.25 217.183594 322.25 215.96875 C 322.25 214.753906 321.269531 213.765625 320.050781 213.765625 L 319.84375 213.765625 C 318.628906 213.765625 317.648438 214.753906 317.648438 215.96875 Z M 317.648438 205.683594 C 317.648438 206.898438 318.628906 207.882812 319.84375 207.882812 L 320.050781 207.882812 C 321.269531 207.882812 322.25 206.898438 322.25 205.683594 C 322.25 204.464844 321.269531 203.480469 320.050781 203.480469 L 319.84375 203.480469 C 318.628906 203.480469 317.648438 204.464844 317.648438 205.683594 Z M 317.648438 195.390625 C 317.648438 196.605469 318.628906 197.59375 319.84375 197.59375 L 320.050781 197.59375 C 321.269531 197.59375 322.25 196.605469 322.25 195.390625 C 322.25 194.175781 321.269531 193.1875 320.050781 193.1875 L 319.84375 193.1875 C 318.628906 193.1875 317.648438 194.175781 317.648438 195.390625 Z M 317.648438 183.59375 C 317.648438 185.304688 319.027344 186.6875 320.734375 186.6875 C 322.441406 186.6875 323.824219 185.304688 323.824219 183.59375 C 323.824219 181.890625 322.441406 180.503906 320.734375 180.503906 C 319.027344 180.503906 317.648438 181.890625 317.648438 183.59375 Z M 326.996094 267.410156 C 326.996094 268.632812 327.980469 269.613281 329.195312 269.613281 L 347.851562 269.613281 C 349.0625 269.613281 350.050781 268.632812 350.050781 267.410156 C 350.050781 266.195312 349.0625 265.214844 347.851562 265.214844 L 329.195312 265.214844 C 327.980469 265.214844 326.996094 266.195312 326.996094 267.410156 Z M 326.996094 257.125 C 326.996094 258.339844 327.980469 259.328125 329.195312 259.328125 L 369.113281 259.328125 C 370.324219 259.328125 371.3125 258.339844 371.3125 257.125 C 371.3125 255.910156 370.324219 254.921875 369.113281 254.921875 L 329.195312 254.921875 C 327.980469 254.921875 326.996094 255.910156 326.996094 257.125 Z M 326.996094 246.839844 C 326.996094 248.054688 327.980469 249.039062 329.195312 249.039062 L 354.78125 249.039062 C 355.996094 249.039062 356.980469 248.054688 356.980469 246.839844 C 356.980469 245.617188 355.996094 244.636719 354.78125 244.636719 L 329.195312 244.636719 C 327.980469 244.636719 326.996094 245.617188 326.996094 246.839844 Z M 326.996094 236.546875 C 326.996094 237.761719 327.980469 238.75 329.195312 238.75 L 362.96875 238.75 C 364.183594 238.75 365.167969 237.761719 365.167969 236.546875 C 365.167969 235.332031 364.183594 234.34375 362.96875 234.34375 L 329.195312 234.34375 C 327.980469 234.34375 326.996094 235.332031 326.996094 236.546875 Z M 326.996094 226.257812 C 326.996094 227.476562 327.980469 228.460938 329.195312 228.460938 L 373.523438 228.460938 C 374.738281 228.460938 375.71875 227.476562 375.71875 226.257812 C 375.71875 225.042969 374.738281 224.058594 373.523438 224.058594 L 329.195312 224.058594 C 327.980469 224.058594 326.996094 225.042969 326.996094 226.257812 Z M 326.996094 215.96875 C 326.996094 217.183594 327.980469 218.171875 329.195312 218.171875 L 338.242188 218.171875 C 339.457031 218.171875 340.445312 217.183594 340.445312 215.96875 C 340.445312 214.753906 339.457031 213.765625 338.242188 213.765625 L 329.195312 213.765625 C 327.980469 213.765625 326.996094 214.753906 326.996094 215.96875 Z M 326.996094 205.683594 C 326.996094 206.898438 327.980469 207.882812 329.195312 207.882812 L 359.664062 207.882812 C 360.875 207.882812 361.863281 206.898438 361.863281 205.683594 C 361.863281 204.464844 360.875 203.480469 359.664062 203.480469 L 329.195312 203.480469 C 327.980469 203.480469 326.996094 204.464844 326.996094 205.683594 Z M 326.996094 195.390625 C 326.996094 196.605469 327.980469 197.59375 329.195312 197.59375 L 343.183594 197.59375 C 344.398438 197.59375 345.382812 196.605469 345.382812 195.390625 C 345.382812 194.175781 344.398438 193.1875 343.183594 193.1875 L 329.195312 193.1875 C 327.980469 193.1875 326.996094 194.175781 326.996094 195.390625 Z M 329.34375 183.59375 C 329.34375 185.304688 330.726562 186.6875 332.433594 186.6875 C 334.140625 186.6875 335.527344 185.304688 335.527344 183.59375 C 335.527344 181.890625 334.140625 180.503906 332.433594 180.503906 C 330.726562 180.503906 329.34375 181.890625 329.34375 183.59375 Z M 393.472656 213.765625 L 349.148438 213.765625 C 347.933594 213.765625 346.949219 214.753906 346.949219 215.96875 C 346.949219 217.183594 347.933594 218.171875 349.148438 218.171875 L 393.472656 218.171875 C 394.6875 218.171875 395.675781 217.183594 395.675781 215.96875 C 395.675781 214.753906 394.6875 213.765625 393.472656 213.765625 Z M 394.414062 226.257812 C 394.414062 225.042969 393.433594 224.058594 392.21875 224.058594 L 383.171875 224.058594 C 381.957031 224.058594 380.96875 225.042969 380.96875 226.257812 C 380.96875 227.476562 381.957031 228.460938 383.171875 228.460938 L 392.21875 228.460938 C 393.433594 228.460938 394.414062 227.476562 394.414062 226.257812 Z M 393.3125 246.839844 C 393.3125 245.617188 392.328125 244.636719 391.117188 244.636719 L 382.066406 244.636719 C 380.855469 244.636719 379.867188 245.617188 379.867188 246.839844 C 379.867188 248.054688 380.855469 249.039062 382.066406 249.039062 L 391.117188 249.039062 C 392.328125 249.039062 393.3125 248.054688 393.3125 246.839844 Z M 375.046875 246.839844 C 375.046875 245.617188 374.0625 244.636719 372.84375 244.636719 L 363.796875 244.636719 C 362.582031 244.636719 361.601562 245.617188 361.601562 246.839844 C 361.601562 248.054688 362.582031 249.039062 363.796875 249.039062 L 372.84375 249.039062 C 374.0625 249.039062 375.046875 248.054688 375.046875 246.839844 Z M 383.753906 267.410156 C 383.753906 266.195312 382.769531 265.214844 381.550781 265.214844 L 355.972656 265.214844 C 354.753906 265.214844 353.769531 266.195312 353.769531 267.410156 C 353.769531 268.632812 354.753906 269.613281 355.972656 269.613281 L 381.550781 269.613281 C 382.769531 269.613281 383.753906 268.632812 383.753906 267.410156 Z M 444.296875 264.621094 L 472.265625 264.621094 L 472.265625 231.992188 L 444.296875 231.992188 Z M 444.296875 230.808594 L 472.265625 230.808594 L 472.265625 198.1875 L 444.296875 198.1875 Z M 485.558594 262.597656 L 600.78125 262.597656 L 600.78125 203.480469 L 485.558594 203.480469 Z M 497.257812 183.59375 C 497.257812 185.304688 498.644531 186.6875 500.351562 186.6875 C 502.058594 186.6875 503.441406 185.304688 503.441406 183.59375 C 503.441406 181.890625 502.058594 180.503906 500.351562 180.503906 C 498.644531 180.503906 497.257812 181.890625 497.257812 183.59375 Z M 578.023438 269.023438 L 559.738281 269.023438 L 559.738281 270.207031 L 578.023438 270.207031 Z M 578.023438 272.964844 L 570.367188 272.964844 L 570.367188 274.144531 L 578.023438 274.144531 Z M 567.390625 274.144531 L 567.390625 272.964844 L 559.738281 272.964844 L 559.738281 274.144531 Z M 571.761719 276.910156 L 559.738281 276.910156 L 559.738281 278.089844 L 571.761719 278.089844 Z M 540.226562 269.023438 L 521.9375 269.023438 L 521.9375 270.207031 L 540.226562 270.207031 Z M 540.226562 272.964844 L 532.570312 272.964844 L 532.570312 274.144531 L 540.226562 274.144531 Z M 529.59375 274.144531 L 529.59375 272.964844 L 521.9375 272.964844 L 521.9375 274.144531 Z M 533.964844 276.910156 L 521.9375 276.910156 L 521.9375 278.089844 L 533.964844 278.089844 Z M 145.921875 288.496094 L 145.921875 178.675781 C 145.921875 175.410156 148.5625 172.761719 151.824219 172.761719 L 278.519531 172.761719 C 281.78125 172.761719 284.425781 175.410156 284.425781 178.675781 L 284.425781 197.003906 L 305.792969 197.003906 L 305.792969 178.675781 C 305.792969 175.410156 308.4375 172.761719 311.699219 172.761719 L 438.390625 172.761719 C 441.65625 172.761719 444.296875 175.410156 444.296875 178.675781 L 444.296875 197.003906 L 472.265625 197.003906 L 472.265625 178.675781 C 472.265625 175.410156 474.90625 172.761719 478.171875 172.761719 L 604.859375 172.761719 C 608.125 172.761719 610.765625 175.410156 610.765625 178.675781 L 610.765625 264.621094 L 626.027344 264.621094 C 626.269531 265.011719 626.488281 265.410156 626.71875 265.804688 L 610.765625 265.804688 L 610.765625 288.496094 C 610.765625 291.761719 608.125 294.410156 604.859375 294.410156 L 478.171875 294.410156 C 474.90625 294.410156 472.265625 291.761719 472.265625 288.496094 L 472.265625 265.804688 L 444.296875 265.804688 L 444.296875 276.195312 C 444.296875 279.460938 441.65625 282.109375 438.390625 282.109375 L 311.699219 282.109375 C 308.4375 282.109375 305.792969 279.460938 305.792969 276.195312 L 305.792969 265.804688 L 284.425781 265.804688 L 284.425781 288.496094 C 284.425781 291.761719 281.78125 294.410156 278.519531 294.410156 L 151.824219 294.410156 C 148.5625 294.410156 145.921875 291.761719 145.921875 288.496094 Z M 552.585938 319.773438 C 551.933594 319.773438 551.40625 320.304688 551.40625 320.957031 C 551.40625 321.613281 551.933594 322.136719 552.585938 322.136719 L 576.445312 322.136719 C 577.101562 322.136719 577.625 321.613281 577.625 320.957031 C 577.625 320.304688 577.101562 319.773438 576.445312 319.773438 Z M 578.429688 459.410156 C 578.429688 458.761719 577.902344 458.230469 577.25 458.230469 L 545.9375 458.230469 C 545.285156 458.230469 544.757812 458.761719 544.757812 459.410156 C 544.757812 460.0625 545.285156 460.59375 545.9375 460.59375 L 577.25 460.59375 C 577.902344 460.59375 578.429688 460.0625 578.429688 459.410156 Z M 565.34375 482.589844 C 565.34375 481.933594 564.816406 481.40625 564.164062 481.40625 L 518.996094 481.40625 C 518.34375 481.40625 517.8125 481.933594 517.8125 482.589844 C 517.8125 483.242188 518.34375 483.773438 518.996094 483.773438 L 564.164062 483.773438 C 564.816406 483.773438 565.34375 483.242188 565.34375 482.589844 Z M 564.375 490.3125 C 564.375 489.660156 563.847656 489.128906 563.195312 489.128906 L 518.027344 489.128906 C 517.371094 489.128906 516.84375 489.660156 516.84375 490.3125 C 516.84375 490.96875 517.371094 491.496094 518.027344 491.496094 L 563.195312 491.496094 C 563.847656 491.496094 564.375 490.96875 564.375 490.3125 Z M 519.753906 467.132812 C 519.753906 467.789062 520.28125 468.316406 520.933594 468.316406 L 557.433594 468.316406 C 558.085938 468.316406 558.617188 467.789062 558.617188 467.132812 C 558.617188 466.484375 558.085938 465.953125 557.433594 465.953125 L 520.933594 465.953125 C 520.28125 465.953125 519.753906 466.484375 519.753906 467.132812 Z M 520.726562 459.410156 C 520.726562 460.0625 521.25 460.59375 521.90625 460.59375 L 537.5625 460.59375 C 538.214844 460.59375 538.742188 460.0625 538.742188 459.410156 C 538.742188 458.761719 538.214844 458.230469 537.5625 458.230469 L 521.90625 458.230469 C 521.25 458.230469 520.726562 458.761719 520.726562 459.410156 Z M 521.695312 451.6875 C 521.695312 452.339844 522.222656 452.871094 522.875 452.871094 L 568.042969 452.871094 C 568.699219 452.871094 569.222656 452.339844 569.222656 451.6875 C 569.222656 451.03125 568.699219 450.503906 568.042969 450.503906 L 522.875 450.503906 C 522.222656 450.503906 521.695312 451.03125 521.695312 451.6875 Z M 513 451.6875 C 513 451.03125 512.472656 450.503906 511.820312 450.503906 L 503.945312 450.503906 C 503.292969 450.503906 502.761719 451.03125 502.761719 451.6875 C 502.761719 452.339844 503.292969 452.871094 503.945312 452.871094 L 511.820312 452.871094 C 512.472656 452.871094 513 452.339844 513 451.6875 Z M 512.027344 459.410156 C 512.027344 458.761719 511.503906 458.230469 510.847656 458.230469 L 502.976562 458.230469 C 502.320312 458.230469 501.792969 458.761719 501.792969 459.410156 C 501.792969 460.0625 502.320312 460.59375 502.976562 460.59375 L 510.847656 460.59375 C 511.503906 460.59375 512.027344 460.0625 512.027344 459.410156 Z M 511.058594 467.132812 C 511.058594 466.484375 510.535156 465.953125 509.878906 465.953125 L 502 465.953125 C 501.351562 465.953125 500.820312 466.484375 500.820312 467.132812 C 500.820312 467.789062 501.351562 468.316406 502 468.316406 L 509.878906 468.316406 C 510.535156 468.316406 511.058594 467.789062 511.058594 467.132812 Z M 509.121094 482.589844 C 509.121094 481.933594 508.589844 481.40625 507.941406 481.40625 L 500.0625 481.40625 C 499.414062 481.40625 498.882812 481.933594 498.882812 482.589844 C 498.882812 483.242188 499.414062 483.773438 500.0625 483.773438 L 507.941406 483.773438 C 508.589844 483.773438 509.121094 483.242188 509.121094 482.589844 Z M 508.152344 490.3125 C 508.152344 489.660156 507.621094 489.128906 506.972656 489.128906 L 499.09375 489.128906 C 498.441406 489.128906 497.914062 489.660156 497.914062 490.3125 C 497.914062 490.96875 498.441406 491.496094 499.09375 491.496094 L 506.972656 491.496094 C 507.621094 491.496094 508.152344 490.96875 508.152344 490.3125 Z M 594.050781 446.933594 L 587.554688 498.660156 L 573.378906 498.660156 C 573.496094 498.480469 573.578125 498.269531 573.578125 498.039062 C 573.578125 497.382812 573.054688 496.859375 572.398438 496.859375 L 541.085938 496.859375 C 540.4375 496.859375 539.90625 497.382812 539.90625 498.039062 C 539.90625 498.269531 539.988281 498.480469 540.109375 498.660156 L 533.691406 498.660156 C 533.808594 498.480469 533.894531 498.269531 533.894531 498.039062 C 533.894531 497.382812 533.363281 496.859375 532.714844 496.859375 L 517.054688 496.859375 C 516.402344 496.859375 515.871094 497.382812 515.871094 498.039062 C 515.871094 498.269531 515.960938 498.480469 516.074219 498.660156 L 506.976562 498.660156 C 507.097656 498.480469 507.179688 498.269531 507.179688 498.039062 C 507.179688 497.382812 506.652344 496.859375 505.996094 496.859375 L 498.125 496.859375 C 497.472656 496.859375 496.945312 497.382812 496.945312 498.039062 C 496.945312 498.269531 497.027344 498.480469 497.148438 498.660156 L 489.382812 498.660156 L 495.878906 446.933594 C 496.289062 443.667969 499.265625 441.023438 502.527344 441.023438 L 588.890625 441.023438 C 592.148438 441.023438 594.464844 443.667969 594.050781 446.933594 Z M 426.371094 464.265625 L 417.375 464.265625 C 416.132812 464.265625 415.003906 465.273438 414.851562 466.515625 C 414.695312 467.753906 415.570312 468.761719 416.8125 468.761719 L 425.808594 468.761719 C 427.050781 468.761719 428.179688 467.753906 428.339844 466.515625 C 428.492188 465.273438 427.613281 464.265625 426.371094 464.265625 Z M 405.15625 464.265625 L 396.160156 464.265625 C 394.917969 464.265625 393.789062 465.273438 393.632812 466.515625 C 393.480469 467.753906 394.355469 468.761719 395.597656 468.761719 L 404.59375 468.761719 C 405.832031 468.761719 406.964844 467.753906 407.121094 466.515625 C 407.273438 465.273438 406.398438 464.265625 405.15625 464.265625 Z M 389.742188 445.371094 C 388.777344 445.371094 387.894531 446.15625 387.777344 447.121094 C 387.65625 448.085938 388.339844 448.871094 389.304688 448.871094 C 390.265625 448.871094 391.148438 448.085938 391.269531 447.121094 C 391.394531 446.15625 390.707031 445.371094 389.742188 445.371094 Z M 395.917969 448.871094 C 396.882812 448.871094 397.761719 448.085938 397.886719 447.121094 C 398.003906 446.15625 397.324219 445.371094 396.359375 445.371094 C 395.394531 445.371094 394.511719 446.15625 394.390625 447.121094 C 394.269531 448.085938 394.957031 448.871094 395.917969 448.871094 Z M 402.53125 448.871094 C 403.496094 448.871094 404.378906 448.085938 404.496094 447.121094 C 404.621094 446.15625 403.9375 445.371094 402.96875 445.371094 C 402.003906 445.371094 401.128906 446.15625 401.003906 447.121094 C 400.882812 448.085938 401.566406 448.871094 402.53125 448.871094 Z M 420.929688 456.222656 L 403.324219 456.222656 C 402.675781 456.222656 402.144531 456.753906 402.144531 457.40625 C 402.144531 458.0625 402.675781 458.589844 403.324219 458.589844 L 420.929688 458.589844 C 421.582031 458.589844 422.109375 458.0625 422.109375 457.40625 C 422.109375 456.753906 421.582031 456.222656 420.929688 456.222656 Z M 438.808594 441.007812 C 442.070312 441.007812 444.386719 443.660156 443.976562 446.921875 L 441.496094 466.628906 C 441.089844 469.894531 438.109375 472.542969 434.851562 472.542969 L 384.695312 472.542969 C 381.429688 472.542969 379.121094 469.894531 379.53125 466.628906 L 382.003906 446.921875 C 382.414062 443.660156 385.390625 441.007812 388.652344 441.007812 Z M 412.128906 338.296875 C 412.253906 337.328125 411.570312 336.542969 410.601562 336.542969 C 409.640625 336.542969 408.761719 337.328125 408.636719 338.296875 C 408.515625 339.261719 409.199219 340.042969 410.164062 340.042969 C 411.128906 340.042969 412.007812 339.261719 412.128906 338.296875 Z M 474.488281 424.246094 C 474.488281 423.589844 473.957031 423.0625 473.308594 423.0625 L 467.273438 423.0625 C 466.617188 423.0625 466.089844 423.589844 466.089844 424.246094 C 466.089844 424.898438 466.617188 425.429688 467.273438 425.429688 L 473.308594 425.429688 C 473.957031 425.429688 474.488281 424.898438 474.488281 424.246094 Z M 465.832031 363.546875 C 466.484375 363.546875 467.011719 363.015625 467.011719 362.363281 C 467.011719 361.710938 466.484375 361.183594 465.832031 361.183594 L 448.246094 361.183594 C 447.597656 361.183594 447.066406 361.710938 447.066406 362.363281 C 447.066406 363.015625 447.597656 363.546875 448.246094 363.546875 Z M 462.410156 372.714844 L 419.621094 372.714844 C 417.882812 372.714844 416.296875 374.128906 416.078125 375.871094 L 414.78125 386.171875 C 414.566406 387.910156 415.796875 389.320312 417.535156 389.320312 L 460.324219 389.320312 C 462.0625 389.320312 463.648438 387.910156 463.867188 386.171875 L 465.160156 375.871094 C 465.378906 374.128906 464.144531 372.714844 462.410156 372.714844 Z M 443.949219 419.753906 L 449.984375 419.753906 C 450.632812 419.753906 451.164062 419.222656 451.164062 418.570312 C 451.164062 417.914062 450.632812 417.386719 449.984375 417.386719 L 443.949219 417.386719 C 443.292969 417.386719 442.765625 417.914062 442.765625 418.570312 C 442.765625 419.222656 443.292969 419.753906 443.949219 419.753906 Z M 454.28125 424.246094 C 454.28125 423.589844 453.753906 423.0625 453.101562 423.0625 L 443.234375 423.0625 C 442.582031 423.0625 442.050781 423.589844 442.050781 424.246094 C 442.050781 424.898438 442.582031 425.429688 443.234375 425.429688 L 453.101562 425.429688 C 453.753906 425.429688 454.28125 424.898438 454.28125 424.246094 Z M 433.855469 418.570312 C 433.855469 417.914062 433.324219 417.386719 432.675781 417.386719 L 422.136719 417.386719 C 421.480469 417.386719 420.957031 417.914062 420.957031 418.570312 C 420.957031 419.222656 421.480469 419.753906 422.136719 419.753906 L 432.675781 419.753906 C 433.324219 419.753906 433.855469 419.222656 433.855469 418.570312 Z M 428.644531 424.246094 C 428.644531 423.589844 428.113281 423.0625 427.460938 423.0625 L 421.421875 423.0625 C 420.769531 423.0625 420.242188 423.589844 420.242188 424.246094 C 420.242188 424.898438 420.769531 425.429688 421.421875 425.429688 L 427.460938 425.429688 C 428.113281 425.429688 428.644531 424.898438 428.644531 424.246094 Z M 410.03125 418.570312 C 410.03125 417.914062 409.503906 417.386719 408.847656 417.386719 L 396.777344 417.386719 C 396.128906 417.386719 395.597656 417.914062 395.597656 418.570312 C 395.597656 419.222656 396.128906 419.753906 396.777344 419.753906 L 408.847656 419.753906 C 409.503906 419.753906 410.03125 419.222656 410.03125 418.570312 Z M 404.496094 424.246094 C 404.496094 423.589844 403.964844 423.0625 403.316406 423.0625 L 396.066406 423.0625 C 395.414062 423.0625 394.886719 423.589844 394.886719 424.246094 C 394.886719 424.898438 395.414062 425.429688 396.066406 425.429688 L 403.316406 425.429688 C 403.964844 425.429688 404.496094 424.898438 404.496094 424.246094 Z M 416.589844 362.363281 C 416.589844 363.015625 417.121094 363.546875 417.773438 363.546875 L 440.082031 363.546875 C 440.734375 363.546875 441.261719 363.015625 441.261719 362.363281 C 441.261719 361.710938 440.734375 361.183594 440.082031 361.183594 L 417.773438 361.183594 C 417.121094 361.183594 416.589844 361.710938 416.589844 362.363281 Z M 466.800781 418.570312 C 466.800781 419.222656 467.332031 419.753906 467.980469 419.753906 L 478.519531 419.753906 C 479.171875 419.753906 479.703125 419.222656 479.703125 418.570312 C 479.703125 417.914062 479.171875 417.386719 478.519531 417.386719 L 467.980469 417.386719 C 467.332031 417.386719 466.800781 417.914062 466.800781 418.570312 Z M 476.707031 432.367188 L 390.347656 432.367188 C 387.082031 432.367188 384.773438 429.71875 385.183594 426.453125 L 395.167969 346.910156 L 493.339844 346.910156 L 494.761719 335.589844 L 483.351562 426.453125 C 482.945312 429.71875 479.96875 432.367188 476.707031 432.367188 Z M 608.953125 490.28125 L 597.035156 490.28125 C 596.382812 490.28125 595.851562 490.8125 595.851562 491.460938 C 595.851562 492.113281 596.382812 492.644531 597.035156 492.644531 L 608.953125 492.644531 C 609.601562 492.644531 610.132812 492.113281 610.132812 491.460938 C 610.132812 490.8125 609.601562 490.28125 608.953125 490.28125 Z M 614.773438 482.550781 L 598.007812 482.550781 C 597.351562 482.550781 596.824219 483.082031 596.824219 483.734375 C 596.824219 484.390625 597.351562 484.917969 598.007812 484.917969 L 614.773438 484.917969 C 615.429688 484.917969 615.957031 484.390625 615.957031 483.734375 C 615.957031 483.082031 615.429688 482.550781 614.773438 482.550781 Z M 598.976562 477.195312 L 608.929688 477.195312 C 609.578125 477.195312 610.109375 476.664062 610.109375 476.011719 C 610.109375 475.359375 609.578125 474.828125 608.929688 474.828125 L 598.976562 474.828125 C 598.320312 474.828125 597.792969 475.359375 597.792969 476.011719 C 597.792969 476.664062 598.320312 477.195312 598.976562 477.195312 Z M 620.550781 387.5625 L 608.636719 387.5625 C 607.984375 387.5625 607.457031 388.09375 607.457031 388.746094 C 607.457031 389.402344 607.984375 389.925781 608.636719 389.925781 L 620.550781 389.925781 C 621.203125 389.925781 621.734375 389.402344 621.734375 388.746094 C 621.734375 388.09375 621.203125 387.5625 620.550781 387.5625 Z M 626.375 379.839844 L 609.605469 379.839844 C 608.953125 379.839844 608.425781 380.367188 608.425781 381.023438 C 608.425781 381.671875 608.953125 382.203125 609.605469 382.203125 L 626.375 382.203125 C 627.03125 382.203125 627.554688 381.671875 627.554688 381.023438 C 627.554688 380.367188 627.03125 379.839844 626.375 379.839844 Z M 610.574219 372.113281 C 609.925781 372.113281 609.394531 372.644531 609.394531 373.292969 C 609.394531 373.949219 609.925781 374.476562 610.574219 374.476562 L 620.527344 374.476562 C 621.183594 374.476562 621.710938 373.949219 621.710938 373.292969 C 621.710938 372.644531 621.183594 372.113281 620.527344 372.113281 Z M 592.554688 346.910156 C 592.554688 346.257812 592.027344 345.726562 591.371094 345.726562 L 571.472656 345.726562 C 570.816406 345.726562 570.289062 346.257812 570.289062 346.910156 C 570.289062 347.566406 570.816406 348.09375 571.472656 348.09375 L 591.371094 348.09375 C 592.027344 348.09375 592.554688 347.566406 592.554688 346.910156 Z M 582.585938 362.363281 C 582.585938 361.710938 582.0625 361.183594 581.40625 361.183594 L 564.015625 361.183594 C 563.363281 361.183594 562.832031 361.710938 562.832031 362.363281 C 562.832031 363.015625 563.363281 363.546875 564.015625 363.546875 L 581.40625 363.546875 C 582.0625 363.546875 582.585938 363.015625 582.585938 362.363281 Z M 577.738281 400.988281 C 577.738281 400.339844 577.210938 399.808594 576.554688 399.808594 L 559.164062 399.808594 C 558.515625 399.808594 557.984375 400.339844 557.984375 400.988281 C 557.984375 401.644531 558.515625 402.171875 559.164062 402.171875 L 576.554688 402.171875 C 577.210938 402.171875 577.738281 401.644531 577.738281 400.988281 Z M 569.105469 408.71875 C 569.105469 408.0625 568.578125 407.535156 567.921875 407.535156 L 546.910156 407.535156 C 546.253906 407.535156 545.730469 408.0625 545.730469 408.71875 C 545.730469 409.367188 546.253906 409.898438 546.910156 409.898438 L 567.921875 409.898438 C 568.578125 409.898438 569.105469 409.367188 569.105469 408.71875 Z M 557.195312 416.441406 C 557.195312 415.789062 556.664062 415.257812 556.015625 415.257812 L 527.300781 415.257812 C 526.644531 415.257812 526.121094 415.789062 526.121094 416.441406 C 526.121094 417.097656 526.644531 417.621094 527.300781 417.621094 L 556.015625 417.621094 C 556.664062 417.621094 557.195312 417.097656 557.195312 416.441406 Z M 526.152344 346.910156 C 526.152344 346.257812 525.625 345.726562 524.972656 345.726562 L 517.097656 345.726562 C 516.449219 345.726562 515.917969 346.257812 515.917969 346.910156 C 515.917969 347.566406 516.449219 348.09375 517.097656 348.09375 L 524.972656 348.09375 C 525.625 348.09375 526.152344 347.566406 526.152344 346.910156 Z M 525.183594 354.636719 C 525.183594 353.984375 524.65625 353.457031 524 353.457031 L 516.128906 353.457031 C 515.476562 353.457031 514.949219 353.984375 514.949219 354.636719 C 514.949219 355.289062 515.476562 355.820312 516.128906 355.820312 L 524 355.820312 C 524.65625 355.820312 525.183594 355.289062 525.183594 354.636719 Z M 524.214844 362.363281 C 524.214844 361.710938 523.6875 361.183594 523.03125 361.183594 L 515.160156 361.183594 C 514.507812 361.183594 513.980469 361.710938 513.980469 362.363281 C 513.980469 363.015625 514.507812 363.546875 515.160156 363.546875 L 523.03125 363.546875 C 523.6875 363.546875 524.214844 363.015625 524.214844 362.363281 Z M 523.246094 370.089844 C 523.246094 369.4375 522.714844 368.90625 522.0625 368.90625 L 514.1875 368.90625 C 513.535156 368.90625 513.007812 369.4375 513.007812 370.089844 C 513.007812 370.738281 513.535156 371.269531 514.1875 371.269531 L 522.0625 371.269531 C 522.714844 371.269531 523.246094 370.738281 523.246094 370.089844 Z M 522.277344 377.816406 C 522.277344 377.160156 521.746094 376.632812 521.09375 376.632812 L 513.21875 376.632812 C 512.566406 376.632812 512.039062 377.160156 512.039062 377.816406 C 512.039062 378.46875 512.566406 379 513.21875 379 L 521.09375 379 C 521.746094 379 522.277344 378.46875 522.277344 377.816406 Z M 520.332031 393.265625 C 520.332031 392.609375 519.808594 392.085938 519.152344 392.085938 L 511.28125 392.085938 C 510.625 392.085938 510.097656 392.609375 510.097656 393.265625 C 510.097656 393.917969 510.625 394.449219 511.28125 394.449219 L 519.152344 394.449219 C 519.808594 394.449219 520.332031 393.917969 520.332031 393.265625 Z M 519.363281 400.988281 C 519.363281 400.339844 518.835938 399.808594 518.183594 399.808594 L 510.308594 399.808594 C 509.65625 399.808594 509.125 400.339844 509.125 400.988281 C 509.125 401.644531 509.65625 402.171875 510.308594 402.171875 L 518.183594 402.171875 C 518.835938 402.171875 519.363281 401.644531 519.363281 400.988281 Z M 518.394531 408.71875 C 518.394531 408.0625 517.863281 407.535156 517.214844 407.535156 L 509.339844 407.535156 C 508.6875 407.535156 508.15625 408.0625 508.15625 408.71875 C 508.15625 409.367188 508.6875 409.898438 509.339844 409.898438 L 517.214844 409.898438 C 517.863281 409.898438 518.394531 409.367188 518.394531 408.71875 Z M 517.425781 416.441406 C 517.425781 415.789062 516.894531 415.257812 516.246094 415.257812 L 508.371094 415.257812 C 507.71875 415.257812 507.1875 415.789062 507.1875 416.441406 C 507.1875 417.097656 507.71875 417.621094 508.371094 417.621094 L 516.246094 417.621094 C 516.894531 417.621094 517.425781 417.097656 517.425781 416.441406 Z M 527.089844 408.71875 C 527.089844 409.367188 527.621094 409.898438 528.269531 409.898438 L 540.183594 409.898438 C 540.832031 409.898438 541.363281 409.367188 541.363281 408.71875 C 541.363281 408.0625 540.832031 407.535156 540.183594 407.535156 L 528.269531 407.535156 C 527.621094 407.535156 527.089844 408.0625 527.089844 408.71875 Z M 528.058594 400.988281 C 528.058594 401.644531 528.589844 402.171875 529.238281 402.171875 L 552.441406 402.171875 C 553.09375 402.171875 553.625 401.644531 553.625 400.988281 C 553.625 400.339844 553.09375 399.808594 552.441406 399.808594 L 529.238281 399.808594 C 528.589844 399.808594 528.058594 400.339844 528.058594 400.988281 Z M 529.027344 393.265625 C 529.027344 393.917969 529.558594 394.449219 530.207031 394.449219 L 540.160156 394.449219 C 540.816406 394.449219 541.339844 393.917969 541.339844 393.265625 C 541.339844 392.609375 540.816406 392.085938 540.160156 392.085938 L 530.207031 392.085938 C 529.558594 392.085938 529.027344 392.609375 529.027344 393.265625 Z M 530.96875 377.816406 C 530.96875 378.46875 531.5 379 532.148438 379 L 546.503906 379 C 547.160156 379 547.6875 378.46875 547.6875 377.816406 C 547.6875 377.160156 547.160156 376.632812 546.503906 376.632812 L 532.148438 376.632812 C 531.5 376.632812 530.96875 377.160156 530.96875 377.816406 Z M 531.9375 370.089844 C 531.9375 370.738281 532.46875 371.269531 533.121094 371.269531 L 545.03125 371.269531 C 545.6875 371.269531 546.214844 370.738281 546.214844 370.089844 C 546.214844 369.4375 545.6875 368.90625 545.03125 368.90625 L 533.121094 368.90625 C 532.46875 368.90625 531.9375 369.4375 531.9375 370.089844 Z M 532.90625 362.363281 C 532.90625 363.015625 533.4375 363.546875 534.089844 363.546875 L 557.292969 363.546875 C 557.941406 363.546875 558.472656 363.015625 558.472656 362.363281 C 558.472656 361.710938 557.941406 361.183594 557.292969 361.183594 L 534.089844 361.183594 C 533.4375 361.183594 532.90625 361.710938 532.90625 362.363281 Z M 533.875 354.636719 C 533.875 355.289062 534.40625 355.820312 535.058594 355.820312 L 545.007812 355.820312 C 545.664062 355.820312 546.191406 355.289062 546.191406 354.636719 C 546.191406 353.984375 545.664062 353.457031 545.007812 353.457031 L 535.058594 353.457031 C 534.40625 353.457031 533.875 353.984375 533.875 354.636719 Z M 534.847656 346.910156 C 534.847656 347.566406 535.375 348.09375 536.03125 348.09375 L 564.742188 348.09375 C 565.394531 348.09375 565.925781 347.566406 565.925781 346.910156 C 565.925781 346.257812 565.394531 345.726562 564.742188 345.726562 L 536.03125 345.726562 C 535.375 345.726562 534.847656 346.257812 534.847656 346.910156 Z M 570.238281 355.820312 C 570.894531 355.820312 571.421875 355.289062 571.421875 354.636719 C 571.421875 353.984375 570.894531 353.457031 570.238281 353.457031 L 550.335938 353.457031 C 549.683594 353.457031 549.152344 353.984375 549.152344 354.636719 C 549.152344 355.289062 549.683594 355.820312 550.335938 355.820312 Z M 560.832031 370.089844 C 560.832031 369.4375 560.300781 368.90625 559.648438 368.90625 L 551.761719 368.90625 C 551.105469 368.90625 550.578125 369.4375 550.578125 370.089844 C 550.578125 370.738281 551.105469 371.269531 551.761719 371.269531 L 559.648438 371.269531 C 560.300781 371.269531 560.832031 370.738281 560.832031 370.089844 Z M 565.390625 392.085938 L 545.484375 392.085938 C 544.835938 392.085938 544.304688 392.609375 544.304688 393.265625 C 544.304688 393.917969 544.835938 394.449219 545.484375 394.449219 L 565.390625 394.449219 C 566.046875 394.449219 566.570312 393.917969 566.570312 393.265625 C 566.570312 392.609375 566.046875 392.085938 565.390625 392.085938 Z M 572.246094 379 C 572.898438 379 573.425781 378.46875 573.425781 377.816406 C 573.425781 377.160156 572.898438 376.632812 572.246094 376.632812 L 551.667969 376.632812 C 551.015625 376.632812 550.488281 377.160156 550.488281 377.816406 C 550.488281 378.46875 551.015625 379 551.667969 379 Z M 596.621094 426.453125 C 596.210938 429.71875 593.234375 432.367188 589.972656 432.367188 L 503.613281 432.367188 C 500.351562 432.367188 498.039062 429.71875 498.449219 426.453125 L 509.859375 335.589844 C 510.265625 332.324219 513.246094 329.675781 516.503906 329.675781 L 602.867188 329.675781 C 606.128906 329.675781 608.4375 332.324219 608.035156 335.589844 Z M 287.886719 366.046875 L 286.789062 356.976562 C 285.726562 348.167969 288.320312 339.84375 293.296875 333.417969 L 244.914062 333.417969 L 244.914062 365.914062 C 244.914062 365.957031 244.902344 366 244.902344 366.046875 Z M 235 332.328125 L 223.296875 332.328125 L 223.296875 360.664062 L 235 360.664062 Z M 217.359375 333.417969 L 217.359375 328.78125 L 205.660156 328.78125 L 205.660156 360.664062 L 217.359375 360.664062 Z M 199.71875 336.582031 L 188.019531 336.582031 L 188.019531 360.664062 L 199.71875 360.664062 Z M 182.082031 350.816406 L 170.378906 350.816406 L 170.378906 360.664062 L 182.082031 360.664062 Z M 164.441406 345.804688 L 152.738281 345.804688 L 152.738281 360.664062 L 164.441406 360.664062 Z M 284.003906 401.035156 L 105.898438 401.035156 C 105.871094 400.644531 105.835938 400.246094 105.816406 399.851562 L 284.335938 399.851562 L 287.578125 388.429688 C 288.96875 383.507812 289.371094 378.359375 288.757812 373.28125 L 288.027344 367.230469 L 244.753906 367.230469 C 244.152344 369.855469 241.8125 371.824219 239.007812 371.824219 L 151.824219 371.824219 C 149.015625 371.824219 146.675781 369.855469 146.078125 367.230469 L 106.242188 367.230469 C 106.28125 366.832031 106.328125 366.4375 106.367188 366.046875 L 145.933594 366.046875 C 145.933594 366 145.921875 365.957031 145.921875 365.914062 L 145.921875 333.417969 L 112.539062 333.417969 C 112.648438 333.019531 112.773438 332.632812 112.886719 332.234375 L 145.921875 332.234375 L 145.921875 320.128906 C 145.921875 316.863281 148.5625 314.214844 151.824219 314.214844 L 239.007812 314.214844 C 242.265625 314.214844 244.914062 316.863281 244.914062 320.128906 L 244.914062 332.234375 L 294.261719 332.234375 C 300.121094 325.371094 308.828125 320.957031 318.679688 320.957031 C 328.402344 320.957031 337.191406 325.300781 343.113281 332.234375 L 374.210938 332.234375 L 374.082031 333.417969 L 344.074219 333.417969 C 347.644531 338.023438 350 343.640625 350.632812 349.816406 L 350.957031 352.941406 L 357.683594 366.046875 L 370.46875 366.046875 L 370.335938 367.230469 L 358.117188 367.230469 C 358.144531 367.976562 357.679688 368.703125 356.898438 368.929688 L 354.257812 369.703125 C 353.488281 369.925781 352.984375 370.65625 353.046875 371.457031 C 353.453125 376.714844 354.632812 395.480469 350.957031 397.460938 C 346.671875 399.769531 326.230469 395.632812 326.230469 395.632812 C 325.839844 397.027344 325.523438 398.433594 325.253906 399.851562 L 366.722656 399.851562 L 366.59375 401.035156 L 325.050781 401.035156 C 324.328125 405.425781 324.148438 409.882812 324.527344 414.304688 C 319.945312 412.742188 313.820312 410.339844 304.296875 408.398438 C 295.171875 406.542969 286.371094 408.640625 281.378906 410.304688 Z M 257.222656 496.253906 C 255.765625 487.066406 253.851562 477.585938 251.457031 468.652344 L 251.460938 468.652344 C 251.421875 468.496094 251.378906 468.34375 251.335938 468.191406 C 250.480469 465.03125 249.566406 461.9375 248.585938 458.957031 C 245.316406 449 248.425781 438.878906 255.199219 432.339844 C 254.871094 432.488281 254.539062 432.617188 254.21875 432.777344 C 253.664062 433.054688 253.136719 433.355469 252.617188 433.660156 L 110.394531 433.660156 C 110.480469 434.058594 110.558594 434.449219 110.640625 434.84375 L 250.796875 434.84375 C 240.582031 442.183594 237.289062 456.238281 243.605469 467.472656 L 119.695312 467.472656 C 119.828125 467.863281 119.953125 468.261719 120.089844 468.652344 L 244.265625 468.652344 Z M 367.996094 671.078125 C 372.816406 671.078125 377.648438 670.816406 382.484375 670.320312 L 351.582031 670.320312 C 357.035156 670.804688 362.507812 671.078125 367.996094 671.078125 Z M 301.796875 636.550781 C 300.652344 636.550781 299.535156 636.539062 298.4375 636.515625 L 254.167969 636.515625 C 254.816406 636.910156 255.472656 637.300781 256.121094 637.695312 L 468.527344 637.695312 C 469.136719 637.304688 469.742188 636.90625 470.34375 636.515625 L 303.238281 636.515625 C 302.753906 636.519531 302.292969 636.550781 301.796875 636.550781 Z M 254.90625 602.703125 L 209.386719 602.703125 C 209.820312 603.101562 210.253906 603.492188 210.6875 603.886719 L 254.972656 603.886719 C 254.949219 603.492188 254.925781 603.101562 254.90625 602.703125 Z M 354.6875 603.886719 L 511.878906 603.886719 C 512.304688 603.492188 512.730469 603.101562 513.152344 602.703125 L 355.109375 602.703125 C 354.972656 603.089844 354.835938 603.480469 354.6875 603.886719 Z M 255.835938 568.894531 L 177.179688 568.894531 C 177.511719 569.292969 177.847656 569.679688 178.183594 570.078125 L 255.714844 570.078125 C 255.753906 569.679688 255.796875 569.289062 255.835938 568.894531 Z M 260.742188 535.085938 L 152.554688 535.085938 C 152.808594 535.480469 153.0625 535.875 153.316406 536.265625 L 260.742188 536.265625 C 260.742188 535.882812 260.742188 535.492188 260.742188 535.085938 Z M 442.746094 552.046875 C 445.515625 552.492188 448.238281 552.921875 450.875 553.324219 L 450.574219 552.859375 L 443.566406 551.371094 Z M 504.492188 568.894531 L 522.273438 568.894531 L 516.648438 564.96875 L 506.589844 567.269531 Z M 368.097656 501.277344 L 593.386719 501.277344 C 593.15625 501.671875 592.929688 502.066406 592.699219 502.460938 L 368.695312 502.460938 C 376.179688 516.972656 383.042969 529.039062 387.179688 535.085938 L 571.707031 535.085938 C 571.429688 535.480469 571.152344 535.875 570.875 536.265625 L 388.011719 536.265625 C 389.085938 537.765625 389.929688 538.742188 390.480469 539.109375 C 394.867188 542.035156 405.714844 544.972656 418.386719 547.605469 L 438.484375 540.011719 C 440.539062 539.242188 442.835938 539.503906 444.660156 540.726562 L 454.585938 547.367188 L 458.730469 554.5 C 466.484375 555.621094 472.855469 556.460938 476.402344 556.914062 L 487.40625 556.5 L 511.007812 548.335938 C 513.125 547.605469 515.46875 547.941406 517.296875 549.242188 L 527.246094 556.308594 L 534.089844 568.894531 L 545.492188 568.894531 C 545.15625 569.289062 544.820312 569.6875 544.484375 570.078125 L 534.730469 570.078125 L 534.960938 570.503906 C 535.398438 571.3125 535.066406 572.324219 534.230469 572.707031 C 532.566406 572.589844 530.660156 571.761719 529.109375 570.601562 L 529.511719 573.320312 C 529.695312 574.5625 528.679688 575.664062 527.429688 575.570312 C 525.476562 575.433594 523.871094 573.980469 523.535156 572.050781 L 523.191406 570.078125 L 502.964844 570.078125 L 498.128906 573.824219 C 495.851562 575.585938 493.199219 576.761719 490.398438 577.273438 C 488.574219 577.609375 486.695312 577.550781 484.859375 577.304688 L 473.699219 575.761719 L 390.613281 575.167969 C 380.582031 574.75 373.195312 572.839844 367.574219 570.078125 L 346.382812 570.078125 C 346.324219 569.890625 346.269531 569.699219 346.210938 569.507812 L 346.207031 569.507812 C 346.160156 569.347656 346.117188 569.191406 346.070312 569.03125 C 346.054688 568.988281 346.042969 568.941406 346.027344 568.894531 L 346.03125 568.894531 C 344.257812 562.863281 342.976562 556.609375 342.976562 551.085938 C 342.976562 547.941406 343.445312 544.625 344.199219 541.1875 C 344.394531 541.222656 344.59375 541.261719 344.792969 541.296875 L 332.328125 517.214844 C 331.671875 517.351562 331.003906 517.425781 330.320312 517.425781 C 324.121094 517.425781 318 511.605469 313.40625 502.460938 L 134.238281 502.460938 C 134.046875 502.066406 133.851562 501.675781 133.65625 501.277344 L 312.828125 501.277344 C 309.457031 494.15625 306.980469 485.199219 306.027344 475.457031 C 305.265625 467.648438 305.585938 460.339844 306.761719 454.078125 C 306.667969 445.886719 308.875 438.738281 314.976562 435.890625 C 315.464844 435.660156 315.957031 435.480469 316.445312 435.289062 C 318.191406 434.121094 320.09375 433.488281 322.132812 433.488281 C 322.960938 433.488281 323.789062 433.605469 324.609375 433.804688 C 332.789062 433.988281 340.066406 439.214844 343.511719 447.894531 C 350.40625 465.253906 359.605469 484.761719 368.085938 501.277344 Z M 359.105469 468.652344 L 359.234375 467.472656 L 354.507812 467.472656 C 354.640625 467.863281 354.777344 468.261719 354.90625 468.652344 Z M 362.980469 433.660156 L 339.84375 433.660156 C 339.980469 433.90625 340.117188 434.144531 340.242188 434.390625 C 340.316406 434.539062 340.394531 434.695312 340.46875 434.84375 L 362.851562 434.84375 Z M 640.109375 298.429688 L 126.851562 298.429688 C 126.636719 298.820312 126.429688 299.21875 126.222656 299.609375 L 640.394531 299.609375 C 640.300781 299.21875 640.207031 298.820312 640.109375 298.429688"/></g><g clip-path="url(#d)"><path fill="#393A3F" d="M 511.535156 538.734375 L 478.261719 538.835938 L 461.628906 538.890625 L 444.996094 539.058594 L 444.996094 539.59375 L 461.628906 539.753906 L 478.261719 539.808594 L 511.535156 539.910156 L 544.800781 539.785156 L 561.441406 539.722656 L 578.074219 539.550781 L 578.074219 539.097656 L 561.441406 538.929688 L 544.800781 538.859375 Z M 497.582031 276.910156 L 485.5625 276.910156 L 485.5625 278.089844 L 497.582031 278.089844 Z M 503.84375 274.144531 L 503.84375 272.964844 L 496.191406 272.964844 L 496.191406 274.144531 Z M 493.210938 272.964844 L 485.5625 272.964844 L 485.5625 274.144531 L 493.210938 274.144531 Z M 503.84375 269.023438 L 485.5625 269.023438 L 485.5625 270.207031 L 503.84375 270.207031 Z M 512.050781 186.6875 C 513.757812 186.6875 515.144531 185.304688 515.144531 183.59375 C 515.144531 181.890625 513.757812 180.503906 512.050781 180.503906 C 510.34375 180.503906 508.964844 181.890625 508.964844 183.59375 C 508.964844 185.304688 510.34375 186.6875 512.050781 186.6875 Z M 344.136719 186.6875 C 345.84375 186.6875 347.226562 185.304688 347.226562 183.59375 C 347.226562 181.890625 345.84375 180.503906 344.136719 180.503906 C 342.429688 180.503906 341.042969 181.890625 341.042969 183.59375 C 341.042969 185.304688 342.429688 186.6875 344.136719 186.6875 Z M 223.4375 279.472656 L 211.414062 279.472656 L 211.414062 280.65625 L 223.4375 280.65625 Z M 229.699219 276.710938 L 229.699219 275.527344 L 222.042969 275.527344 L 222.042969 276.710938 Z M 219.066406 275.527344 L 211.414062 275.527344 L 211.414062 276.710938 L 219.066406 276.710938 Z M 229.699219 271.585938 L 211.414062 271.585938 L 211.414062 272.769531 L 229.699219 272.769531 Z M 179.976562 186.6875 C 181.679688 186.6875 183.0625 185.304688 183.0625 183.59375 C 183.0625 181.890625 181.679688 180.503906 179.976562 180.503906 C 178.269531 180.503906 176.886719 181.890625 176.886719 183.59375 C 176.886719 185.304688 178.269531 186.6875 179.976562 186.6875 Z M 158 366.34375 L 159.179688 366.34375 L 159.179688 365.082031 L 175.640625 365.082031 L 175.640625 366.34375 L 176.820312 366.34375 L 176.820312 365.082031 L 193.277344 365.082031 L 193.277344 366.34375 L 194.460938 366.34375 L 194.460938 365.082031 L 210.917969 365.082031 L 210.917969 366.34375 L 212.101562 366.34375 L 212.101562 365.082031 L 228.558594 365.082031 L 228.558594 366.34375 L 229.738281 366.34375 L 229.738281 365.082031 L 235.113281 365.082031 L 235.113281 363.898438 L 229.738281 363.898438 L 229.738281 362.636719 L 228.558594 362.636719 L 228.558594 363.898438 L 212.101562 363.898438 L 212.101562 362.636719 L 210.917969 362.636719 L 210.917969 363.898438 L 194.460938 363.898438 L 194.460938 362.636719 L 193.277344 362.636719 L 193.277344 363.898438 L 176.820312 363.898438 L 176.820312 362.636719 L 175.640625 362.636719 L 175.640625 363.898438 L 159.179688 363.898438 L 159.179688 362.636719 L 158 362.636719 L 158 363.898438 L 152.738281 363.898438 L 152.738281 365.082031 L 158 365.082031 Z M 541.480469 320.957031 C 541.480469 320.304688 540.949219 319.773438 540.296875 319.773438 L 387.691406 319.773438 C 387.039062 319.773438 386.511719 320.304688 386.511719 320.957031 C 386.511719 321.613281 387.039062 322.136719 387.691406 322.136719 L 540.296875 322.136719 C 540.949219 322.136719 541.480469 321.613281 541.480469 320.957031 Z M 506.972656 489.128906 L 499.09375 489.128906 C 498.441406 489.128906 497.914062 489.660156 497.914062 490.3125 C 497.914062 490.96875 498.441406 491.496094 499.09375 491.496094 L 506.972656 491.496094 C 507.621094 491.496094 508.152344 490.96875 508.152344 490.3125 C 508.152344 489.660156 507.621094 489.128906 506.972656 489.128906 Z M 509.121094 482.589844 C 509.121094 481.933594 508.589844 481.40625 507.941406 481.40625 L 500.0625 481.40625 C 499.414062 481.40625 498.882812 481.933594 498.882812 482.589844 C 498.882812 483.242188 499.414062 483.773438 500.0625 483.773438 L 507.941406 483.773438 C 508.589844 483.773438 509.121094 483.242188 509.121094 482.589844 Z M 511.058594 467.132812 C 511.058594 466.484375 510.535156 465.953125 509.878906 465.953125 L 502 465.953125 C 501.351562 465.953125 500.820312 466.484375 500.820312 467.132812 C 500.820312 467.789062 501.351562 468.316406 502 468.316406 L 509.878906 468.316406 C 510.535156 468.316406 511.058594 467.789062 511.058594 467.132812 Z M 512.027344 459.410156 C 512.027344 458.761719 511.503906 458.230469 510.847656 458.230469 L 502.976562 458.230469 C 502.320312 458.230469 501.792969 458.761719 501.792969 459.410156 C 501.792969 460.0625 502.320312 460.59375 502.976562 460.59375 L 510.847656 460.59375 C 511.503906 460.59375 512.027344 460.0625 512.027344 459.410156 Z M 513 451.6875 C 513 451.03125 512.472656 450.503906 511.820312 450.503906 L 503.945312 450.503906 C 503.292969 450.503906 502.761719 451.03125 502.761719 451.6875 C 502.761719 452.339844 503.292969 452.871094 503.945312 452.871094 L 511.820312 452.871094 C 512.472656 452.871094 513 452.339844 513 451.6875 Z M 401.003906 447.121094 C 400.882812 448.085938 401.566406 448.871094 402.53125 448.871094 C 403.496094 448.871094 404.378906 448.085938 404.496094 447.121094 C 404.621094 446.15625 403.9375 445.371094 402.96875 445.371094 C 402.003906 445.371094 401.128906 446.15625 401.003906 447.121094 Z M 415.253906 338.296875 C 415.132812 339.261719 415.816406 340.042969 416.78125 340.042969 C 417.746094 340.042969 418.625 339.261719 418.746094 338.296875 C 418.867188 337.328125 418.183594 336.542969 417.21875 336.542969 C 416.253906 336.542969 415.371094 337.328125 415.253906 338.296875 Z M 432.734375 379.839844 C 432.085938 379.839844 431.554688 380.367188 431.554688 381.023438 C 431.554688 381.671875 432.085938 382.203125 432.734375 382.203125 L 447.210938 382.203125 C 447.859375 382.203125 448.390625 381.671875 448.390625 381.023438 C 448.390625 380.367188 447.859375 379.839844 447.210938 379.839844 Z M 517.425781 416.441406 C 517.425781 415.789062 516.894531 415.257812 516.246094 415.257812 L 508.371094 415.257812 C 507.71875 415.257812 507.1875 415.789062 507.1875 416.441406 C 507.1875 417.097656 507.71875 417.621094 508.371094 417.621094 L 516.246094 417.621094 C 516.894531 417.621094 517.425781 417.097656 517.425781 416.441406 Z M 518.394531 408.71875 C 518.394531 408.0625 517.863281 407.535156 517.214844 407.535156 L 509.339844 407.535156 C 508.6875 407.535156 508.15625 408.0625 508.15625 408.71875 C 508.15625 409.367188 508.6875 409.898438 509.339844 409.898438 L 517.214844 409.898438 C 517.863281 409.898438 518.394531 409.367188 518.394531 408.71875 Z M 519.363281 400.988281 C 519.363281 400.339844 518.835938 399.808594 518.183594 399.808594 L 510.308594 399.808594 C 509.65625 399.808594 509.125 400.339844 509.125 400.988281 C 509.125 401.644531 509.65625 402.171875 510.308594 402.171875 L 518.183594 402.171875 C 518.835938 402.171875 519.363281 401.644531 519.363281 400.988281 Z M 520.332031 393.265625 C 520.332031 392.609375 519.808594 392.085938 519.152344 392.085938 L 511.28125 392.085938 C 510.625 392.085938 510.097656 392.609375 510.097656 393.265625 C 510.097656 393.917969 510.625 394.449219 511.28125 394.449219 L 519.152344 394.449219 C 519.808594 394.449219 520.332031 393.917969 520.332031 393.265625 Z M 522.277344 377.816406 C 522.277344 377.160156 521.746094 376.632812 521.09375 376.632812 L 513.21875 376.632812 C 512.566406 376.632812 512.039062 377.160156 512.039062 377.816406 C 512.039062 378.46875 512.566406 379 513.21875 379 L 521.09375 379 C 521.746094 379 522.277344 378.46875 522.277344 377.816406 Z M 523.246094 370.089844 C 523.246094 369.4375 522.714844 368.90625 522.0625 368.90625 L 514.1875 368.90625 C 513.535156 368.90625 513.007812 369.4375 513.007812 370.089844 C 513.007812 370.738281 513.535156 371.269531 514.1875 371.269531 L 522.0625 371.269531 C 522.714844 371.269531 523.246094 370.738281 523.246094 370.089844 Z M 524.214844 362.363281 C 524.214844 361.710938 523.6875 361.183594 523.03125 361.183594 L 515.160156 361.183594 C 514.507812 361.183594 513.980469 361.710938 513.980469 362.363281 C 513.980469 363.015625 514.507812 363.546875 515.160156 363.546875 L 523.03125 363.546875 C 523.6875 363.546875 524.214844 363.015625 524.214844 362.363281 Z M 525.183594 354.636719 C 525.183594 353.984375 524.65625 353.457031 524 353.457031 L 516.128906 353.457031 C 515.476562 353.457031 514.949219 353.984375 514.949219 354.636719 C 514.949219 355.289062 515.476562 355.820312 516.128906 355.820312 L 524 355.820312 C 524.65625 355.820312 525.183594 355.289062 525.183594 354.636719 Z M 526.152344 346.910156 C 526.152344 346.257812 525.625 345.726562 524.972656 345.726562 L 517.097656 345.726562 C 516.449219 345.726562 515.917969 346.257812 515.917969 346.910156 C 515.917969 347.566406 516.449219 348.09375 517.097656 348.09375 L 524.972656 348.09375 C 525.625 348.09375 526.152344 347.566406 526.152344 346.910156 Z M 345.167969 352.457031 L 350.726562 352.179688 C 350.996094 348.9375 351.933594 345.949219 353.464844 345.191406 C 351.832031 345.019531 350.246094 345.066406 349.035156 345.597656 C 348.957031 341.496094 347.339844 339.3125 346.324219 336.734375 C 346.304688 339.679688 347.109375 338.777344 346.796875 342.726562 C 346.628906 344.914062 347.070312 347.160156 346.558594 349.292969 C 346.289062 350.425781 345.765625 351.453125 345.167969 352.457031 Z M 351.910156 352.121094 L 356.539062 351.890625 C 356.1875 348.351562 355.058594 346.1875 354.234375 346.1875 C 353.394531 346.1875 352.234375 348.449219 351.910156 352.121094 Z M 356.625 353.066406 L 351.832031 353.308594 C 351.824219 353.585938 351.820312 353.867188 351.820312 354.15625 C 351.820312 359.019531 353.25 362.125 354.234375 362.125 C 355.21875 362.125 356.652344 359.019531 356.652344 354.15625 C 356.652344 353.78125 356.640625 353.421875 356.625 353.066406 Z M 245.246094 400.597656 C 243.964844 392.144531 246.429688 383.191406 251.859375 376.597656 C 253.847656 374.175781 256.308594 371.878906 256.921875 368.808594 C 257.546875 365.640625 256.046875 362.488281 255.359375 359.335938 C 254.054688 353.3125 255.914062 346.6875 260.167969 342.230469 C 263.429688 338.8125 267.949219 336.640625 270.703125 332.796875 C 273.015625 329.578125 273.828125 325.5625 275.410156 321.929688 C 279.851562 311.75 291.089844 304.972656 302.152344 305.796875 C 305.230469 301.960938 311.183594 300.164062 316.019531 301.019531 C 320.851562 301.875 325.152344 304.621094 328.914062 307.78125 C 340.75 305.96875 355.625 317.269531 359.757812 346.597656 C 358.648438 346.261719 357.097656 345.820312 355.464844 345.496094 C 357.007812 346.8125 357.835938 350.578125 357.835938 354.15625 C 357.835938 358.589844 356.570312 363.308594 354.234375 363.308594 C 351.898438 363.308594 350.636719 358.589844 350.636719 354.15625 C 350.636719 353.894531 350.640625 353.628906 350.652344 353.367188 L 347.976562 353.5 C 348.488281 353.773438 348.871094 354.785156 348.871094 356 C 348.871094 357.421875 348.34375 358.578125 347.699219 358.578125 C 347.046875 358.578125 346.527344 357.421875 346.527344 356 C 346.527344 354.824219 346.886719 353.839844 347.375 353.527344 L 344.414062 353.675781 C 343.710938 354.78125 343 355.882812 342.519531 357.09375 C 340.328125 362.640625 343.433594 368.933594 342.5625 374.839844 C 342.011719 378.546875 339.941406 381.835938 338.820312 385.410156 C 337.234375 390.480469 338.351562 397.496094 340.679688 402.273438 L 324.289062 402.273438 C 323.265625 398.40625 321.945312 394.902344 321.800781 390.90625 C 320.710938 395.085938 320.230469 398.898438 319.867188 403.207031 C 317.851562 397.757812 316.515625 392.453125 316.382812 386.648438 C 315.804688 391.292969 315.605469 395.945312 315.03125 400.597656 Z M 356.011719 560.179688 C 357.824219 562.460938 359.816406 564.617188 361.992188 566.582031 C 364.15625 568.550781 366.558594 570.296875 369.214844 571.636719 C 370.546875 572.277344 371.953125 572.792969 373.402344 573.160156 C 374.882812 573.484375 376.308594 573.640625 377.746094 573.84375 C 380.625 574.207031 383.503906 574.566406 386.386719 574.828125 C 392.160156 575.375 397.945312 575.738281 403.746094 575.84375 C 403.886719 575.84375 404.011719 575.730469 404.015625 575.589844 C 404.027344 575.441406 403.910156 575.316406 403.765625 575.308594 C 400.878906 575.144531 397.996094 574.910156 395.121094 574.648438 C 392.242188 574.398438 389.367188 574.117188 386.496094 573.789062 C 383.628906 573.445312 380.757812 573.117188 377.898438 572.722656 C 376.472656 572.511719 375.019531 572.335938 373.675781 572.03125 C 372.320312 571.679688 371 571.1875 369.730469 570.574219 C 364.640625 568.050781 360.460938 563.925781 356.785156 559.546875 C 354.9375 557.34375 353.226562 555.019531 351.621094 552.628906 C 349.996094 550.246094 348.464844 547.789062 347.09375 545.257812 L 347.089844 545.246094 C 347.027344 545.140625 346.898438 545.097656 346.789062 545.15625 C 346.679688 545.210938 346.632812 545.34375 346.6875 545.453125 C 349.273438 550.667969 352.375 555.617188 356.011719 560.179688 Z M 316.480469 488.707031 C 315.824219 488.3125 315.21875 487.855469 314.636719 487.359375 C 314.0625 486.859375 313.53125 486.289062 313 485.695312 C 312.9375 485.625 312.835938 485.597656 312.742188 485.632812 C 312.625 485.679688 312.566406 485.8125 312.613281 485.929688 C 313.226562 487.480469 314.425781 488.808594 315.851562 489.707031 C 316.570312 490.15625 317.332031 490.519531 318.125 490.769531 C 318.796875 490.980469 319.472656 491.125 320.160156 491.214844 C 322.4375 496.402344 324.796875 501.550781 327.175781 506.691406 C 329.886719 512.410156 332.621094 518.117188 335.425781 523.792969 C 338.234375 529.464844 341.101562 535.101562 344.097656 540.683594 C 344.164062 540.8125 344.324219 540.863281 344.449219 540.796875 C 344.582031 540.734375 344.640625 540.570312 344.574219 540.4375 C 343.175781 537.601562 341.816406 534.746094 340.457031 531.894531 L 336.367188 523.335938 L 328.242188 506.1875 C 325.527344 500.480469 322.878906 494.734375 320.261719 488.980469 C 318.953125 486.105469 317.675781 483.214844 316.433594 480.3125 C 315.207031 477.40625 313.941406 474.496094 313.023438 471.496094 L 313.019531 471.480469 C 312.988281 471.367188 312.863281 471.300781 312.742188 471.332031 C 312.621094 471.367188 312.550781 471.488281 312.589844 471.609375 C 314.339844 477.738281 316.871094 483.558594 319.347656 489.382812 C 319.492188 489.707031 319.640625 490.03125 319.78125 490.355469 C 319.355469 490.167969 318.921875 489.988281 318.507812 489.796875 C 317.808594 489.457031 317.121094 489.113281 316.480469 488.707031 Z M 347.480469 376.425781 C 347.929688 376.710938 348.433594 376.890625 348.945312 377.015625 C 349.460938 377.117188 349.980469 377.167969 350.5 377.117188 C 350.757812 377.101562 351.007812 377.050781 351.261719 377.011719 C 351.507812 376.9375 351.753906 376.875 351.988281 376.777344 C 352.0625 376.746094 352.117188 376.675781 352.132812 376.597656 C 352.152344 376.46875 352.0625 376.347656 351.933594 376.328125 C 350.960938 376.175781 350.070312 376.074219 349.207031 375.867188 C 348.777344 375.765625 348.363281 375.632812 347.941406 375.488281 C 347.53125 375.34375 347.113281 375.144531 346.722656 374.957031 L 346.671875 374.929688 C 346.59375 374.890625 346.503906 374.890625 346.421875 374.941406 C 346.289062 375.015625 346.25 375.183594 346.324219 375.308594 C 346.617188 375.8125 347.027344 376.140625 347.480469 376.425781 Z M 591.882812 577.140625 L 571.429688 546.355469 L 571.429688 546.085938 L 556.636719 545.921875 L 541.84375 545.871094 L 512.253906 545.765625 L 482.664062 545.894531 L 467.871094 545.957031 L 453.074219 546.128906 L 453.074219 546.582031 L 453.421875 546.585938 L 454.585938 547.367188 L 458.503906 554.109375 L 451.605469 553.125 C 451.648438 553.109375 451.695312 553.09375 451.734375 553.070312 C 452.003906 552.9375 452.230469 552.734375 452.433594 552.515625 C 452.621094 552.285156 452.792969 552.035156 452.894531 551.753906 C 452.996094 551.472656 453.066406 551.175781 453.03125 550.863281 C 453.023438 550.808594 453 550.746094 452.964844 550.703125 C 452.855469 550.578125 452.667969 550.5625 452.542969 550.667969 L 452.53125 550.679688 C 452.3125 550.863281 452.15625 551.046875 451.988281 551.222656 C 451.824219 551.394531 451.683594 551.574219 451.539062 551.75 C 451.394531 551.929688 451.242188 552.101562 451.105469 552.300781 C 450.957031 552.492188 450.804688 552.6875 450.65625 552.933594 L 450.648438 552.941406 C 450.648438 552.953125 450.648438 552.957031 450.644531 552.964844 L 450.574219 552.859375 L 443.773438 551.417969 C 443.8125 551.25 443.859375 551.089844 443.890625 550.929688 C 444.011719 550.359375 444.042969 549.78125 444.050781 549.207031 C 444.035156 548.625 443.988281 548.046875 443.859375 547.480469 C 443.738281 546.917969 443.574219 546.359375 443.304688 545.84375 C 443.261719 545.753906 443.167969 545.695312 443.066406 545.695312 C 442.914062 545.691406 442.785156 545.816406 442.785156 545.96875 C 442.777344 546.53125 442.808594 547.070312 442.820312 547.613281 L 442.867188 549.222656 L 442.898438 550.835938 C 442.90625 551.183594 442.914062 551.539062 442.917969 551.890625 L 439.527344 551.402344 C 427.722656 549.636719 415.914062 547.839844 404.214844 545.527344 C 401.300781 544.945312 398.371094 544.355469 395.550781 543.523438 C 394.859375 543.308594 394.148438 543.074219 393.558594 542.769531 C 393.238281 542.59375 393.183594 542.558594 392.949219 542.179688 L 392.347656 541.273438 C 391.5625 540.007812 390.785156 538.738281 390.023438 537.453125 C 386.96875 532.328125 383.980469 527.148438 380.992188 521.976562 L 370.425781 503.605469 L 496.613281 503.605469 L 503.5625 530.210938 L 553.628906 530.210938 L 546.683594 503.605469 L 622.714844 503.605469 C 630.132812 503.605469 636.363281 498.023438 637.179688 490.644531 L 655.476562 325.445312 C 656.429688 316.816406 649.683594 309.269531 641.011719 309.269531 L 384.8125 309.269531 C 377.394531 309.269531 371.164062 314.855469 370.347656 322.234375 L 354.324219 466.941406 C 355.835938 471.371094 357.082031 475.6875 357.886719 479.65625 L 375.257812 322.78125 C 375.796875 317.898438 379.90625 314.214844 384.8125 314.214844 L 641.011719 314.214844 C 643.777344 314.214844 646.324219 315.355469 648.171875 317.421875 C 650.019531 319.488281 650.871094 322.144531 650.566406 324.898438 L 632.269531 490.101562 C 631.730469 494.976562 627.621094 498.660156 622.714844 498.660156 L 506.976562 498.660156 C 507.097656 498.480469 507.179688 498.269531 507.179688 498.039062 C 507.179688 497.382812 506.652344 496.859375 505.996094 496.859375 L 498.125 496.859375 C 497.472656 496.859375 496.945312 497.382812 496.945312 498.039062 C 496.945312 498.269531 497.027344 498.480469 497.148438 498.660156 L 367.582031 498.660156 L 363.109375 490.894531 C 363.050781 490.792969 362.914062 490.75 362.804688 490.8125 C 362.699219 490.871094 362.65625 491.011719 362.71875 491.121094 L 366.882812 498.660156 L 366.75 498.660156 C 367.601562 500.339844 368.453125 501.988281 369.292969 503.605469 L 369.609375 503.605469 L 371.382812 506.816406 L 380.191406 522.4375 C 383.144531 527.632812 386.089844 532.832031 389.117188 537.988281 C 389.871094 539.285156 390.644531 540.566406 391.429688 541.851562 L 392.058594 542.8125 C 392.191406 542.988281 392.199219 543.097656 392.453125 543.335938 C 392.667969 543.546875 392.847656 543.628906 393.035156 543.742188 C 393.773438 544.125 394.492188 544.355469 395.222656 544.589844 C 398.125 545.46875 401.054688 546.078125 403.988281 546.683594 C 415.742188 548.945312 427.566406 550.664062 439.390625 552.371094 L 457.144531 554.808594 L 474.925781 556.992188 C 475.070312 557.007812 475.207031 556.90625 475.222656 556.761719 C 475.246094 556.613281 475.140625 556.480469 474.996094 556.460938 L 468.425781 555.523438 L 474.234375 546.78125 L 482.664062 546.816406 L 512.253906 546.941406 L 541.84375 546.839844 L 556.636719 546.789062 L 563.789062 546.707031 L 584.007812 577.140625 L 576.519531 577.140625 L 565.785156 564.984375 L 560.835938 568.242188 L 570.003906 577.140625 L 540.285156 577.140625 L 567.308594 559.972656 L 529.234375 559.972656 L 534.960938 570.503906 C 535.398438 571.3125 535.066406 572.324219 534.230469 572.707031 C 532.683594 572.597656 530.9375 571.867188 529.449219 570.835938 C 529.449219 570.800781 529.464844 570.773438 529.449219 570.738281 C 528.8125 569.238281 528.800781 567.578125 528.597656 565.875 C 528.503906 565.015625 528.320312 564.136719 527.984375 563.289062 C 527.648438 562.4375 527.167969 561.667969 526.609375 560.96875 C 525.460938 559.605469 524.074219 558.53125 522.675781 557.578125 C 521.28125 556.617188 519.882812 555.71875 518.625 554.617188 C 518.546875 554.542969 518.421875 554.539062 518.335938 554.613281 C 518.238281 554.691406 518.226562 554.832031 518.304688 554.929688 C 519.390625 556.28125 520.773438 557.339844 522.085938 558.382812 C 523.402344 559.421875 524.707031 560.441406 525.695312 561.714844 C 526.199219 562.332031 526.636719 562.996094 526.9375 563.714844 C 527.25 564.429688 527.398438 565.21875 527.5625 566.027344 C 527.808594 567.34375 527.960938 568.800781 528.53125 570.125 C 527.808594 569.5 527.179688 568.816406 526.75 568.101562 L 522.988281 561.800781 L 516.296875 560.183594 C 516.28125 560.167969 516.273438 560.148438 516.257812 560.132812 C 516.199219 560.066406 516.101562 560.027344 516.011719 560.058594 C 515.988281 560.070312 515.976562 560.09375 515.960938 560.101562 L 515.871094 560.082031 L 506.460938 567.371094 C 506.46875 567.316406 506.476562 567.265625 506.480469 567.214844 C 506.539062 566.71875 506.503906 566.226562 506.429688 565.738281 C 506.347656 565.246094 506.21875 564.765625 506.015625 564.3125 C 505.8125 563.867188 505.570312 563.433594 505.230469 563.0625 C 505.167969 562.996094 505.070312 562.960938 504.976562 562.980469 C 504.824219 563.003906 504.722656 563.148438 504.75 563.300781 C 504.824219 563.769531 504.9375 564.203125 505.019531 564.636719 C 505.097656 565.078125 505.199219 565.5 505.269531 565.933594 C 505.355469 566.363281 505.410156 566.800781 505.484375 567.238281 C 505.527344 567.496094 505.570312 567.765625 505.609375 568.03125 L 498.128906 573.824219 C 496.003906 575.46875 493.542969 576.578125 490.953125 577.140625 L 483.683594 577.140625 L 474.472656 575.867188 C 475.039062 575.363281 475.542969 574.777344 475.898438 574.082031 C 476.355469 573.238281 476.574219 572.242188 476.429688 571.308594 C 476.414062 571.195312 476.320312 571.097656 476.199219 571.082031 C 476.050781 571.0625 475.917969 571.164062 475.894531 571.3125 C 475.769531 572.144531 475.476562 572.894531 475.023438 573.558594 C 474.828125 573.828125 474.605469 574.082031 474.371094 574.332031 C 474.359375 573.789062 474.289062 573.25 474.160156 572.726562 C 473.917969 571.710938 473.492188 570.738281 472.855469 569.933594 C 472.792969 569.855469 472.6875 569.824219 472.597656 569.863281 C 472.476562 569.90625 472.421875 570.035156 472.460938 570.15625 C 472.804688 571.066406 473.054688 571.976562 473.160156 572.90625 C 473.265625 573.832031 473.261719 574.761719 473.117188 575.667969 C 473.113281 575.699219 473.121094 575.726562 473.121094 575.761719 L 409.675781 575.304688 L 406.898438 577.140625 L 348.773438 577.140625 C 348.921875 577.539062 349.070312 577.929688 349.214844 578.324219 L 655.566406 578.324219 L 655.566406 577.140625 Z M 173.53125 577.140625 L 173.53125 578.324219 L 305.613281 578.324219 C 313.617188 578.324219 315.921875 577.140625 315.921875 577.140625 C 316.964844 576.859375 317.960938 576.480469 318.90625 576.019531 C 325.683594 572.699219 329.769531 564.96875 327.835938 557.007812 L 305.230469 463.910156 C 303.402344 456.390625 296.679688 451.101562 288.957031 451.101562 L 162.675781 451.101562 C 151.824219 451.101562 143.839844 461.273438 146.398438 471.828125 L 169.003906 564.921875 C 170.472656 570.96875 175.113281 575.566406 180.890625 577.140625 Z M 356.902344 595.601562 C 356.902344 595.601562 356.875 595.820312 356.8125 596.195312 L 356.816406 596.195312 C 355.988281 601.132812 348.46875 636.550781 301.796875 636.550781 C 284.710938 636.550781 272.359375 633.722656 265.484375 631.59375 C 267.925781 645.582031 280.105469 656.214844 294.773438 656.214844 L 384.554688 656.214844 C 406.785156 656.214844 428.476562 646.945312 428.476562 646.945312 L 421.503906 688.308594 L 467.277344 688.308594 C 467.277344 688.308594 472.574219 646.945312 474.855469 619.191406 C 476.195312 602.941406 464.242188 597.726562 454.097656 596.195312 L 536.445312 596.195312 L 531.097656 642.277344 L 548.023438 645.085938 L 553.699219 596.195312 L 614.640625 596.195312 L 621.726562 657.3125 L 639.316406 660.226562 L 631.894531 596.195312 L 655.566406 596.195312 L 655.566406 595.011719 L 356.597656 595.011719 C 356.792969 595.390625 356.902344 595.601562 356.902344 595.601562 Z M 254.652344 595.011719 L 173.53125 595.011719 L 173.53125 596.195312 L 212.554688 596.195312 C 212.519531 596.371094 212.539062 596.554688 212.488281 596.730469 L 212.332031 597.921875 C 212.210938 598.714844 212.167969 599.519531 212.089844 600.320312 L 211.957031 602.726562 L 211.890625 603.925781 L 211.859375 604.53125 C 211.875 604.734375 211.726562 604.921875 212.109375 605.164062 C 212.542969 605.011719 212.4375 604.800781 212.5 604.605469 L 212.605469 604.011719 L 212.820312 602.824219 L 213.242188 600.453125 C 213.34375 599.65625 213.488281 598.863281 213.558594 598.066406 L 213.679688 596.867188 C 213.664062 596.644531 213.761719 596.425781 213.71875 596.195312 L 254.667969 596.195312 C 254.660156 595.800781 254.65625 595.410156 254.652344 595.011719 Z M 455.3125 338.289062 C 455.3125 337.640625 454.78125 337.109375 454.132812 337.109375 L 436.542969 337.109375 C 435.890625 337.109375 435.359375 337.640625 435.359375 338.289062 C 435.359375 338.945312 435.890625 339.472656 436.542969 339.472656 L 454.132812 339.472656 C 454.78125 339.472656 455.3125 338.945312 455.3125 338.289062 Z M 408.636719 338.296875 C 408.515625 339.261719 409.199219 340.042969 410.164062 340.042969 C 411.128906 340.042969 412.007812 339.261719 412.128906 338.296875 C 412.253906 337.328125 411.570312 336.542969 410.601562 336.542969 C 409.640625 336.542969 408.761719 337.328125 408.636719 338.296875 Z M 403.550781 340.042969 C 402.585938 340.042969 401.898438 339.261719 402.023438 338.296875 C 402.144531 337.328125 403.027344 336.542969 403.988281 336.542969 C 404.953125 336.542969 405.636719 337.328125 405.515625 338.296875 C 405.398438 339.261719 404.515625 340.042969 403.550781 340.042969"/></g><g clip-path="url(#e)"><path fill="#777B85" d="M 568.96875 530.210938 L 559.457031 530.210938 L 552.511719 503.605469 L 546.683594 503.605469 L 553.628906 530.210938 L 454.09375 530.210938 C 449.070312 530.210938 444.996094 534.289062 444.996094 539.324219 L 578.074219 539.324219 C 578.074219 534.289062 574 530.210938 568.96875 530.210938 Z M 247.074219 529.589844 L 227.464844 529.589844 C 226.210938 529.589844 225.148438 530.53125 225.003906 531.777344 L 209.128906 669.5 C 208.960938 670.96875 210.109375 672.261719 211.585938 672.261719 L 231.203125 672.261719 C 232.457031 672.261719 233.515625 671.320312 233.660156 670.066406 L 249.535156 532.351562 C 249.703125 530.875 248.554688 529.589844 247.074219 529.589844 Z M 539.394531 577.703125 L 547.355469 577.703125 L 565.472656 565.78125 L 576.003906 577.703125 L 581.878906 577.703125 L 567.308594 559.972656 Z M 648.808594 309.269531 L 641.011719 309.269531 C 649.683594 309.269531 656.429688 316.816406 655.476562 325.445312 L 637.179688 490.644531 C 636.363281 498.023438 630.132812 503.605469 622.714844 503.605469 L 630.511719 503.605469 C 637.929688 503.605469 644.160156 498.023438 644.976562 490.644531 L 663.273438 325.445312 C 664.226562 316.816406 657.476562 309.269531 648.808594 309.269531 Z M 455.3125 338.289062 C 455.3125 337.640625 454.78125 337.109375 454.132812 337.109375 L 436.542969 337.109375 C 435.890625 337.109375 435.359375 337.640625 435.359375 338.289062 C 435.359375 338.945312 435.890625 339.472656 436.542969 339.472656 L 454.132812 339.472656 C 454.78125 339.472656 455.3125 338.945312 455.3125 338.289062 Z M 410.601562 336.542969 C 409.640625 336.542969 408.761719 337.328125 408.636719 338.296875 C 408.515625 339.261719 409.199219 340.042969 410.164062 340.042969 C 411.128906 340.042969 412.007812 339.261719 412.128906 338.296875 C 412.253906 337.328125 411.570312 336.542969 410.601562 336.542969 Z M 403.988281 336.542969 C 403.027344 336.542969 402.144531 337.328125 402.023438 338.296875 C 401.898438 339.261719 402.585938 340.042969 403.550781 340.042969 C 404.515625 340.042969 405.398438 339.261719 405.515625 338.296875 C 405.636719 337.328125 404.953125 336.542969 403.988281 336.542969 Z M 418.746094 338.296875 C 418.625 339.261719 417.746094 340.042969 416.78125 340.042969 C 415.816406 340.042969 415.132812 339.261719 415.253906 338.296875 C 415.371094 337.328125 416.253906 336.542969 417.21875 336.542969 C 418.183594 336.542969 418.867188 337.328125 418.746094 338.296875"/></g></svg>