<svg xmlns="http://www.w3.org/2000/svg" width="450" viewBox="0 0 450 450" height="450" version="1.0"><defs><clipPath id="a"><path d="M 4.410156 26.070312 L 439.4375 26.070312 L 439.4375 428.296875 L 4.410156 428.296875 Z M 4.410156 26.070312"/></clipPath><clipPath id="b"><path d="M 40.820312 26.070312 L 435.703125 26.070312 L 435.703125 428.296875 L 40.820312 428.296875 Z M 40.820312 26.070312"/></clipPath><clipPath id="c"><path d="M 4.410156 21.230469 L 428 21.230469 L 428 415 L 4.410156 415 Z M 4.410156 21.230469"/></clipPath><clipPath id="d"><path d="M 36.152344 27.003906 L 439.4375 27.003906 L 439.4375 428.296875 L 36.152344 428.296875 Z M 36.152344 27.003906"/></clipPath><clipPath id="e"><path d="M 86 129 L 445.402344 129 L 445.402344 416 L 86 416 Z M 86 129"/></clipPath></defs><g clip-path="url(#a)"><path fill="#F6836B" d="M 388.929688 340.585938 L 372.746094 316.261719 L 366.5 316.261719 C 360.167969 324.707031 353.480469 332.851562 346.507812 340.585938 Z M 70.0625 66.941406 C 70.0625 67.3125 70.097656 67.683594 70.148438 68.039062 C 74.167969 65.308594 78.332031 62.71875 82.621094 60.273438 C 81.332031 59.402344 79.78125 58.890625 78.113281 58.890625 C 73.675781 58.890625 70.0625 62.5 70.0625 66.941406 Z M 439.242188 355.128906 L 420.476562 355.128906 L 428.972656 428.296875 L 415.34375 428.296875 L 406.84375 355.128906 L 358.785156 355.128906 L 350.289062 428.296875 L 336.652344 428.296875 L 345.152344 355.128906 L 332.574219 355.128906 C 296.222656 390.714844 253.675781 414.695312 211.96875 414.695312 C 193.328125 414.695312 174.859375 411.066406 157.070312 404.527344 L 159.835938 428.296875 L 146.203125 428.296875 L 142.75 398.566406 C 123.519531 389.628906 105.300781 377.347656 88.769531 362.660156 L 81.144531 428.296875 L 67.515625 428.296875 L 76.011719 355.128906 L 58.277344 355.128906 L 58.277344 340.585938 L 66.773438 340.585938 C 29.027344 297.902344 4.410156 242.4375 4.410156 189.828125 C 4.410156 140.769531 25.820312 102.757812 59.320312 76.019531 C 58.742188 74.824219 58.273438 73.582031 57.9375 72.292969 L 51.804688 70.945312 L 51.804688 62.9375 L 57.9375 61.589844 C 58.414062 59.789062 59.125 58.070312 60.058594 56.460938 L 56.675781 51.175781 L 62.34375 45.511719 L 67.632812 48.894531 C 69.238281 47.957031 70.957031 47.246094 72.757812 46.769531 L 74.109375 40.640625 L 82.121094 40.640625 L 83.464844 46.769531 C 85.265625 47.246094 86.988281 47.957031 88.597656 48.894531 L 93.882812 45.511719 L 99.546875 51.175781 L 99.136719 51.820312 C 102.179688 50.425781 105.277344 49.097656 108.414062 47.828125 L 108.414062 40.640625 L 128.875 40.640625 C 145.34375 35.667969 162.722656 32.253906 180.535156 30.417969 C 180.515625 30.265625 180.488281 30.113281 180.488281 29.953125 C 180.488281 28.09375 182.003906 26.582031 183.863281 26.582031 C 185.671875 26.582031 187.136719 28.011719 187.222656 29.796875 C 195.410156 29.136719 203.667969 28.804688 211.96875 28.804688 C 318.558594 28.804688 430.667969 44.90625 430.667969 151.472656 C 430.667969 200.652344 406.785156 260.507812 370.585938 310.710938 L 398.875 310.710938 L 418.75 340.585938 L 439.242188 340.585938 Z M 54.125 33.328125 C 55.984375 33.328125 57.496094 31.816406 57.496094 29.953125 C 57.496094 28.09375 55.984375 26.582031 54.125 26.582031 C 52.261719 26.582031 50.75 28.09375 50.75 29.953125 C 50.75 31.816406 52.261719 33.328125 54.125 33.328125 Z M 313.195312 29.953125 C 313.195312 28.09375 314.710938 26.582031 316.570312 26.582031 C 318.433594 26.582031 319.949219 28.09375 319.949219 29.953125 C 319.949219 31.816406 318.433594 33.328125 316.570312 33.328125 C 314.710938 33.328125 313.195312 31.816406 313.195312 29.953125"/></g><g clip-path="url(#b)"><path fill="#5EC9CC" d="M 307.324219 32.398438 C 308.671875 32.398438 309.765625 31.304688 309.765625 29.953125 C 309.765625 28.609375 308.671875 27.515625 307.324219 27.515625 C 305.972656 27.515625 304.878906 28.609375 304.878906 29.953125 C 304.878906 31.304688 305.972656 32.398438 307.324219 32.398438 Z M 362.574219 105.46875 L 373.941406 105.46875 L 373.941406 102.667969 L 362.574219 102.667969 Z M 358.160156 67.683594 L 342.667969 58.433594 L 342.667969 76.941406 Z M 396.875 93.242188 L 303.949219 93.242188 L 303.949219 44.714844 L 396.875 44.714844 Z M 378.890625 99.554688 L 370.976562 99.554688 L 370.976562 102.355469 L 378.890625 102.355469 Z M 362.574219 99.554688 L 362.574219 102.355469 L 370.488281 102.355469 L 370.488281 99.554688 Z M 378.890625 96.445312 L 362.574219 96.445312 L 362.574219 99.246094 L 378.890625 99.246094 Z M 117.585938 105.625 L 108.085938 105.625 L 108.085938 106.558594 L 117.585938 106.558594 Z M 122.535156 103.445312 L 122.535156 102.511719 L 116.488281 102.511719 L 116.488281 103.445312 Z M 114.132812 102.511719 L 108.085938 102.511719 L 108.085938 103.445312 L 114.132812 103.445312 Z M 122.535156 99.402344 L 108.085938 99.402344 L 108.085938 100.335938 L 122.535156 100.335938 Z M 57.984375 105.625 L 48.484375 105.625 L 48.484375 106.558594 L 57.984375 106.558594 Z M 62.929688 103.445312 L 62.929688 102.511719 L 56.886719 102.511719 L 56.886719 103.445312 Z M 54.53125 102.511719 L 48.484375 102.511719 L 48.484375 103.445312 L 54.53125 103.445312 Z M 62.929688 99.402344 L 48.484375 99.402344 L 48.484375 100.335938 L 62.929688 100.335938 Z M 125.964844 76.644531 L 109.347656 76.644531 L 109.347656 82.460938 L 125.964844 82.460938 Z M 125.964844 51.28125 L 109.347656 51.28125 L 109.347656 57.089844 L 125.964844 57.089844 Z M 44.878906 32.398438 C 46.222656 32.398438 47.316406 31.304688 47.316406 29.953125 C 47.316406 28.609375 46.222656 27.515625 44.878906 27.515625 C 43.527344 27.515625 42.433594 28.609375 42.433594 29.953125 C 42.433594 31.304688 43.527344 32.398438 44.878906 32.398438 Z M 64.210938 66.941406 C 64.210938 74.605469 70.445312 80.839844 78.113281 80.839844 C 85.78125 80.839844 92.015625 74.605469 92.015625 66.941406 C 92.015625 59.277344 85.78125 53.042969 78.113281 53.042969 C 70.445312 53.042969 64.210938 59.277344 64.210938 66.941406 Z M 63.277344 66.941406 C 63.277344 58.761719 69.933594 52.109375 78.113281 52.109375 C 86.296875 52.109375 92.949219 58.761719 92.949219 66.941406 C 92.949219 75.117188 86.296875 81.773438 78.113281 81.773438 C 69.933594 81.773438 63.277344 75.117188 63.277344 66.941406 Z M 240.414062 150.667969 C 239.652344 150.667969 238.957031 151.289062 238.863281 152.050781 C 238.761719 152.8125 239.308594 153.429688 240.070312 153.429688 C 240.832031 153.429688 241.527344 152.8125 241.621094 152.050781 C 241.71875 151.289062 241.175781 150.667969 240.414062 150.667969 Z M 280.042969 151.113281 L 266.140625 151.113281 C 265.628906 151.113281 265.207031 151.53125 265.207031 152.046875 C 265.207031 152.566406 265.628906 152.980469 266.140625 152.980469 L 280.042969 152.980469 C 280.558594 152.980469 280.976562 152.566406 280.976562 152.046875 C 280.976562 151.53125 280.558594 151.113281 280.042969 151.113281 Z M 174.617188 33.328125 C 176.476562 33.328125 177.992188 31.816406 177.992188 29.953125 C 177.992188 28.09375 176.476562 26.582031 174.617188 26.582031 C 172.757812 26.582031 171.242188 28.09375 171.242188 29.953125 C 171.242188 31.816406 172.757812 33.328125 174.617188 33.328125 Z M 199.792969 96.105469 C 199.792969 97.578125 200.992188 98.777344 202.464844 98.777344 L 222.683594 98.777344 C 224.15625 98.777344 225.355469 97.578125 225.355469 96.105469 C 225.355469 94.632812 224.15625 93.4375 222.683594 93.4375 L 202.464844 93.4375 C 200.992188 93.4375 199.792969 94.632812 199.792969 96.105469 Z M 181.304688 82.539062 L 201.523438 82.539062 C 202.996094 82.539062 204.199219 81.339844 204.199219 79.863281 C 204.199219 78.390625 202.996094 77.195312 201.523438 77.195312 L 181.304688 77.195312 C 179.832031 77.195312 178.632812 78.390625 178.632812 79.863281 C 178.632812 81.339844 179.832031 82.539062 181.304688 82.539062 Z M 181.304688 66.296875 L 216.335938 66.296875 C 217.808594 66.296875 219.007812 65.097656 219.007812 63.625 C 219.007812 62.152344 217.808594 60.957031 216.335938 60.957031 L 181.304688 60.957031 C 179.832031 60.957031 178.632812 62.152344 178.632812 63.625 C 178.632812 65.097656 179.832031 66.296875 181.304688 66.296875 Z M 223.089844 82.539062 L 230.242188 82.539062 C 231.714844 82.539062 232.910156 81.339844 232.910156 79.863281 C 232.910156 78.390625 231.714844 77.195312 230.242188 77.195312 L 223.089844 77.195312 C 221.617188 77.195312 220.417969 78.390625 220.417969 79.863281 C 220.417969 81.339844 221.617188 82.539062 223.089844 82.539062 Z M 215.800781 82.539062 C 217.273438 82.539062 218.472656 81.339844 218.472656 79.863281 C 218.472656 78.390625 217.273438 77.195312 215.800781 77.195312 L 208.652344 77.195312 C 207.179688 77.195312 205.980469 78.390625 205.980469 79.863281 C 205.980469 81.339844 207.179688 82.539062 208.652344 82.539062 Z M 181.304688 58.179688 L 188.453125 58.179688 C 189.929688 58.179688 191.128906 56.976562 191.128906 55.503906 C 191.128906 54.03125 189.929688 52.832031 188.453125 52.832031 L 181.304688 52.832031 C 179.832031 52.832031 178.632812 54.03125 178.632812 55.503906 C 178.632812 56.976562 179.832031 58.179688 181.304688 58.179688 Z M 181.304688 50.054688 L 205.382812 50.054688 C 206.855469 50.054688 208.054688 48.859375 208.054688 47.386719 C 208.054688 45.914062 206.855469 44.714844 205.382812 44.714844 L 181.304688 44.714844 C 179.832031 44.714844 178.632812 45.914062 178.632812 47.386719 C 178.632812 48.859375 179.832031 50.054688 181.304688 50.054688 Z M 233.304688 402.964844 L 63.390625 402.964844 C 56.394531 402.964844 50.71875 408.632812 50.71875 415.628906 C 50.71875 422.625 56.394531 428.296875 63.390625 428.296875 L 233.304688 428.296875 C 240.300781 428.296875 245.972656 422.625 245.972656 415.628906 C 245.972656 408.632812 240.300781 402.964844 233.304688 402.964844 Z M 429.335938 138.363281 C 429.335938 137.851562 428.914062 137.433594 428.402344 137.433594 L 382.5 137.433594 C 381.984375 137.433594 381.566406 137.851562 381.566406 138.363281 C 381.566406 138.882812 381.984375 139.296875 382.5 139.296875 L 428.402344 139.296875 C 428.914062 139.296875 429.335938 138.882812 429.335938 138.363281 Z M 407.769531 152.980469 L 415.636719 152.980469 C 416.152344 152.980469 416.570312 152.566406 416.570312 152.046875 C 416.570312 151.53125 416.152344 151.113281 415.636719 151.113281 L 407.769531 151.113281 C 407.253906 151.113281 406.835938 151.53125 406.835938 152.046875 C 406.835938 152.566406 407.253906 152.980469 407.769531 152.980469 Z M 426.277344 158.144531 C 426.277344 157.632812 425.855469 157.210938 425.34375 157.210938 L 407.003906 157.210938 C 406.488281 157.210938 406.070312 157.632812 406.070312 158.144531 C 406.070312 158.660156 406.488281 159.078125 407.003906 159.078125 L 425.34375 159.078125 C 425.855469 159.078125 426.277344 158.660156 426.277344 158.144531 Z M 406.238281 165.179688 L 415.652344 165.179688 C 416.171875 165.179688 416.585938 164.757812 416.585938 164.246094 C 416.585938 163.726562 416.171875 163.3125 415.652344 163.3125 L 406.238281 163.3125 C 405.722656 163.3125 405.304688 163.726562 405.304688 164.246094 C 405.304688 164.757812 405.722656 165.179688 406.238281 165.179688 Z M 400.71875 204.082031 C 400.203125 204.082031 399.785156 204.5 399.785156 205.015625 C 399.785156 205.53125 400.203125 205.949219 400.71875 205.949219 L 408.585938 205.949219 C 409.101562 205.949219 409.519531 205.53125 409.519531 205.015625 C 409.519531 204.5 409.101562 204.082031 408.585938 204.082031 Z M 419.222656 211.113281 C 419.222656 210.597656 418.804688 210.179688 418.289062 210.179688 L 399.949219 210.179688 C 399.4375 210.179688 399.015625 210.597656 399.015625 211.113281 C 399.015625 211.628906 399.4375 212.046875 399.949219 212.046875 L 418.289062 212.046875 C 418.804688 212.046875 419.222656 211.628906 419.222656 211.113281 Z M 409.535156 217.210938 C 409.535156 216.691406 409.117188 216.277344 408.601562 216.277344 L 399.183594 216.277344 C 398.671875 216.277344 398.25 216.691406 398.25 217.210938 C 398.25 217.726562 398.671875 218.144531 399.183594 218.144531 L 408.601562 218.144531 C 409.117188 218.144531 409.535156 217.726562 409.535156 217.210938 Z M 389.441406 158.847656 C 389.441406 158.335938 389.027344 157.917969 388.507812 157.917969 L 372.78125 157.917969 C 372.261719 157.917969 371.847656 158.335938 371.847656 158.847656 C 371.847656 159.367188 372.261719 159.78125 372.78125 159.78125 L 388.507812 159.78125 C 389.027344 159.78125 389.441406 159.367188 389.441406 158.847656 Z M 381.566406 171.046875 C 381.566406 170.53125 381.148438 170.113281 380.632812 170.113281 L 366.886719 170.113281 C 366.371094 170.113281 365.953125 170.53125 365.953125 171.046875 C 365.953125 171.5625 366.371094 171.980469 366.886719 171.980469 L 380.632812 171.980469 C 381.148438 171.980469 381.566406 171.5625 381.566406 171.046875 Z M 378.277344 247.640625 C 378.277344 247.125 377.863281 246.707031 377.34375 246.707031 L 352.597656 246.707031 C 352.085938 246.707031 351.664062 247.125 351.664062 247.640625 C 351.664062 248.15625 352.085938 248.574219 352.597656 248.574219 L 377.34375 248.574219 C 377.863281 248.574219 378.277344 248.15625 378.277344 247.640625 Z M 308.074219 145.246094 L 239.820312 145.246094 C 237.242188 145.246094 234.890625 147.335938 234.566406 149.914062 L 233.441406 158.847656 L 311.03125 158.847656 L 312.15625 149.914062 C 312.480469 147.335938 310.652344 145.246094 308.074219 145.246094 Z M 300.253906 215.40625 C 300.253906 214.890625 299.832031 214.472656 299.320312 214.472656 L 290.988281 214.472656 C 290.476562 214.472656 290.054688 214.890625 290.054688 215.40625 C 290.054688 215.921875 290.476562 216.339844 290.988281 216.339844 L 299.320312 216.339844 C 299.832031 216.339844 300.253906 215.921875 300.253906 215.40625 Z M 280.164062 219.886719 C 280.164062 219.367188 279.742188 218.953125 279.230469 218.953125 L 271.429688 218.953125 C 270.914062 218.953125 270.496094 219.367188 270.496094 219.886719 C 270.496094 220.402344 270.914062 220.820312 271.429688 220.820312 L 279.230469 220.820312 C 279.742188 220.820312 280.164062 220.402344 280.164062 219.886719 Z M 264.019531 215.40625 C 264.019531 214.890625 263.601562 214.472656 263.085938 214.472656 L 254.757812 214.472656 C 254.238281 214.472656 253.824219 214.890625 253.824219 215.40625 C 253.824219 215.921875 254.238281 216.339844 254.757812 216.339844 L 263.085938 216.339844 C 263.601562 216.339844 264.019531 215.921875 264.019531 215.40625 Z M 241.339844 251.472656 L 234.226562 251.472656 C 233.246094 251.472656 232.351562 252.265625 232.230469 253.246094 C 232.109375 254.222656 232.800781 255.019531 233.78125 255.019531 L 240.894531 255.019531 C 241.871094 255.019531 242.765625 254.222656 242.890625 253.246094 C 243.011719 252.265625 242.320312 251.472656 241.339844 251.472656 Z M 234.039062 239.320312 C 234.800781 239.320312 235.492188 238.703125 235.589844 237.941406 C 235.6875 237.175781 235.144531 236.558594 234.382812 236.558594 C 233.621094 236.558594 232.925781 237.175781 232.832031 237.941406 C 232.730469 238.703125 233.273438 239.320312 234.039062 239.320312 Z M 233.21875 219.886719 C 233.21875 220.402344 233.636719 220.820312 234.152344 220.820312 L 239.882812 220.820312 C 240.398438 220.820312 240.816406 220.402344 240.816406 219.886719 C 240.816406 219.367188 240.398438 218.953125 239.882812 218.953125 L 234.152344 218.953125 C 233.636719 218.953125 233.21875 219.367188 233.21875 219.886719 Z M 269.871094 171.046875 C 269.871094 170.53125 269.457031 170.113281 268.9375 170.113281 L 251.308594 170.113281 C 250.792969 170.113281 250.375 170.53125 250.375 171.046875 C 250.375 171.5625 250.792969 171.980469 251.308594 171.980469 L 268.9375 171.980469 C 269.457031 171.980469 269.871094 171.5625 269.871094 171.046875 Z M 329.609375 272.027344 C 329.609375 272.546875 330.023438 272.960938 330.542969 272.960938 L 366.238281 272.960938 C 366.753906 272.960938 367.171875 272.546875 367.171875 272.027344 C 367.171875 271.515625 366.753906 271.09375 366.238281 271.09375 L 330.542969 271.09375 C 330.023438 271.09375 329.609375 271.515625 329.609375 272.027344 Z M 337.703125 207.628906 C 337.703125 208.144531 338.121094 208.5625 338.636719 208.5625 L 348.050781 208.5625 C 348.566406 208.5625 348.984375 208.144531 348.984375 207.628906 C 348.984375 207.113281 348.566406 206.695312 348.050781 206.695312 L 338.636719 206.695312 C 338.121094 206.695312 337.703125 207.113281 337.703125 207.628906 Z M 340.769531 183.242188 C 340.769531 183.753906 341.1875 184.175781 341.703125 184.175781 L 353.046875 184.175781 C 353.566406 184.175781 353.980469 183.753906 353.980469 183.242188 C 353.980469 182.722656 353.566406 182.308594 353.046875 182.308594 L 341.703125 182.308594 C 341.1875 182.308594 340.769531 182.722656 340.769531 183.242188 Z M 343.066406 164.949219 C 343.066406 165.460938 343.488281 165.882812 344 165.882812 L 351.867188 165.882812 C 352.382812 165.882812 352.800781 165.460938 352.800781 164.949219 C 352.800781 164.433594 352.382812 164.015625 351.867188 164.015625 L 344 164.015625 C 343.488281 164.015625 343.066406 164.433594 343.066406 164.949219 Z M 374.324219 183.242188 C 374.324219 182.722656 373.90625 182.308594 373.390625 182.308594 L 357.128906 182.308594 C 356.613281 182.308594 356.195312 182.722656 356.195312 183.242188 C 356.195312 183.753906 356.613281 184.175781 357.128906 184.175781 L 373.390625 184.175781 C 373.90625 184.175781 374.324219 183.753906 374.324219 183.242188 Z M 376.796875 202.464844 C 377.316406 202.464844 377.730469 202.050781 377.730469 201.53125 C 377.730469 201.015625 377.316406 200.597656 376.796875 200.597656 L 363.054688 200.597656 C 362.539062 200.597656 362.121094 201.015625 362.121094 201.53125 C 362.121094 202.050781 362.539062 202.464844 363.054688 202.464844 Z M 435.289062 141.476562 L 420.832031 271.859375 C 420.40625 275.710938 417.15625 278.617188 413.277344 278.617188 L 210.800781 278.617188 C 208.609375 278.617188 206.601562 277.71875 205.140625 276.089844 C 204.851562 275.765625 204.601562 275.417969 204.375 275.0625 C 202.273438 289.996094 192.195312 306.851562 192.195312 319.992188 C 192.195312 334.425781 203.203125 355.128906 203.203125 355.128906 C 203.203125 355.128906 199.296875 387.445312 159.648438 387.445312 C 145.320312 387.445312 135.203125 384.933594 130 383.234375 C 127.296875 382.355469 125.304688 380.082031 124.699219 377.308594 C 120.089844 356.394531 123.214844 326.699219 126.460938 316.261719 C 128.660156 309.203125 126.074219 273.054688 117.597656 247.28125 C 113.269531 234.136719 123.0625 220.609375 136.90625 220.609375 L 140.183594 210.179688 C 140.183594 210.179688 150.609375 205.140625 161.625 207.378906 C 172.644531 209.621094 177.90625 212.648438 182.011719 213.222656 L 179.347656 220.667969 C 183.894531 221.0625 187.957031 223.769531 190.035156 227.890625 C 194.515625 236.792969 201.644531 252.085938 203.980469 263.578125 L 217.707031 139.804688 C 218.132812 135.953125 221.378906 133.046875 225.261719 133.046875 L 427.738281 133.046875 C 429.925781 133.046875 431.9375 133.945312 433.398438 135.578125 C 434.859375 137.207031 435.53125 139.300781 435.289062 141.476562 Z M 245.640625 150.667969 C 244.882812 150.667969 244.1875 151.289062 244.085938 152.050781 C 243.992188 152.8125 244.53125 153.429688 245.292969 153.429688 C 246.058594 153.429688 246.753906 152.8125 246.847656 152.050781 C 246.945312 151.289062 246.40625 150.667969 245.640625 150.667969 Z M 250.871094 150.667969 C 250.109375 150.667969 249.410156 151.289062 249.316406 152.050781 C 249.222656 152.8125 249.761719 153.429688 250.523438 153.429688 C 251.285156 153.429688 251.980469 152.8125 252.078125 152.050781 C 252.171875 151.289062 251.632812 150.667969 250.871094 150.667969 Z M 107.792969 146.40625 L 96.675781 146.40625 L 96.675781 170.640625 L 107.792969 170.640625 Z M 68.796875 170.640625 L 79.910156 170.640625 L 79.910156 149.765625 L 68.796875 149.765625 Z M 52.027344 170.640625 L 40.914062 170.640625 L 40.914062 157.046875 L 52.027344 157.046875 L 52.027344 170.640625"/></g><g clip-path="url(#c)"><path fill="#F3D0D2" d="M 78.113281 75.925781 C 83.074219 75.925781 87.097656 71.902344 87.097656 66.941406 C 87.097656 61.980469 83.074219 57.960938 78.113281 57.960938 C 73.152344 57.960938 69.128906 61.980469 69.128906 66.941406 C 69.128906 71.902344 73.152344 75.925781 78.113281 75.925781 Z M 51.683594 29.953125 C 51.683594 31.304688 52.777344 32.398438 54.125 32.398438 C 55.472656 32.398438 56.566406 31.304688 56.566406 29.953125 C 56.566406 28.609375 55.472656 27.515625 54.125 27.515625 C 52.777344 27.515625 51.683594 28.609375 51.683594 29.953125 Z M 57.871094 51.304688 L 61.160156 56.445312 C 60.035156 58.25 59.199219 60.25 58.703125 62.378906 L 52.738281 63.6875 L 52.738281 70.195312 L 58.703125 71.507812 C 59.199219 73.636719 60.035156 75.632812 61.160156 77.4375 L 57.871094 82.578125 L 62.472656 87.179688 L 67.617188 83.894531 C 69.421875 85.011719 71.417969 85.847656 73.546875 86.347656 L 74.859375 92.308594 L 81.367188 92.308594 L 82.679688 86.347656 C 84.808594 85.847656 86.804688 85.011719 88.609375 83.894531 L 93.757812 87.179688 L 98.359375 82.578125 L 95.070312 77.4375 C 96.1875 75.632812 97.027344 73.636719 97.527344 71.507812 L 103.488281 70.195312 L 103.488281 63.6875 L 97.527344 62.378906 C 97.027344 60.25 96.1875 58.25 95.070312 56.445312 L 98.359375 51.304688 L 93.757812 46.703125 L 88.609375 49.988281 C 86.804688 48.871094 84.808594 48.03125 82.679688 47.535156 L 81.367188 41.574219 L 74.859375 41.574219 L 73.546875 47.535156 C 71.417969 48.03125 69.421875 48.871094 67.617188 49.988281 L 62.472656 46.703125 Z M 109.347656 72.753906 L 134.742188 72.753906 L 134.742188 66.941406 L 109.347656 66.941406 Z M 109.347656 47.386719 L 134.742188 47.386719 L 134.742188 41.574219 L 109.347656 41.574219 Z M 82.796875 99.402344 L 68.351562 99.402344 L 68.351562 100.335938 L 82.796875 100.335938 Z M 82.796875 102.511719 L 76.753906 102.511719 L 76.753906 103.445312 L 82.796875 103.445312 Z M 74.394531 103.445312 L 74.394531 102.511719 L 68.351562 102.511719 L 68.351562 103.445312 Z M 77.851562 105.625 L 68.351562 105.625 L 68.351562 106.558594 L 77.851562 106.558594 Z M 145.921875 93.902344 L 162.808594 93.902344 L 162.808594 68.152344 L 145.921875 68.152344 Z M 145.921875 67.21875 L 162.808594 67.21875 L 162.808594 41.46875 L 145.921875 41.46875 Z M 172.175781 96.105469 C 172.175781 97.070312 172.953125 97.84375 173.914062 97.84375 L 174.078125 97.84375 C 175.039062 97.84375 175.816406 97.070312 175.816406 96.105469 C 175.816406 95.148438 175.039062 94.371094 174.078125 94.371094 L 173.914062 94.371094 C 172.953125 94.371094 172.175781 95.148438 172.175781 96.105469 Z M 172.175781 87.988281 C 172.175781 88.945312 172.953125 89.726562 173.914062 89.726562 L 174.078125 89.726562 C 175.039062 89.726562 175.816406 88.945312 175.816406 87.988281 C 175.816406 87.027344 175.039062 86.25 174.078125 86.25 L 173.914062 86.25 C 172.953125 86.25 172.175781 87.027344 172.175781 87.988281 Z M 172.175781 79.867188 C 172.175781 80.828125 172.953125 81.605469 173.914062 81.605469 L 174.078125 81.605469 C 175.039062 81.605469 175.816406 80.828125 175.816406 79.867188 C 175.816406 78.90625 175.039062 78.128906 174.078125 78.128906 L 173.914062 78.128906 C 172.953125 78.128906 172.175781 78.90625 172.175781 79.867188 Z M 172.175781 71.746094 C 172.175781 72.707031 172.953125 73.484375 173.914062 73.484375 L 174.078125 73.484375 C 175.039062 73.484375 175.816406 72.707031 175.816406 71.746094 C 175.816406 70.789062 175.039062 70.007812 174.078125 70.007812 L 173.914062 70.007812 C 172.953125 70.007812 172.175781 70.789062 172.175781 71.746094 Z M 172.175781 63.625 C 172.175781 64.585938 172.953125 65.363281 173.914062 65.363281 L 174.078125 65.363281 C 175.039062 65.363281 175.816406 64.585938 175.816406 63.625 C 175.816406 62.664062 175.039062 61.890625 174.078125 61.890625 L 173.914062 61.890625 C 172.953125 61.890625 172.175781 62.664062 172.175781 63.625 Z M 172.175781 55.503906 C 172.175781 56.464844 172.953125 57.246094 173.914062 57.246094 L 174.078125 57.246094 C 175.039062 57.246094 175.816406 56.464844 175.816406 55.503906 C 175.816406 54.546875 175.039062 53.765625 174.078125 53.765625 L 173.914062 53.765625 C 172.953125 53.765625 172.175781 54.546875 172.175781 55.503906 Z M 172.175781 47.386719 C 172.175781 48.347656 172.953125 49.121094 173.914062 49.121094 L 174.078125 49.121094 C 175.039062 49.121094 175.816406 48.347656 175.816406 47.386719 C 175.816406 46.425781 175.039062 45.648438 174.078125 45.648438 L 173.914062 45.648438 C 172.953125 45.648438 172.175781 46.425781 172.175781 47.386719 Z M 172.175781 39.265625 C 172.175781 40.222656 172.953125 41.003906 173.914062 41.003906 L 174.078125 41.003906 C 175.039062 41.003906 175.816406 40.222656 175.816406 39.265625 C 175.816406 38.304688 175.039062 37.527344 174.078125 37.527344 L 173.914062 37.527344 C 172.953125 37.527344 172.175781 38.304688 172.175781 39.265625 Z M 172.175781 29.953125 C 172.175781 31.304688 173.265625 32.398438 174.617188 32.398438 C 175.964844 32.398438 177.058594 31.304688 177.058594 29.953125 C 177.058594 28.609375 175.964844 27.515625 174.617188 27.515625 C 173.265625 27.515625 172.175781 28.609375 172.175781 29.953125 Z M 179.566406 96.105469 C 179.566406 97.070312 180.34375 97.84375 181.304688 97.84375 L 196.046875 97.84375 C 197.007812 97.84375 197.785156 97.070312 197.785156 96.105469 C 197.785156 95.148438 197.007812 94.371094 196.046875 94.371094 L 181.304688 94.371094 C 180.34375 94.371094 179.566406 95.148438 179.566406 96.105469 Z M 179.566406 87.988281 C 179.566406 88.945312 180.34375 89.726562 181.304688 89.726562 L 212.851562 89.726562 C 213.808594 89.726562 214.589844 88.945312 214.589844 87.988281 C 214.589844 87.027344 213.808594 86.25 212.851562 86.25 L 181.304688 86.25 C 180.34375 86.25 179.566406 87.027344 179.566406 87.988281 Z M 179.566406 79.867188 C 179.566406 80.828125 180.34375 81.605469 181.304688 81.605469 L 201.523438 81.605469 C 202.484375 81.605469 203.265625 80.828125 203.265625 79.867188 C 203.265625 78.90625 202.484375 78.128906 201.523438 78.128906 L 181.304688 78.128906 C 180.34375 78.128906 179.566406 78.90625 179.566406 79.867188 Z M 179.566406 71.746094 C 179.566406 72.707031 180.34375 73.484375 181.304688 73.484375 L 207.996094 73.484375 C 208.957031 73.484375 209.734375 72.707031 209.734375 71.746094 C 209.734375 70.789062 208.957031 70.007812 207.996094 70.007812 L 181.304688 70.007812 C 180.34375 70.007812 179.566406 70.789062 179.566406 71.746094 Z M 179.566406 63.625 C 179.566406 64.585938 180.34375 65.363281 181.304688 65.363281 L 216.335938 65.363281 C 217.296875 65.363281 218.074219 64.585938 218.074219 63.625 C 218.074219 62.664062 217.296875 61.890625 216.335938 61.890625 L 181.304688 61.890625 C 180.34375 61.890625 179.566406 62.664062 179.566406 63.625 Z M 179.566406 55.503906 C 179.566406 56.464844 180.34375 57.246094 181.304688 57.246094 L 188.453125 57.246094 C 189.414062 57.246094 190.195312 56.464844 190.195312 55.503906 C 190.195312 54.546875 189.414062 53.765625 188.453125 53.765625 L 181.304688 53.765625 C 180.34375 53.765625 179.566406 54.546875 179.566406 55.503906 Z M 179.566406 47.386719 C 179.566406 48.347656 180.34375 49.121094 181.304688 49.121094 L 205.382812 49.121094 C 206.339844 49.121094 207.121094 48.347656 207.121094 47.386719 C 207.121094 46.425781 206.339844 45.648438 205.382812 45.648438 L 181.304688 45.648438 C 180.34375 45.648438 179.566406 46.425781 179.566406 47.386719 Z M 179.566406 39.265625 C 179.566406 40.222656 180.34375 41.003906 181.304688 41.003906 L 192.359375 41.003906 C 193.320312 41.003906 194.097656 40.222656 194.097656 39.265625 C 194.097656 38.304688 193.320312 37.527344 192.359375 37.527344 L 181.304688 37.527344 C 180.34375 37.527344 179.566406 38.304688 179.566406 39.265625 Z M 181.421875 29.953125 C 181.421875 31.304688 182.515625 32.398438 183.863281 32.398438 C 185.214844 32.398438 186.308594 31.304688 186.308594 29.953125 C 186.308594 28.609375 185.214844 27.515625 183.863281 27.515625 C 182.515625 27.515625 181.421875 28.609375 181.421875 29.953125 Z M 232.105469 53.765625 L 197.070312 53.765625 C 196.113281 53.765625 195.335938 54.546875 195.335938 55.503906 C 195.335938 56.464844 196.113281 57.246094 197.070312 57.246094 L 232.105469 57.246094 C 233.0625 57.246094 233.84375 56.464844 233.84375 55.503906 C 233.84375 54.546875 233.0625 53.765625 232.105469 53.765625 Z M 232.847656 63.625 C 232.847656 62.664062 232.070312 61.890625 231.113281 61.890625 L 223.960938 61.890625 C 223.003906 61.890625 222.222656 62.664062 222.222656 63.625 C 222.222656 64.585938 223.003906 65.363281 223.960938 65.363281 L 231.113281 65.363281 C 232.070312 65.363281 232.847656 64.585938 232.847656 63.625 Z M 231.976562 79.867188 C 231.976562 78.90625 231.199219 78.128906 230.242188 78.128906 L 223.089844 78.128906 C 222.132812 78.128906 221.351562 78.90625 221.351562 79.867188 C 221.351562 80.828125 222.132812 81.605469 223.089844 81.605469 L 230.242188 81.605469 C 231.199219 81.605469 231.976562 80.828125 231.976562 79.867188 Z M 217.539062 79.867188 C 217.539062 78.90625 216.761719 78.128906 215.800781 78.128906 L 208.648438 78.128906 C 207.691406 78.128906 206.914062 78.90625 206.914062 79.867188 C 206.914062 80.828125 207.691406 81.605469 208.648438 81.605469 L 215.800781 81.605469 C 216.761719 81.605469 217.539062 80.828125 217.539062 79.867188 Z M 224.421875 96.105469 C 224.421875 95.148438 223.644531 94.371094 222.683594 94.371094 L 202.464844 94.371094 C 201.503906 94.371094 200.726562 95.148438 200.726562 96.105469 C 200.726562 97.070312 201.503906 97.84375 202.464844 97.84375 L 222.683594 97.84375 C 223.644531 97.84375 224.421875 97.070312 224.421875 96.105469 Z M 272.273438 93.902344 L 294.375 93.902344 L 294.375 68.152344 L 272.273438 68.152344 Z M 272.273438 67.21875 L 294.375 67.21875 L 294.375 41.46875 L 272.273438 41.46875 Z M 304.878906 92.308594 L 395.941406 92.308594 L 395.941406 45.648438 L 304.878906 45.648438 Z M 314.128906 29.953125 C 314.128906 31.304688 315.222656 32.398438 316.570312 32.398438 C 317.921875 32.398438 319.015625 31.304688 319.015625 29.953125 C 319.015625 28.609375 317.921875 27.515625 316.570312 27.515625 C 315.222656 27.515625 314.128906 28.609375 314.128906 29.953125 Z M 377.957031 97.378906 L 363.507812 97.378906 L 363.507812 98.3125 L 377.957031 98.3125 Z M 377.957031 100.488281 L 371.910156 100.488281 L 371.910156 101.421875 L 377.957031 101.421875 Z M 369.554688 101.421875 L 369.554688 100.488281 L 363.507812 100.488281 L 363.507812 101.421875 Z M 373.007812 103.601562 L 363.507812 103.601562 L 363.507812 104.535156 L 373.007812 104.535156 Z M 348.085938 97.378906 L 333.632812 97.378906 L 333.632812 98.3125 L 348.085938 98.3125 Z M 348.085938 100.488281 L 342.035156 100.488281 L 342.035156 101.421875 L 348.085938 101.421875 Z M 339.683594 101.421875 L 339.683594 100.488281 L 333.632812 100.488281 L 333.632812 101.421875 Z M 343.136719 103.601562 L 333.632812 103.601562 L 333.632812 104.535156 L 343.136719 104.535156 Z M 36.457031 112.746094 L 36.457031 26.070312 C 36.457031 23.496094 38.546875 21.40625 41.125 21.40625 L 141.253906 21.40625 C 143.832031 21.40625 145.921875 23.496094 145.921875 26.070312 L 145.921875 40.535156 L 162.808594 40.535156 L 162.808594 26.070312 C 162.808594 23.496094 164.898438 21.40625 167.476562 21.40625 L 267.605469 21.40625 C 270.183594 21.40625 272.273438 23.496094 272.273438 26.070312 L 272.273438 40.535156 L 294.375 40.535156 L 294.375 26.070312 C 294.375 23.496094 296.464844 21.40625 299.042969 21.40625 L 399.167969 21.40625 C 401.75 21.40625 403.835938 23.496094 403.835938 26.070312 L 403.835938 93.902344 L 415.898438 93.902344 C 416.085938 94.210938 416.261719 94.527344 416.445312 94.835938 L 403.835938 94.835938 L 403.835938 112.746094 C 403.835938 115.324219 401.75 117.414062 399.167969 117.414062 L 299.042969 117.414062 C 296.464844 117.414062 294.375 115.324219 294.375 112.746094 L 294.375 94.835938 L 272.273438 94.835938 L 272.273438 103.039062 C 272.273438 105.617188 270.183594 107.707031 267.605469 107.707031 L 167.476562 107.707031 C 164.898438 107.707031 162.808594 105.617188 162.808594 103.039062 L 162.808594 94.835938 L 145.921875 94.835938 L 145.921875 112.746094 C 145.921875 115.324219 143.832031 117.414062 141.253906 117.414062 L 41.125 117.414062 C 38.546875 117.414062 36.457031 115.324219 36.457031 112.746094 Z M 357.855469 137.433594 C 357.339844 137.433594 356.921875 137.851562 356.921875 138.363281 C 356.921875 138.882812 357.339844 139.296875 357.855469 139.296875 L 376.710938 139.296875 C 377.230469 139.296875 377.644531 138.882812 377.644531 138.363281 C 377.644531 137.851562 377.230469 137.433594 376.710938 137.433594 Z M 378.277344 247.640625 C 378.277344 247.125 377.863281 246.707031 377.34375 246.707031 L 352.597656 246.707031 C 352.085938 246.707031 351.664062 247.125 351.664062 247.640625 C 351.664062 248.15625 352.085938 248.574219 352.597656 248.574219 L 377.34375 248.574219 C 377.863281 248.574219 378.277344 248.15625 378.277344 247.640625 Z M 367.9375 265.933594 C 367.9375 265.414062 367.519531 265 367.003906 265 L 331.308594 265 C 330.792969 265 330.375 265.414062 330.375 265.933594 C 330.375 266.449219 330.792969 266.867188 331.308594 266.867188 L 367.003906 266.867188 C 367.519531 266.867188 367.9375 266.449219 367.9375 265.933594 Z M 367.171875 272.027344 C 367.171875 271.515625 366.753906 271.09375 366.238281 271.09375 L 330.542969 271.09375 C 330.023438 271.09375 329.609375 271.515625 329.609375 272.027344 C 329.609375 272.546875 330.023438 272.960938 330.542969 272.960938 L 366.238281 272.960938 C 366.753906 272.960938 367.171875 272.546875 367.171875 272.027344 Z M 331.90625 253.734375 C 331.90625 254.253906 332.324219 254.667969 332.839844 254.667969 L 361.6875 254.667969 C 362.199219 254.667969 362.621094 254.253906 362.621094 253.734375 C 362.621094 253.222656 362.199219 252.800781 361.6875 252.800781 L 332.839844 252.800781 C 332.324219 252.800781 331.90625 253.222656 331.90625 253.734375 Z M 332.675781 247.640625 C 332.675781 248.15625 333.089844 248.574219 333.609375 248.574219 L 345.980469 248.574219 C 346.496094 248.574219 346.914062 248.15625 346.914062 247.640625 C 346.914062 247.125 346.496094 246.707031 345.980469 246.707031 L 333.609375 246.707031 C 333.089844 246.707031 332.675781 247.125 332.675781 247.640625 Z M 333.441406 241.546875 C 333.441406 242.058594 333.855469 242.476562 334.375 242.476562 L 370.070312 242.476562 C 370.589844 242.476562 371.003906 242.058594 371.003906 241.546875 C 371.003906 241.027344 370.589844 240.613281 370.070312 240.613281 L 334.375 240.613281 C 333.855469 240.613281 333.441406 241.027344 333.441406 241.546875 Z M 326.570312 241.546875 C 326.570312 241.027344 326.152344 240.613281 325.636719 240.613281 L 319.410156 240.613281 C 318.898438 240.613281 318.476562 241.027344 318.476562 241.546875 C 318.476562 242.058594 318.898438 242.476562 319.410156 242.476562 L 325.636719 242.476562 C 326.152344 242.476562 326.570312 242.058594 326.570312 241.546875 Z M 325.800781 247.640625 C 325.800781 247.125 325.386719 246.707031 324.867188 246.707031 L 318.644531 246.707031 C 318.128906 246.707031 317.710938 247.125 317.710938 247.640625 C 317.710938 248.15625 318.128906 248.574219 318.644531 248.574219 L 324.867188 248.574219 C 325.386719 248.574219 325.800781 248.15625 325.800781 247.640625 Z M 325.035156 253.734375 C 325.035156 253.222656 324.617188 252.800781 324.101562 252.800781 L 317.875 252.800781 C 317.363281 252.800781 316.941406 253.222656 316.941406 253.734375 C 316.941406 254.253906 317.363281 254.667969 317.875 254.667969 L 324.101562 254.667969 C 324.617188 254.667969 325.035156 254.253906 325.035156 253.734375 Z M 323.503906 265.933594 C 323.503906 265.414062 323.082031 265 322.570312 265 L 316.34375 265 C 315.832031 265 315.410156 265.414062 315.410156 265.933594 C 315.410156 266.449219 315.832031 266.867188 316.34375 266.867188 L 322.570312 266.867188 C 323.082031 266.867188 323.503906 266.449219 323.503906 265.933594 Z M 322.738281 272.027344 C 322.738281 271.515625 322.316406 271.09375 321.804688 271.09375 L 315.578125 271.09375 C 315.0625 271.09375 314.644531 271.515625 314.644531 272.027344 C 314.644531 272.546875 315.0625 272.960938 315.578125 272.960938 L 321.804688 272.960938 C 322.316406 272.960938 322.738281 272.546875 322.738281 272.027344 Z M 390.625 237.792969 L 385.492188 278.617188 L 374.285156 278.617188 C 374.378906 278.472656 374.445312 278.308594 374.445312 278.128906 C 374.445312 277.609375 374.03125 277.195312 373.511719 277.195312 L 348.765625 277.195312 C 348.253906 277.195312 347.832031 277.609375 347.832031 278.128906 C 347.832031 278.308594 347.898438 278.472656 347.992188 278.617188 L 342.921875 278.617188 C 343.011719 278.472656 343.082031 278.308594 343.082031 278.128906 C 343.082031 277.609375 342.664062 277.195312 342.148438 277.195312 L 329.773438 277.195312 C 329.257812 277.195312 328.839844 277.609375 328.839844 278.128906 C 328.839844 278.308594 328.90625 278.472656 329 278.617188 L 321.808594 278.617188 C 321.902344 278.472656 321.96875 278.308594 321.96875 278.128906 C 321.96875 277.609375 321.550781 277.195312 321.035156 277.195312 L 314.8125 277.195312 C 314.296875 277.195312 313.878906 277.609375 313.878906 278.128906 C 313.878906 278.308594 313.945312 278.472656 314.039062 278.617188 L 307.902344 278.617188 L 313.039062 237.792969 C 313.363281 235.214844 315.714844 233.128906 318.292969 233.128906 L 386.546875 233.128906 C 389.121094 233.128906 390.949219 235.214844 390.625 237.792969 Z M 258.105469 251.472656 L 250.996094 251.472656 C 250.011719 251.472656 249.121094 252.265625 249 253.246094 C 248.875 254.222656 249.566406 255.019531 250.550781 255.019531 L 257.660156 255.019531 C 258.640625 255.019531 259.535156 254.222656 259.660156 253.246094 C 259.777344 252.265625 259.085938 251.472656 258.105469 251.472656 Z M 241.339844 251.472656 L 234.226562 251.472656 C 233.246094 251.472656 232.351562 252.265625 232.230469 253.246094 C 232.109375 254.222656 232.800781 255.019531 233.78125 255.019531 L 240.894531 255.019531 C 241.871094 255.019531 242.765625 254.222656 242.890625 253.246094 C 243.011719 252.265625 242.320312 251.472656 241.339844 251.472656 Z M 229.15625 236.558594 C 228.390625 236.558594 227.695312 237.175781 227.601562 237.941406 C 227.507812 238.703125 228.046875 239.320312 228.808594 239.320312 C 229.570312 239.320312 230.265625 238.703125 230.363281 237.941406 C 230.460938 237.175781 229.917969 236.558594 229.15625 236.558594 Z M 234.039062 239.320312 C 234.800781 239.320312 235.492188 238.703125 235.589844 237.941406 C 235.6875 237.175781 235.144531 236.558594 234.382812 236.558594 C 233.621094 236.558594 232.925781 237.175781 232.832031 237.941406 C 232.730469 238.703125 233.273438 239.320312 234.039062 239.320312 Z M 239.261719 239.320312 C 240.023438 239.320312 240.722656 238.703125 240.816406 237.941406 C 240.914062 237.175781 240.375 236.558594 239.609375 236.558594 C 238.847656 236.558594 238.15625 237.175781 238.054688 237.941406 C 237.960938 238.703125 238.5 239.320312 239.261719 239.320312 Z M 253.800781 245.125 L 239.890625 245.125 C 239.375 245.125 238.957031 245.542969 238.957031 246.058594 C 238.957031 246.574219 239.375 246.992188 239.890625 246.992188 L 253.800781 246.992188 C 254.320312 246.992188 254.734375 246.574219 254.734375 246.058594 C 254.734375 245.542969 254.320312 245.125 253.800781 245.125 Z M 267.933594 233.117188 C 270.511719 233.117188 272.339844 235.210938 272.015625 237.78125 L 270.058594 253.339844 C 269.738281 255.914062 267.382812 258.003906 264.808594 258.003906 L 225.164062 258.003906 C 222.585938 258.003906 220.761719 255.914062 221.085938 253.339844 L 223.039062 237.78125 C 223.363281 235.210938 225.714844 233.117188 228.292969 233.117188 Z M 246.847656 152.050781 C 246.945312 151.289062 246.40625 150.667969 245.640625 150.667969 C 244.882812 150.667969 244.1875 151.289062 244.085938 152.050781 C 243.992188 152.8125 244.53125 153.429688 245.292969 153.429688 C 246.058594 153.429688 246.753906 152.8125 246.847656 152.050781 Z M 296.132812 219.886719 C 296.132812 219.367188 295.710938 218.953125 295.199219 218.953125 L 290.429688 218.953125 C 289.910156 218.953125 289.496094 219.367188 289.496094 219.886719 C 289.496094 220.402344 289.910156 220.820312 290.429688 220.820312 L 295.199219 220.820312 C 295.710938 220.820312 296.132812 220.402344 296.132812 219.886719 Z M 289.289062 171.980469 C 289.804688 171.980469 290.222656 171.5625 290.222656 171.046875 C 290.222656 170.53125 289.804688 170.113281 289.289062 170.113281 L 275.394531 170.113281 C 274.878906 170.113281 274.460938 170.53125 274.460938 171.046875 C 274.460938 171.5625 274.878906 171.980469 275.394531 171.980469 Z M 286.585938 179.21875 L 252.769531 179.21875 C 251.394531 179.21875 250.140625 180.332031 249.96875 181.707031 L 248.945312 189.835938 C 248.773438 191.207031 249.746094 192.324219 251.121094 192.324219 L 284.9375 192.324219 C 286.3125 192.324219 287.566406 191.207031 287.738281 189.835938 L 288.757812 181.707031 C 288.933594 180.332031 287.957031 179.21875 286.585938 179.21875 Z M 271.996094 216.339844 L 276.765625 216.339844 C 277.277344 216.339844 277.699219 215.921875 277.699219 215.40625 C 277.699219 214.890625 277.277344 214.472656 276.765625 214.472656 L 271.996094 214.472656 C 271.476562 214.472656 271.0625 214.890625 271.0625 215.40625 C 271.0625 215.921875 271.476562 216.339844 271.996094 216.339844 Z M 280.164062 219.886719 C 280.164062 219.367188 279.742188 218.953125 279.230469 218.953125 L 271.429688 218.953125 C 270.914062 218.953125 270.496094 219.367188 270.496094 219.886719 C 270.496094 220.402344 270.914062 220.820312 271.429688 220.820312 L 279.230469 220.820312 C 279.742188 220.820312 280.164062 220.402344 280.164062 219.886719 Z M 264.019531 215.40625 C 264.019531 214.890625 263.601562 214.472656 263.085938 214.472656 L 254.757812 214.472656 C 254.238281 214.472656 253.824219 214.890625 253.824219 215.40625 C 253.824219 215.921875 254.238281 216.339844 254.757812 216.339844 L 263.085938 216.339844 C 263.601562 216.339844 264.019531 215.921875 264.019531 215.40625 Z M 259.898438 219.886719 C 259.898438 219.367188 259.480469 218.953125 258.964844 218.953125 L 254.191406 218.953125 C 253.679688 218.953125 253.257812 219.367188 253.257812 219.886719 C 253.257812 220.402344 253.679688 220.820312 254.191406 220.820312 L 258.964844 220.820312 C 259.480469 220.820312 259.898438 220.402344 259.898438 219.886719 Z M 245.1875 215.40625 C 245.1875 214.890625 244.773438 214.472656 244.253906 214.472656 L 234.714844 214.472656 C 234.203125 214.472656 233.78125 214.890625 233.78125 215.40625 C 233.78125 215.921875 234.203125 216.339844 234.714844 216.339844 L 244.253906 216.339844 C 244.773438 216.339844 245.1875 215.921875 245.1875 215.40625 Z M 240.816406 219.886719 C 240.816406 219.367188 240.398438 218.953125 239.882812 218.953125 L 234.152344 218.953125 C 233.636719 218.953125 233.21875 219.367188 233.21875 219.886719 C 233.21875 220.402344 233.636719 220.820312 234.152344 220.820312 L 239.882812 220.820312 C 240.398438 220.820312 240.816406 220.402344 240.816406 219.886719 Z M 250.375 171.046875 C 250.375 171.5625 250.792969 171.980469 251.308594 171.980469 L 268.9375 171.980469 C 269.457031 171.980469 269.871094 171.5625 269.871094 171.046875 C 269.871094 170.53125 269.457031 170.113281 268.9375 170.113281 L 251.308594 170.113281 C 250.792969 170.113281 250.375 170.53125 250.375 171.046875 Z M 290.054688 215.40625 C 290.054688 215.921875 290.476562 216.339844 290.988281 216.339844 L 299.320312 216.339844 C 299.832031 216.339844 300.253906 215.921875 300.253906 215.40625 C 300.253906 214.890625 299.832031 214.472656 299.320312 214.472656 L 290.988281 214.472656 C 290.476562 214.472656 290.054688 214.890625 290.054688 215.40625 Z M 297.886719 226.296875 L 229.632812 226.296875 C 227.054688 226.296875 225.226562 224.207031 225.550781 221.628906 L 233.441406 158.847656 L 311.03125 158.847656 L 312.15625 149.914062 L 303.136719 221.628906 C 302.816406 224.207031 300.464844 226.296875 297.886719 226.296875 Z M 402.402344 272.003906 L 392.980469 272.003906 C 392.46875 272.003906 392.046875 272.421875 392.046875 272.9375 C 392.046875 273.449219 392.46875 273.871094 392.980469 273.871094 L 402.402344 273.871094 C 402.914062 273.871094 403.335938 273.449219 403.335938 272.9375 C 403.335938 272.421875 402.914062 272.003906 402.402344 272.003906 Z M 407.003906 265.90625 L 393.75 265.90625 C 393.234375 265.90625 392.816406 266.324219 392.816406 266.835938 C 392.816406 267.355469 393.234375 267.769531 393.75 267.769531 L 407.003906 267.769531 C 407.519531 267.769531 407.9375 267.355469 407.9375 266.835938 C 407.9375 266.324219 407.519531 265.90625 407.003906 265.90625 Z M 394.515625 261.675781 L 402.382812 261.675781 C 402.898438 261.675781 403.316406 261.257812 403.316406 260.742188 C 403.316406 260.226562 402.898438 259.808594 402.382812 259.808594 L 394.515625 259.808594 C 394 259.808594 393.582031 260.226562 393.582031 260.742188 C 393.582031 261.257812 394 261.675781 394.515625 261.675781 Z M 411.570312 190.933594 L 402.152344 190.933594 C 401.636719 190.933594 401.21875 191.351562 401.21875 191.867188 C 401.21875 192.386719 401.636719 192.800781 402.152344 192.800781 L 411.570312 192.800781 C 412.082031 192.800781 412.503906 192.386719 412.503906 191.867188 C 412.503906 191.351562 412.082031 190.933594 411.570312 190.933594 Z M 416.171875 184.839844 L 402.917969 184.839844 C 402.402344 184.839844 401.984375 185.253906 401.984375 185.773438 C 401.984375 186.285156 402.402344 186.703125 402.917969 186.703125 L 416.171875 186.703125 C 416.6875 186.703125 417.105469 186.285156 417.105469 185.773438 C 417.105469 185.253906 416.6875 184.839844 416.171875 184.839844 Z M 403.683594 178.738281 C 403.171875 178.738281 402.75 179.160156 402.75 179.671875 C 402.75 180.191406 403.171875 180.605469 403.683594 180.605469 L 411.550781 180.605469 C 412.066406 180.605469 412.484375 180.191406 412.484375 179.671875 C 412.484375 179.160156 412.066406 178.738281 411.550781 178.738281 Z M 389.441406 158.847656 C 389.441406 158.335938 389.027344 157.917969 388.507812 157.917969 L 372.78125 157.917969 C 372.261719 157.917969 371.847656 158.335938 371.847656 158.847656 C 371.847656 159.367188 372.261719 159.78125 372.78125 159.78125 L 388.507812 159.78125 C 389.027344 159.78125 389.441406 159.367188 389.441406 158.847656 Z M 381.566406 171.046875 C 381.566406 170.53125 381.148438 170.113281 380.632812 170.113281 L 366.886719 170.113281 C 366.371094 170.113281 365.953125 170.53125 365.953125 171.046875 C 365.953125 171.5625 366.371094 171.980469 366.886719 171.980469 L 380.632812 171.980469 C 381.148438 171.980469 381.566406 171.5625 381.566406 171.046875 Z M 377.730469 201.53125 C 377.730469 201.015625 377.316406 200.597656 376.796875 200.597656 L 363.054688 200.597656 C 362.539062 200.597656 362.121094 201.015625 362.121094 201.53125 C 362.121094 202.050781 362.539062 202.464844 363.054688 202.464844 L 376.796875 202.464844 C 377.316406 202.464844 377.730469 202.050781 377.730469 201.53125 Z M 370.910156 207.628906 C 370.910156 207.113281 370.492188 206.695312 369.976562 206.695312 L 353.367188 206.695312 C 352.851562 206.695312 352.433594 207.113281 352.433594 207.628906 C 352.433594 208.144531 352.851562 208.5625 353.367188 208.5625 L 369.976562 208.5625 C 370.492188 208.5625 370.910156 208.144531 370.910156 207.628906 Z M 361.496094 213.726562 C 361.496094 213.210938 361.078125 212.792969 360.5625 212.792969 L 337.871094 212.792969 C 337.351562 212.792969 336.9375 213.210938 336.9375 213.726562 C 336.9375 214.242188 337.351562 214.660156 337.871094 214.660156 L 360.5625 214.660156 C 361.078125 214.660156 361.496094 214.242188 361.496094 213.726562 Z M 336.960938 158.847656 C 336.960938 158.335938 336.546875 157.917969 336.03125 157.917969 L 329.808594 157.917969 C 329.292969 157.917969 328.875 158.335938 328.875 158.847656 C 328.875 159.367188 329.292969 159.78125 329.808594 159.78125 L 336.03125 159.78125 C 336.546875 159.78125 336.960938 159.367188 336.960938 158.847656 Z M 336.195312 164.949219 C 336.195312 164.433594 335.78125 164.015625 335.261719 164.015625 L 329.042969 164.015625 C 328.523438 164.015625 328.109375 164.433594 328.109375 164.949219 C 328.109375 165.460938 328.523438 165.882812 329.042969 165.882812 L 335.261719 165.882812 C 335.78125 165.882812 336.195312 165.460938 336.195312 164.949219 Z M 335.429688 171.046875 C 335.429688 170.53125 335.015625 170.113281 334.496094 170.113281 L 328.277344 170.113281 C 327.757812 170.113281 327.34375 170.53125 327.34375 171.046875 C 327.34375 171.5625 327.757812 171.980469 328.277344 171.980469 L 334.496094 171.980469 C 335.015625 171.980469 335.429688 171.5625 335.429688 171.046875 Z M 334.664062 177.144531 C 334.664062 176.628906 334.246094 176.210938 333.730469 176.210938 L 327.507812 176.210938 C 326.992188 176.210938 326.574219 176.628906 326.574219 177.144531 C 326.574219 177.65625 326.992188 178.074219 327.507812 178.074219 L 333.730469 178.074219 C 334.246094 178.074219 334.664062 177.65625 334.664062 177.144531 Z M 333.898438 183.242188 C 333.898438 182.722656 333.480469 182.308594 332.964844 182.308594 L 326.742188 182.308594 C 326.226562 182.308594 325.808594 182.722656 325.808594 183.242188 C 325.808594 183.753906 326.226562 184.175781 326.742188 184.175781 L 332.964844 184.175781 C 333.480469 184.175781 333.898438 183.753906 333.898438 183.242188 Z M 332.363281 195.4375 C 332.363281 194.917969 331.949219 194.503906 331.429688 194.503906 L 325.210938 194.503906 C 324.691406 194.503906 324.277344 194.917969 324.277344 195.4375 C 324.277344 195.949219 324.691406 196.371094 325.210938 196.371094 L 331.429688 196.371094 C 331.949219 196.371094 332.363281 195.949219 332.363281 195.4375 Z M 331.597656 201.53125 C 331.597656 201.015625 331.179688 200.597656 330.664062 200.597656 L 324.441406 200.597656 C 323.925781 200.597656 323.507812 201.015625 323.507812 201.53125 C 323.507812 202.050781 323.925781 202.464844 324.441406 202.464844 L 330.664062 202.464844 C 331.179688 202.464844 331.597656 202.050781 331.597656 201.53125 Z M 330.832031 207.628906 C 330.832031 207.113281 330.414062 206.695312 329.898438 206.695312 L 323.675781 206.695312 C 323.160156 206.695312 322.742188 207.113281 322.742188 207.628906 C 322.742188 208.144531 323.160156 208.5625 323.675781 208.5625 L 329.898438 208.5625 C 330.414062 208.5625 330.832031 208.144531 330.832031 207.628906 Z M 330.066406 213.726562 C 330.066406 213.210938 329.648438 212.792969 329.132812 212.792969 L 322.910156 212.792969 C 322.394531 212.792969 321.976562 213.210938 321.976562 213.726562 C 321.976562 214.242188 322.394531 214.660156 322.910156 214.660156 L 329.132812 214.660156 C 329.648438 214.660156 330.066406 214.242188 330.066406 213.726562 Z M 337.703125 207.628906 C 337.703125 208.144531 338.121094 208.5625 338.636719 208.5625 L 348.050781 208.5625 C 348.566406 208.5625 348.984375 208.144531 348.984375 207.628906 C 348.984375 207.113281 348.566406 206.695312 348.050781 206.695312 L 338.636719 206.695312 C 338.121094 206.695312 337.703125 207.113281 337.703125 207.628906 Z M 338.46875 201.53125 C 338.46875 202.050781 338.886719 202.464844 339.402344 202.464844 L 357.742188 202.464844 C 358.253906 202.464844 358.675781 202.050781 358.675781 201.53125 C 358.675781 201.015625 358.253906 200.597656 357.742188 200.597656 L 339.402344 200.597656 C 338.886719 200.597656 338.46875 201.015625 338.46875 201.53125 Z M 339.234375 195.4375 C 339.234375 195.949219 339.652344 196.371094 340.167969 196.371094 L 348.035156 196.371094 C 348.550781 196.371094 348.96875 195.949219 348.96875 195.4375 C 348.96875 194.917969 348.550781 194.503906 348.035156 194.503906 L 340.167969 194.503906 C 339.652344 194.503906 339.234375 194.917969 339.234375 195.4375 Z M 340.769531 183.242188 C 340.769531 183.753906 341.1875 184.175781 341.703125 184.175781 L 353.046875 184.175781 C 353.566406 184.175781 353.980469 183.753906 353.980469 183.242188 C 353.980469 182.722656 353.566406 182.308594 353.046875 182.308594 L 341.703125 182.308594 C 341.1875 182.308594 340.769531 182.722656 340.769531 183.242188 Z M 341.535156 177.144531 C 341.535156 177.65625 341.953125 178.074219 342.46875 178.074219 L 351.882812 178.074219 C 352.402344 178.074219 352.816406 177.65625 352.816406 177.144531 C 352.816406 176.628906 352.402344 176.210938 351.882812 176.210938 L 342.46875 176.210938 C 341.953125 176.210938 341.535156 176.628906 341.535156 177.144531 Z M 342.300781 171.046875 C 342.300781 171.5625 342.722656 171.980469 343.234375 171.980469 L 361.574219 171.980469 C 362.089844 171.980469 362.507812 171.5625 362.507812 171.046875 C 362.507812 170.53125 362.089844 170.113281 361.574219 170.113281 L 343.234375 170.113281 C 342.722656 170.113281 342.300781 170.53125 342.300781 171.046875 Z M 343.066406 164.949219 C 343.066406 165.460938 343.488281 165.882812 344 165.882812 L 351.867188 165.882812 C 352.382812 165.882812 352.800781 165.460938 352.800781 164.949219 C 352.800781 164.433594 352.382812 164.015625 351.867188 164.015625 L 344 164.015625 C 343.488281 164.015625 343.066406 164.433594 343.066406 164.949219 Z M 343.835938 158.847656 C 343.835938 159.367188 344.253906 159.78125 344.769531 159.78125 L 367.464844 159.78125 C 367.976562 159.78125 368.398438 159.367188 368.398438 158.847656 C 368.398438 158.335938 367.976562 157.917969 367.464844 157.917969 L 344.769531 157.917969 C 344.253906 157.917969 343.835938 158.335938 343.835938 158.847656 Z M 371.804688 165.882812 C 372.324219 165.882812 372.738281 165.460938 372.738281 164.949219 C 372.738281 164.433594 372.324219 164.015625 371.804688 164.015625 L 356.074219 164.015625 C 355.558594 164.015625 355.140625 164.433594 355.140625 164.949219 C 355.140625 165.460938 355.558594 165.882812 356.074219 165.882812 Z M 364.371094 177.144531 C 364.371094 176.628906 363.953125 176.210938 363.4375 176.210938 L 357.203125 176.210938 C 356.683594 176.210938 356.269531 176.628906 356.269531 177.144531 C 356.269531 177.65625 356.683594 178.074219 357.203125 178.074219 L 363.4375 178.074219 C 363.953125 178.074219 364.371094 177.65625 364.371094 177.144531 Z M 367.972656 194.503906 L 352.242188 194.503906 C 351.726562 194.503906 351.308594 194.917969 351.308594 195.4375 C 351.308594 195.949219 351.726562 196.371094 352.242188 196.371094 L 367.972656 196.371094 C 368.492188 196.371094 368.90625 195.949219 368.90625 195.4375 C 368.90625 194.917969 368.492188 194.503906 367.972656 194.503906 Z M 373.390625 184.175781 C 373.90625 184.175781 374.324219 183.753906 374.324219 183.242188 C 374.324219 182.722656 373.90625 182.308594 373.390625 182.308594 L 357.128906 182.308594 C 356.613281 182.308594 356.195312 182.722656 356.195312 183.242188 C 356.195312 183.753906 356.613281 184.175781 357.128906 184.175781 Z M 392.65625 221.628906 C 392.332031 224.207031 389.980469 226.296875 387.402344 226.296875 L 319.148438 226.296875 C 316.570312 226.296875 314.742188 224.207031 315.070312 221.628906 L 324.085938 149.914062 C 324.40625 147.335938 326.761719 145.246094 329.335938 145.246094 L 397.589844 145.246094 C 400.167969 145.246094 401.996094 147.335938 401.675781 149.914062 Z M 148.65625 173.953125 L 147.789062 166.792969 C 146.949219 159.839844 149 153.273438 152.933594 148.199219 L 114.695312 148.199219 L 114.695312 173.847656 C 114.695312 173.882812 114.683594 173.917969 114.683594 173.953125 Z M 106.859375 147.339844 L 97.609375 147.339844 L 97.609375 169.707031 L 106.859375 169.707031 Z M 92.917969 148.199219 L 92.917969 144.539062 L 83.667969 144.539062 L 83.667969 169.707031 L 92.917969 169.707031 Z M 78.976562 150.699219 L 69.730469 150.699219 L 69.730469 169.707031 L 78.976562 169.707031 Z M 65.035156 161.933594 L 55.789062 161.933594 L 55.789062 169.707031 L 65.035156 169.707031 Z M 51.09375 157.976562 L 41.847656 157.976562 L 41.847656 169.707031 L 51.09375 169.707031 Z M 145.589844 201.566406 L 4.828125 201.566406 C 4.804688 201.257812 4.777344 200.945312 4.761719 200.632812 L 145.851562 200.632812 L 148.410156 191.621094 C 149.511719 187.734375 149.828125 183.671875 149.34375 179.660156 L 148.769531 174.886719 L 114.566406 174.886719 C 114.09375 176.960938 112.246094 178.511719 110.027344 178.511719 L 41.125 178.511719 C 38.902344 178.511719 37.054688 176.960938 36.582031 174.886719 L 5.101562 174.886719 C 5.128906 174.574219 5.164062 174.261719 5.199219 173.953125 L 36.46875 173.953125 C 36.46875 173.917969 36.457031 173.882812 36.457031 173.847656 L 36.457031 148.199219 L 10.074219 148.199219 C 10.160156 147.886719 10.261719 147.582031 10.351562 147.269531 L 36.457031 147.269531 L 36.457031 137.710938 C 36.457031 135.136719 38.546875 133.046875 41.125 133.046875 L 110.027344 133.046875 C 112.601562 133.046875 114.695312 135.136719 114.695312 137.710938 L 114.695312 147.269531 L 153.695312 147.269531 C 158.328125 141.851562 165.207031 138.363281 172.992188 138.363281 C 180.675781 138.363281 187.625 141.796875 192.300781 147.269531 L 216.878906 147.269531 L 216.777344 148.199219 L 193.0625 148.199219 C 195.882812 151.835938 197.746094 156.269531 198.246094 161.140625 L 198.5 163.609375 L 203.816406 173.953125 L 213.921875 173.953125 L 213.816406 174.886719 L 204.160156 174.886719 C 204.183594 175.476562 203.8125 176.050781 203.199219 176.226562 L 201.113281 176.839844 C 200.503906 177.015625 200.105469 177.589844 200.152344 178.222656 C 200.472656 182.375 201.40625 197.183594 198.5 198.746094 C 195.117188 200.570312 178.960938 197.300781 178.960938 197.300781 C 178.652344 198.402344 178.402344 199.515625 178.191406 200.632812 L 210.960938 200.632812 L 210.859375 201.566406 L 178.027344 201.566406 C 177.457031 205.03125 177.316406 208.550781 177.613281 212.042969 C 173.992188 210.804688 169.152344 208.910156 161.625 207.378906 C 154.414062 205.914062 147.460938 207.570312 143.515625 208.882812 Z M 124.421875 276.71875 C 123.273438 269.464844 121.757812 261.984375 119.867188 254.933594 L 119.871094 254.933594 C 119.835938 254.8125 119.804688 254.691406 119.769531 254.570312 C 119.09375 252.078125 118.371094 249.632812 117.597656 247.28125 C 115.011719 239.421875 117.46875 231.4375 122.824219 226.273438 C 122.5625 226.390625 122.300781 226.492188 122.046875 226.621094 C 121.609375 226.839844 121.191406 227.074219 120.78125 227.316406 L 8.382812 227.316406 C 8.449219 227.628906 8.507812 227.941406 8.574219 228.25 L 119.34375 228.25 C 111.269531 234.042969 108.667969 245.136719 113.660156 254 L 15.730469 254 C 15.835938 254.3125 15.933594 254.625 16.042969 254.933594 L 114.179688 254.933594 Z M 211.96875 414.695312 C 215.777344 414.695312 219.597656 414.488281 223.417969 414.097656 L 198.996094 414.097656 C 203.308594 414.480469 207.632812 414.695312 211.96875 414.695312 Z M 159.648438 387.445312 C 158.746094 387.445312 157.863281 387.4375 156.996094 387.417969 L 122.007812 387.417969 C 122.519531 387.730469 123.039062 388.039062 123.550781 388.351562 L 291.421875 388.351562 C 291.902344 388.039062 292.378906 387.726562 292.855469 387.417969 L 160.789062 387.417969 C 160.40625 387.421875 160.039062 387.445312 159.648438 387.445312 Z M 122.589844 360.730469 L 86.617188 360.730469 C 86.957031 361.046875 87.300781 361.355469 87.644531 361.664062 L 122.644531 361.664062 C 122.625 361.355469 122.609375 361.046875 122.589844 360.730469 Z M 201.453125 361.664062 L 325.683594 361.664062 C 326.019531 361.355469 326.355469 361.046875 326.691406 360.730469 L 201.785156 360.730469 C 201.675781 361.039062 201.566406 361.34375 201.453125 361.664062 Z M 123.328125 334.050781 L 61.164062 334.050781 C 61.425781 334.363281 61.691406 334.671875 61.953125 334.984375 L 123.230469 334.984375 C 123.261719 334.671875 123.292969 334.359375 123.328125 334.050781 Z M 127.203125 307.363281 L 41.699219 307.363281 C 41.902344 307.679688 42.101562 307.988281 42.300781 308.296875 L 127.203125 308.296875 C 127.203125 307.996094 127.203125 307.6875 127.203125 307.363281 Z M 271.046875 320.75 C 273.234375 321.105469 275.386719 321.445312 277.46875 321.761719 L 277.230469 321.394531 L 271.691406 320.21875 Z M 319.84375 334.050781 L 333.894531 334.050781 L 329.449219 330.953125 L 321.5 332.765625 Z M 212.046875 280.683594 L 390.101562 280.683594 C 389.917969 280.992188 389.738281 281.308594 389.558594 281.617188 L 212.523438 281.617188 C 218.4375 293.070312 223.859375 302.59375 227.128906 307.363281 L 372.964844 307.363281 C 372.746094 307.679688 372.527344 307.988281 372.308594 308.296875 L 227.789062 308.296875 C 228.636719 309.480469 229.304688 310.253906 229.738281 310.539062 C 233.207031 312.851562 241.777344 315.171875 251.792969 317.25 L 267.675781 311.253906 C 269.300781 310.644531 271.117188 310.855469 272.554688 311.816406 L 280.402344 317.058594 L 283.679688 322.6875 C 289.804688 323.574219 294.839844 324.238281 297.644531 324.59375 L 306.34375 324.265625 L 324.996094 317.824219 C 326.667969 317.25 328.519531 317.511719 329.964844 318.539062 L 337.828125 324.117188 L 343.234375 334.050781 L 352.25 334.050781 C 351.984375 334.359375 351.71875 334.675781 351.449219 334.984375 L 343.742188 334.984375 L 343.925781 335.320312 C 344.269531 335.957031 344.007812 336.753906 343.347656 337.058594 C 342.03125 336.96875 340.527344 336.3125 339.300781 335.394531 L 339.617188 337.542969 C 339.761719 338.523438 338.960938 339.390625 337.972656 339.316406 C 336.429688 339.207031 335.160156 338.0625 334.894531 336.539062 L 334.621094 334.984375 L 318.636719 334.984375 L 314.816406 337.941406 C 313.015625 339.328125 310.917969 340.257812 308.707031 340.664062 C 307.265625 340.925781 305.78125 340.882812 304.328125 340.683594 L 295.507812 339.46875 L 229.84375 339 C 221.917969 338.667969 216.078125 337.164062 211.636719 334.984375 L 194.886719 334.984375 C 194.839844 334.835938 194.796875 334.683594 194.753906 334.53125 L 194.75 334.53125 C 194.710938 334.40625 194.675781 334.285156 194.640625 334.15625 C 194.628906 334.125 194.617188 334.085938 194.605469 334.050781 L 194.609375 334.050781 C 193.207031 329.289062 192.195312 324.351562 192.195312 319.992188 C 192.195312 317.511719 192.566406 314.894531 193.164062 312.179688 C 193.316406 312.210938 193.472656 312.238281 193.628906 312.269531 L 183.78125 293.261719 C 183.261719 293.371094 182.734375 293.429688 182.195312 293.429688 C 177.292969 293.429688 172.457031 288.835938 168.824219 281.617188 L 27.222656 281.617188 C 27.074219 281.308594 26.917969 280.996094 26.765625 280.683594 L 168.371094 280.683594 C 165.703125 275.0625 163.746094 267.992188 162.996094 260.304688 C 162.394531 254.140625 162.644531 248.371094 163.574219 243.429688 C 163.5 236.964844 165.246094 231.324219 170.066406 229.078125 C 170.453125 228.894531 170.839844 228.753906 171.226562 228.601562 C 172.605469 227.679688 174.109375 227.179688 175.722656 227.179688 C 176.378906 227.179688 177.03125 227.273438 177.679688 227.429688 C 184.144531 227.574219 189.894531 231.703125 192.621094 238.550781 C 198.066406 252.25 205.339844 267.648438 212.042969 280.683594 Z M 204.941406 254.933594 L 205.042969 254 L 201.308594 254 C 201.414062 254.3125 201.519531 254.625 201.621094 254.933594 Z M 208.003906 227.316406 L 189.71875 227.316406 C 189.824219 227.507812 189.933594 227.699219 190.035156 227.890625 C 190.09375 228.007812 190.152344 228.132812 190.210938 228.25 L 207.902344 228.25 Z M 427.027344 120.585938 L 21.386719 120.585938 C 21.21875 120.894531 21.054688 121.210938 20.890625 121.519531 L 427.253906 121.519531 C 427.175781 121.210938 427.101562 120.894531 427.027344 120.585938"/></g><g clip-path="url(#d)"><path fill="#393A3F" d="M 325.410156 310.246094 L 299.113281 310.324219 L 285.96875 310.367188 L 272.824219 310.5 L 272.824219 310.921875 L 285.96875 311.050781 L 299.113281 311.09375 L 325.410156 311.175781 L 351.703125 311.078125 L 364.851562 311.023438 L 378 310.890625 L 378 310.53125 L 364.851562 310.398438 L 351.703125 310.34375 Z M 314.382812 103.601562 L 304.882812 103.601562 L 304.882812 104.535156 L 314.382812 104.535156 Z M 319.332031 101.421875 L 319.332031 100.488281 L 313.285156 100.488281 L 313.285156 101.421875 Z M 310.929688 100.488281 L 304.882812 100.488281 L 304.882812 101.421875 L 310.929688 101.421875 Z M 319.332031 97.378906 L 304.882812 97.378906 L 304.882812 98.3125 L 319.332031 98.3125 Z M 325.820312 32.398438 C 327.167969 32.398438 328.261719 31.304688 328.261719 29.953125 C 328.261719 28.609375 327.167969 27.515625 325.820312 27.515625 C 324.46875 27.515625 323.378906 28.609375 323.378906 29.953125 C 323.378906 31.304688 324.46875 32.398438 325.820312 32.398438 Z M 193.113281 32.398438 C 194.460938 32.398438 195.554688 31.304688 195.554688 29.953125 C 195.554688 28.609375 194.460938 27.515625 193.113281 27.515625 C 191.761719 27.515625 190.667969 28.609375 190.667969 29.953125 C 190.667969 31.304688 191.761719 32.398438 193.113281 32.398438 Z M 97.71875 105.625 L 88.21875 105.625 L 88.21875 106.558594 L 97.71875 106.558594 Z M 102.667969 103.445312 L 102.667969 102.511719 L 96.617188 102.511719 L 96.617188 103.445312 Z M 94.265625 102.511719 L 88.21875 102.511719 L 88.21875 103.445312 L 94.265625 103.445312 Z M 102.667969 99.402344 L 88.21875 99.402344 L 88.21875 100.335938 L 102.667969 100.335938 Z M 63.371094 32.398438 C 64.71875 32.398438 65.8125 31.304688 65.8125 29.953125 C 65.8125 28.609375 64.71875 27.515625 63.371094 27.515625 C 62.023438 27.515625 60.929688 28.609375 60.929688 29.953125 C 60.929688 31.304688 62.023438 32.398438 63.371094 32.398438 Z M 46.003906 174.1875 L 46.9375 174.1875 L 46.9375 173.191406 L 59.945312 173.191406 L 59.945312 174.1875 L 60.878906 174.1875 L 60.878906 173.191406 L 73.886719 173.191406 L 73.886719 174.1875 L 74.820312 174.1875 L 74.820312 173.191406 L 87.828125 173.191406 L 87.828125 174.1875 L 88.761719 174.1875 L 88.761719 173.191406 L 101.769531 173.191406 L 101.769531 174.1875 L 102.703125 174.1875 L 102.703125 173.191406 L 106.949219 173.191406 L 106.949219 172.257812 L 102.703125 172.257812 L 102.703125 171.261719 L 101.769531 171.261719 L 101.769531 172.257812 L 88.761719 172.257812 L 88.761719 171.261719 L 87.828125 171.261719 L 87.828125 172.257812 L 74.820312 172.257812 L 74.820312 171.261719 L 73.886719 171.261719 L 73.886719 172.257812 L 60.878906 172.257812 L 60.878906 171.261719 L 59.945312 171.261719 L 59.945312 172.257812 L 46.9375 172.257812 L 46.9375 171.261719 L 46.003906 171.261719 L 46.003906 172.257812 L 41.847656 172.257812 L 41.847656 173.191406 L 46.003906 173.191406 Z M 349.078125 138.363281 C 349.078125 137.851562 348.65625 137.433594 348.144531 137.433594 L 227.535156 137.433594 C 227.019531 137.433594 226.601562 137.851562 226.601562 138.363281 C 226.601562 138.882812 227.019531 139.296875 227.535156 139.296875 L 348.144531 139.296875 C 348.65625 139.296875 349.078125 138.882812 349.078125 138.363281 Z M 321.804688 271.09375 L 315.578125 271.09375 C 315.0625 271.09375 314.644531 271.515625 314.644531 272.027344 C 314.644531 272.546875 315.0625 272.960938 315.578125 272.960938 L 321.804688 272.960938 C 322.316406 272.960938 322.738281 272.546875 322.738281 272.027344 C 322.738281 271.515625 322.316406 271.09375 321.804688 271.09375 Z M 323.503906 265.933594 C 323.503906 265.414062 323.082031 265 322.570312 265 L 316.34375 265 C 315.832031 265 315.410156 265.414062 315.410156 265.933594 C 315.410156 266.449219 315.832031 266.867188 316.34375 266.867188 L 322.570312 266.867188 C 323.082031 266.867188 323.503906 266.449219 323.503906 265.933594 Z M 325.035156 253.734375 C 325.035156 253.222656 324.617188 252.800781 324.101562 252.800781 L 317.875 252.800781 C 317.363281 252.800781 316.941406 253.222656 316.941406 253.734375 C 316.941406 254.253906 317.363281 254.667969 317.875 254.667969 L 324.101562 254.667969 C 324.617188 254.667969 325.035156 254.253906 325.035156 253.734375 Z M 325.800781 247.640625 C 325.800781 247.125 325.386719 246.707031 324.867188 246.707031 L 318.644531 246.707031 C 318.128906 246.707031 317.710938 247.125 317.710938 247.640625 C 317.710938 248.15625 318.128906 248.574219 318.644531 248.574219 L 324.867188 248.574219 C 325.386719 248.574219 325.800781 248.15625 325.800781 247.640625 Z M 326.570312 241.546875 C 326.570312 241.027344 326.152344 240.613281 325.636719 240.613281 L 319.410156 240.613281 C 318.898438 240.613281 318.476562 241.027344 318.476562 241.546875 C 318.476562 242.058594 318.898438 242.476562 319.410156 242.476562 L 325.636719 242.476562 C 326.152344 242.476562 326.570312 242.058594 326.570312 241.546875 Z M 238.054688 237.941406 C 237.960938 238.703125 238.5 239.320312 239.261719 239.320312 C 240.023438 239.320312 240.722656 238.703125 240.816406 237.941406 C 240.914062 237.175781 240.375 236.558594 239.609375 236.558594 C 238.847656 236.558594 238.15625 237.175781 238.054688 237.941406 Z M 249.316406 152.050781 C 249.222656 152.8125 249.761719 153.429688 250.523438 153.429688 C 251.285156 153.429688 251.980469 152.8125 252.078125 152.050781 C 252.171875 151.289062 251.632812 150.667969 250.871094 150.667969 C 250.109375 150.667969 249.410156 151.289062 249.316406 152.050781 Z M 263.132812 184.839844 C 262.621094 184.839844 262.199219 185.253906 262.199219 185.773438 C 262.199219 186.285156 262.621094 186.703125 263.132812 186.703125 L 274.574219 186.703125 C 275.085938 186.703125 275.507812 186.285156 275.507812 185.773438 C 275.507812 185.253906 275.085938 184.839844 274.574219 184.839844 Z M 330.066406 213.726562 C 330.066406 213.210938 329.648438 212.792969 329.132812 212.792969 L 322.910156 212.792969 C 322.394531 212.792969 321.976562 213.210938 321.976562 213.726562 C 321.976562 214.242188 322.394531 214.660156 322.910156 214.660156 L 329.132812 214.660156 C 329.648438 214.660156 330.066406 214.242188 330.066406 213.726562 Z M 330.832031 207.628906 C 330.832031 207.113281 330.414062 206.695312 329.898438 206.695312 L 323.675781 206.695312 C 323.160156 206.695312 322.742188 207.113281 322.742188 207.628906 C 322.742188 208.144531 323.160156 208.5625 323.675781 208.5625 L 329.898438 208.5625 C 330.414062 208.5625 330.832031 208.144531 330.832031 207.628906 Z M 331.597656 201.53125 C 331.597656 201.015625 331.179688 200.597656 330.664062 200.597656 L 324.441406 200.597656 C 323.925781 200.597656 323.507812 201.015625 323.507812 201.53125 C 323.507812 202.050781 323.925781 202.464844 324.441406 202.464844 L 330.664062 202.464844 C 331.179688 202.464844 331.597656 202.050781 331.597656 201.53125 Z M 332.363281 195.4375 C 332.363281 194.917969 331.949219 194.503906 331.429688 194.503906 L 325.210938 194.503906 C 324.691406 194.503906 324.277344 194.917969 324.277344 195.4375 C 324.277344 195.949219 324.691406 196.371094 325.210938 196.371094 L 331.429688 196.371094 C 331.949219 196.371094 332.363281 195.949219 332.363281 195.4375 Z M 333.898438 183.242188 C 333.898438 182.722656 333.480469 182.308594 332.964844 182.308594 L 326.742188 182.308594 C 326.226562 182.308594 325.808594 182.722656 325.808594 183.242188 C 325.808594 183.753906 326.226562 184.175781 326.742188 184.175781 L 332.964844 184.175781 C 333.480469 184.175781 333.898438 183.753906 333.898438 183.242188 Z M 334.664062 177.144531 C 334.664062 176.628906 334.246094 176.210938 333.730469 176.210938 L 327.507812 176.210938 C 326.992188 176.210938 326.574219 176.628906 326.574219 177.144531 C 326.574219 177.65625 326.992188 178.074219 327.507812 178.074219 L 333.730469 178.074219 C 334.246094 178.074219 334.664062 177.65625 334.664062 177.144531 Z M 335.429688 171.046875 C 335.429688 170.53125 335.015625 170.113281 334.496094 170.113281 L 328.277344 170.113281 C 327.757812 170.113281 327.34375 170.53125 327.34375 171.046875 C 327.34375 171.5625 327.757812 171.980469 328.277344 171.980469 L 334.496094 171.980469 C 335.015625 171.980469 335.429688 171.5625 335.429688 171.046875 Z M 336.195312 164.949219 C 336.195312 164.433594 335.78125 164.015625 335.261719 164.015625 L 329.042969 164.015625 C 328.523438 164.015625 328.109375 164.433594 328.109375 164.949219 C 328.109375 165.460938 328.523438 165.882812 329.042969 165.882812 L 335.261719 165.882812 C 335.78125 165.882812 336.195312 165.460938 336.195312 164.949219 Z M 336.960938 158.847656 C 336.960938 158.335938 336.546875 157.917969 336.03125 157.917969 L 329.808594 157.917969 C 329.292969 157.917969 328.875 158.335938 328.875 158.847656 C 328.875 159.367188 329.292969 159.78125 329.808594 159.78125 L 336.03125 159.78125 C 336.546875 159.78125 336.960938 159.367188 336.960938 158.847656 Z M 193.929688 163.226562 L 198.320312 163.007812 C 198.535156 160.449219 199.273438 158.089844 200.484375 157.492188 C 199.195312 157.359375 197.941406 157.394531 196.984375 157.8125 C 196.921875 154.578125 195.640625 152.851562 194.839844 150.820312 C 194.824219 153.144531 195.460938 152.429688 195.214844 155.546875 C 195.082031 157.273438 195.429688 159.046875 195.027344 160.730469 C 194.816406 161.625 194.398438 162.4375 193.929688 163.226562 Z M 199.257812 162.960938 L 202.914062 162.78125 C 202.636719 159.988281 201.742188 158.28125 201.09375 158.28125 C 200.429688 158.28125 199.511719 160.0625 199.257812 162.960938 Z M 202.984375 163.710938 L 199.195312 163.898438 C 199.1875 164.117188 199.183594 164.339844 199.183594 164.570312 C 199.183594 168.40625 200.3125 170.859375 201.09375 170.859375 C 201.871094 170.859375 203.003906 168.40625 203.003906 164.570312 C 203.003906 164.273438 202.992188 163.988281 202.984375 163.710938 Z M 114.957031 201.222656 C 113.945312 194.550781 115.890625 187.484375 120.183594 182.28125 C 121.753906 180.367188 123.699219 178.558594 124.183594 176.132812 C 124.679688 173.632812 123.496094 171.144531 122.949219 168.65625 C 121.917969 163.902344 123.386719 158.675781 126.75 155.15625 C 129.328125 152.457031 132.898438 150.746094 135.074219 147.710938 C 136.902344 145.171875 137.542969 142 138.796875 139.132812 C 142.308594 131.101562 151.1875 125.75 159.929688 126.402344 C 162.363281 123.375 167.066406 121.957031 170.890625 122.632812 C 174.710938 123.304688 178.109375 125.472656 181.082031 127.96875 C 190.433594 126.535156 202.191406 135.457031 205.460938 158.601562 C 204.582031 158.339844 203.355469 157.988281 202.0625 157.734375 C 203.285156 158.773438 203.9375 161.742188 203.9375 164.570312 C 203.9375 168.070312 202.9375 171.792969 201.09375 171.792969 C 199.246094 171.792969 198.25 168.070312 198.25 164.570312 C 198.25 164.363281 198.253906 164.152344 198.261719 163.945312 L 196.144531 164.050781 C 196.550781 164.265625 196.851562 165.066406 196.851562 166.023438 C 196.851562 167.148438 196.4375 168.058594 195.925781 168.058594 C 195.414062 168.058594 195 167.148438 195 166.023438 C 195 165.09375 195.285156 164.316406 195.671875 164.074219 L 193.332031 164.191406 C 192.777344 165.0625 192.214844 165.933594 191.835938 166.886719 C 190.101562 171.265625 192.558594 176.230469 191.867188 180.894531 C 191.433594 183.816406 189.796875 186.414062 188.910156 189.234375 C 187.65625 193.238281 188.539062 198.777344 190.378906 202.546875 L 177.425781 202.546875 C 176.617188 199.492188 175.574219 196.726562 175.457031 193.574219 C 174.597656 196.871094 174.21875 199.878906 173.929688 203.28125 C 172.335938 198.980469 171.28125 194.792969 171.175781 190.210938 C 170.722656 193.878906 170.566406 197.550781 170.109375 201.222656 Z M 202.496094 327.171875 C 203.929688 328.972656 205.503906 330.675781 207.222656 332.222656 C 208.933594 333.777344 210.835938 335.15625 212.929688 336.210938 C 213.984375 336.71875 215.097656 337.128906 216.242188 337.414062 C 217.414062 337.671875 218.539062 337.792969 219.671875 337.953125 C 221.949219 338.242188 224.222656 338.527344 226.503906 338.730469 C 231.066406 339.164062 235.636719 339.449219 240.222656 339.535156 C 240.335938 339.535156 240.433594 339.445312 240.4375 339.332031 C 240.445312 339.214844 240.351562 339.117188 240.238281 339.109375 C 237.957031 338.984375 235.679688 338.796875 233.40625 338.589844 C 231.132812 338.390625 228.859375 338.171875 226.589844 337.910156 C 224.324219 337.640625 222.054688 337.382812 219.792969 337.070312 C 218.667969 336.90625 217.519531 336.765625 216.457031 336.527344 C 215.386719 336.25 214.34375 335.859375 213.339844 335.375 C 209.316406 333.382812 206.011719 330.128906 203.105469 326.671875 C 201.648438 324.933594 200.296875 323.097656 199.027344 321.210938 C 197.742188 319.328125 196.53125 317.390625 195.449219 315.394531 L 195.445312 315.386719 C 195.398438 315.300781 195.296875 315.269531 195.207031 315.3125 C 195.121094 315.355469 195.085938 315.460938 195.128906 315.550781 C 197.171875 319.664062 199.625 323.570312 202.496094 327.171875 Z M 171.253906 270.761719 C 170.734375 270.449219 170.257812 270.089844 169.800781 269.699219 C 169.34375 269.300781 168.921875 268.855469 168.503906 268.382812 C 168.453125 268.328125 168.371094 268.308594 168.300781 268.335938 C 168.207031 268.371094 168.160156 268.476562 168.199219 268.570312 C 168.683594 269.792969 169.632812 270.839844 170.757812 271.550781 C 171.328125 271.90625 171.929688 272.191406 172.554688 272.390625 C 173.085938 272.558594 173.621094 272.671875 174.164062 272.738281 C 175.960938 276.832031 177.828125 280.898438 179.707031 284.957031 C 181.851562 289.46875 184.007812 293.976562 186.226562 298.453125 C 188.449219 302.929688 190.710938 307.378906 193.082031 311.785156 C 193.132812 311.886719 193.261719 311.925781 193.359375 311.875 C 193.464844 311.824219 193.507812 311.695312 193.457031 311.589844 C 192.351562 309.351562 191.277344 307.097656 190.207031 304.847656 L 186.972656 298.089844 L 180.550781 284.558594 C 178.40625 280.054688 176.3125 275.519531 174.242188 270.980469 C 173.207031 268.707031 172.199219 266.425781 171.21875 264.136719 C 170.246094 261.84375 169.25 259.546875 168.523438 257.175781 L 168.519531 257.167969 C 168.492188 257.074219 168.394531 257.023438 168.300781 257.050781 C 168.207031 257.074219 168.152344 257.171875 168.179688 257.269531 C 169.5625 262.105469 171.5625 266.699219 173.523438 271.296875 C 173.636719 271.550781 173.75 271.804688 173.863281 272.0625 C 173.527344 271.914062 173.183594 271.773438 172.859375 271.621094 C 172.304688 271.355469 171.761719 271.082031 171.253906 270.761719 Z M 195.753906 182.144531 C 196.109375 182.371094 196.507812 182.511719 196.910156 182.609375 C 197.320312 182.691406 197.730469 182.730469 198.140625 182.691406 C 198.34375 182.675781 198.542969 182.636719 198.742188 182.609375 C 198.9375 182.550781 199.132812 182.5 199.316406 182.421875 C 199.375 182.394531 199.421875 182.339844 199.429688 182.28125 C 199.445312 182.175781 199.375 182.082031 199.273438 182.066406 C 198.503906 181.949219 197.800781 181.867188 197.121094 181.703125 C 196.78125 181.625 196.453125 181.515625 196.121094 181.40625 C 195.796875 181.292969 195.464844 181.132812 195.15625 180.984375 L 195.117188 180.964844 C 195.054688 180.933594 194.980469 180.933594 194.917969 180.972656 C 194.816406 181.03125 194.78125 181.164062 194.839844 181.261719 C 195.074219 181.660156 195.398438 181.917969 195.753906 182.144531 Z M 388.914062 340.558594 L 372.746094 316.261719 L 372.746094 316.050781 L 361.054688 315.917969 L 349.363281 315.878906 L 325.980469 315.792969 L 302.59375 315.894531 L 290.902344 315.945312 L 279.207031 316.082031 L 279.207031 316.4375 L 279.480469 316.441406 L 280.402344 317.058594 L 283.5 322.382812 L 278.046875 321.605469 C 278.082031 321.589844 278.117188 321.578125 278.152344 321.5625 C 278.363281 321.457031 278.539062 321.292969 278.699219 321.125 C 278.851562 320.941406 278.984375 320.746094 279.066406 320.523438 C 279.144531 320.300781 279.199219 320.066406 279.175781 319.816406 C 279.167969 319.773438 279.148438 319.726562 279.121094 319.691406 C 279.035156 319.59375 278.886719 319.582031 278.789062 319.664062 L 278.777344 319.671875 C 278.605469 319.816406 278.480469 319.964844 278.351562 320.101562 C 278.21875 320.238281 278.109375 320.378906 277.992188 320.519531 C 277.878906 320.660156 277.761719 320.796875 277.652344 320.953125 C 277.535156 321.105469 277.414062 321.257812 277.296875 321.453125 L 277.289062 321.457031 C 277.289062 321.464844 277.289062 321.46875 277.285156 321.476562 L 277.230469 321.394531 L 271.855469 320.253906 C 271.890625 320.125 271.925781 319.996094 271.953125 319.871094 C 272.046875 319.421875 272.070312 318.964844 272.074219 318.507812 C 272.0625 318.050781 272.027344 317.59375 271.925781 317.148438 C 271.832031 316.703125 271.699219 316.265625 271.488281 315.855469 C 271.453125 315.785156 271.378906 315.738281 271.296875 315.738281 C 271.179688 315.734375 271.074219 315.832031 271.074219 315.953125 C 271.070312 316.398438 271.09375 316.824219 271.105469 317.25 L 271.140625 318.523438 L 271.167969 319.796875 C 271.171875 320.070312 271.179688 320.351562 271.183594 320.628906 L 268.5 320.246094 C 259.171875 318.847656 249.839844 317.429688 240.59375 315.609375 C 238.289062 315.148438 235.972656 314.683594 233.746094 314.027344 C 233.199219 313.855469 232.636719 313.671875 232.171875 313.429688 C 231.917969 313.292969 231.875 313.261719 231.6875 312.964844 L 231.214844 312.25 C 230.59375 311.25 229.980469 310.25 229.378906 309.234375 C 226.964844 305.1875 224.601562 301.101562 222.242188 297.019531 L 213.890625 282.519531 L 313.617188 282.519531 L 319.109375 303.519531 L 358.679688 303.519531 L 353.191406 282.519531 L 413.277344 282.519531 C 419.144531 282.519531 424.066406 278.113281 424.710938 272.292969 L 439.167969 141.910156 C 439.925781 135.097656 434.59375 129.140625 427.738281 129.140625 L 225.261719 129.140625 C 219.394531 129.140625 214.472656 133.550781 213.828125 139.375 L 201.164062 253.582031 C 202.359375 257.078125 203.34375 260.488281 203.976562 263.617188 L 217.707031 139.804688 C 218.132812 135.953125 221.378906 133.046875 225.261719 133.046875 L 427.738281 133.046875 C 429.925781 133.046875 431.9375 133.945312 433.398438 135.578125 C 434.859375 137.207031 435.53125 139.300781 435.289062 141.476562 L 420.832031 271.859375 C 420.40625 275.710938 417.15625 278.617188 413.277344 278.617188 L 321.808594 278.617188 C 321.902344 278.472656 321.96875 278.308594 321.96875 278.128906 C 321.96875 277.609375 321.550781 277.195312 321.035156 277.195312 L 314.8125 277.195312 C 314.296875 277.195312 313.878906 277.609375 313.878906 278.128906 C 313.878906 278.308594 313.945312 278.472656 314.039062 278.617188 L 211.640625 278.617188 L 208.105469 272.488281 C 208.058594 272.40625 207.953125 272.375 207.867188 272.421875 C 207.78125 272.46875 207.75 272.578125 207.796875 272.667969 L 211.089844 278.617188 L 210.984375 278.617188 C 211.660156 279.945312 212.328125 281.246094 212.992188 282.519531 L 213.246094 282.519531 L 214.644531 285.054688 L 221.605469 297.382812 C 223.941406 301.484375 226.269531 305.585938 228.664062 309.660156 C 229.257812 310.679688 229.871094 311.691406 230.488281 312.707031 L 230.984375 313.464844 C 231.089844 313.601562 231.097656 313.691406 231.300781 313.875 C 231.464844 314.042969 231.609375 314.109375 231.757812 314.195312 C 232.339844 314.5 232.910156 314.683594 233.488281 314.867188 C 235.78125 315.558594 238.097656 316.042969 240.414062 316.519531 C 249.703125 318.304688 259.050781 319.660156 268.390625 321.007812 L 282.425781 322.929688 L 296.476562 324.65625 C 296.589844 324.667969 296.699219 324.585938 296.710938 324.472656 C 296.730469 324.355469 296.644531 324.25 296.53125 324.238281 L 291.339844 323.496094 L 295.929688 316.59375 L 302.59375 316.625 L 325.980469 316.722656 L 349.363281 316.644531 L 361.054688 316.601562 L 366.707031 316.539062 L 382.6875 340.558594 L 376.769531 340.558594 L 368.289062 330.960938 L 364.375 333.53125 L 371.621094 340.558594 L 348.132812 340.558594 L 369.492188 327.007812 L 339.398438 327.007812 L 343.925781 335.320312 C 344.269531 335.957031 344.007812 336.753906 343.347656 337.058594 C 342.125 336.96875 340.746094 336.394531 339.570312 335.582031 C 339.570312 335.550781 339.582031 335.53125 339.570312 335.503906 C 339.066406 334.320312 339.054688 333.011719 338.894531 331.667969 C 338.824219 330.988281 338.675781 330.296875 338.410156 329.625 C 338.144531 328.953125 337.765625 328.34375 337.324219 327.792969 C 336.414062 326.71875 335.320312 325.871094 334.21875 325.117188 C 333.113281 324.359375 332.007812 323.648438 331.015625 322.78125 C 330.953125 322.722656 330.855469 322.71875 330.785156 322.777344 C 330.707031 322.839844 330.699219 322.949219 330.761719 323.027344 C 331.621094 324.09375 332.710938 324.929688 333.75 325.753906 C 334.789062 326.574219 335.820312 327.378906 336.601562 328.382812 C 337 328.871094 337.347656 329.394531 337.582031 329.960938 C 337.832031 330.523438 337.949219 331.148438 338.078125 331.785156 C 338.273438 332.824219 338.390625 333.972656 338.84375 335.019531 C 338.273438 334.527344 337.777344 333.988281 337.4375 333.421875 L 334.460938 328.449219 L 329.171875 327.175781 C 329.164062 327.160156 329.15625 327.144531 329.144531 327.136719 C 329.097656 327.082031 329.019531 327.050781 328.949219 327.078125 C 328.929688 327.082031 328.921875 327.101562 328.90625 327.109375 L 328.839844 327.09375 L 321.398438 332.847656 C 321.40625 332.804688 321.414062 332.761719 321.417969 332.722656 C 321.460938 332.332031 321.4375 331.945312 321.378906 331.558594 C 321.3125 331.171875 321.210938 330.792969 321.050781 330.433594 C 320.886719 330.082031 320.695312 329.738281 320.429688 329.445312 C 320.378906 329.394531 320.300781 329.367188 320.230469 329.378906 C 320.109375 329.398438 320.027344 329.515625 320.050781 329.636719 C 320.109375 330.003906 320.195312 330.347656 320.261719 330.6875 C 320.324219 331.035156 320.402344 331.371094 320.457031 331.714844 C 320.527344 332.054688 320.570312 332.394531 320.628906 332.742188 C 320.664062 332.945312 320.695312 333.15625 320.726562 333.367188 L 314.816406 337.941406 C 313.136719 339.238281 311.191406 340.113281 309.144531 340.558594 L 303.398438 340.558594 L 296.121094 339.550781 C 296.566406 339.152344 296.96875 338.691406 297.246094 338.144531 C 297.609375 337.476562 297.78125 336.691406 297.667969 335.953125 C 297.652344 335.867188 297.578125 335.789062 297.484375 335.773438 C 297.367188 335.761719 297.261719 335.839844 297.242188 335.957031 C 297.144531 336.613281 296.914062 337.207031 296.554688 337.730469 C 296.402344 337.945312 296.222656 338.144531 296.039062 338.339844 C 296.03125 337.910156 295.976562 337.488281 295.871094 337.074219 C 295.679688 336.269531 295.34375 335.503906 294.839844 334.871094 C 294.792969 334.808594 294.710938 334.785156 294.636719 334.8125 C 294.542969 334.847656 294.5 334.949219 294.53125 335.046875 C 294.800781 335.765625 294.996094 336.480469 295.082031 337.214844 C 295.164062 337.949219 295.160156 338.679688 295.046875 339.394531 C 295.046875 339.421875 295.050781 339.441406 295.050781 339.46875 L 244.90625 339.105469 L 242.710938 340.558594 L 196.777344 340.558594 C 196.894531 340.871094 197.011719 341.179688 197.125 341.492188 L 439.242188 341.492188 L 439.242188 340.558594 Z M 58.277344 340.558594 L 58.277344 341.492188 L 162.667969 341.492188 C 168.992188 341.492188 170.8125 340.558594 170.8125 340.558594 C 171.636719 340.335938 172.425781 340.035156 173.171875 339.671875 C 178.527344 337.050781 181.757812 330.953125 180.226562 324.667969 L 162.363281 251.191406 C 160.917969 245.257812 155.605469 241.082031 149.5 241.082031 L 49.699219 241.082031 C 41.125 241.082031 34.8125 249.109375 36.835938 257.441406 L 54.699219 330.914062 C 55.859375 335.6875 59.527344 339.316406 64.09375 340.558594 Z M 203.203125 355.128906 C 203.203125 355.128906 203.179688 355.300781 203.128906 355.59375 L 203.132812 355.59375 C 202.480469 359.492188 196.535156 387.445312 159.648438 387.445312 C 146.148438 387.445312 136.386719 385.214844 130.953125 383.535156 C 132.878906 394.574219 142.507812 402.964844 154.101562 402.964844 L 225.054688 402.964844 C 242.625 402.964844 259.769531 395.648438 259.769531 395.648438 L 254.257812 428.296875 L 290.433594 428.296875 C 290.433594 428.296875 294.617188 395.648438 296.421875 373.746094 C 297.480469 360.921875 288.03125 356.804688 280.015625 355.59375 L 345.097656 355.59375 L 340.871094 391.96875 L 354.246094 394.183594 L 358.734375 355.59375 L 406.898438 355.59375 L 412.5 403.832031 L 426.398438 406.132812 L 420.53125 355.59375 L 439.242188 355.59375 L 439.242188 354.664062 L 202.960938 354.664062 C 203.113281 354.960938 203.203125 355.128906 203.203125 355.128906 Z M 122.390625 354.664062 L 58.277344 354.664062 L 58.277344 355.59375 L 89.121094 355.59375 C 89.09375 355.734375 89.105469 355.878906 89.066406 356.019531 L 88.941406 356.960938 C 88.847656 357.585938 88.816406 358.21875 88.753906 358.851562 L 88.648438 360.75 L 88.597656 361.699219 L 88.570312 362.175781 C 88.582031 362.335938 88.464844 362.480469 88.769531 362.675781 C 89.109375 362.554688 89.027344 362.386719 89.078125 362.234375 L 89.160156 361.765625 L 89.328125 360.828125 L 89.664062 358.957031 C 89.746094 358.328125 89.859375 357.703125 89.914062 357.070312 L 90.007812 356.128906 C 89.996094 355.949219 90.074219 355.777344 90.039062 355.59375 L 122.402344 355.59375 C 122.398438 355.285156 122.394531 354.976562 122.390625 354.664062 Z M 280.976562 152.046875 C 280.976562 151.53125 280.558594 151.113281 280.042969 151.113281 L 266.140625 151.113281 C 265.628906 151.113281 265.207031 151.53125 265.207031 152.046875 C 265.207031 152.566406 265.628906 152.980469 266.140625 152.980469 L 280.042969 152.980469 C 280.558594 152.980469 280.976562 152.566406 280.976562 152.046875 Z M 244.085938 152.050781 C 243.992188 152.8125 244.53125 153.429688 245.292969 153.429688 C 246.058594 153.429688 246.753906 152.8125 246.847656 152.050781 C 246.945312 151.289062 246.40625 150.667969 245.640625 150.667969 C 244.882812 150.667969 244.1875 151.289062 244.085938 152.050781 Z M 240.070312 153.429688 C 239.308594 153.429688 238.761719 152.8125 238.863281 152.050781 C 238.957031 151.289062 239.652344 150.667969 240.414062 150.667969 C 241.175781 150.667969 241.71875 151.289062 241.621094 152.050781 C 241.527344 152.8125 240.832031 153.429688 240.070312 153.429688"/></g><g clip-path="url(#e)"><path fill="#777B85" d="M 370.804688 303.519531 L 363.285156 303.519531 L 357.796875 282.519531 L 353.191406 282.519531 L 358.679688 303.519531 L 280.015625 303.519531 C 276.042969 303.519531 272.824219 306.738281 272.824219 310.710938 L 378 310.710938 C 378 306.738281 374.777344 303.519531 370.804688 303.519531 Z M 116.402344 303.027344 L 100.902344 303.027344 C 99.910156 303.027344 99.074219 303.769531 98.960938 304.753906 L 86.410156 413.449219 C 86.28125 414.609375 87.1875 415.628906 88.355469 415.628906 L 103.855469 415.628906 C 104.847656 415.628906 105.683594 414.886719 105.800781 413.898438 L 118.34375 305.207031 C 118.480469 304.042969 117.570312 303.027344 116.402344 303.027344 Z M 347.429688 341.003906 L 353.71875 341.003906 L 368.039062 331.59375 L 376.359375 341.003906 L 381.007812 341.003906 L 369.492188 327.007812 Z M 433.902344 129.140625 L 427.738281 129.140625 C 434.59375 129.140625 439.925781 135.097656 439.167969 141.910156 L 424.710938 272.292969 C 424.066406 278.113281 419.144531 282.519531 413.277344 282.519531 L 419.441406 282.519531 C 425.300781 282.519531 430.226562 278.113281 430.875 272.292969 L 445.332031 141.910156 C 446.085938 135.097656 440.753906 129.140625 433.902344 129.140625 Z M 280.976562 152.046875 C 280.976562 151.53125 280.558594 151.113281 280.042969 151.113281 L 266.140625 151.113281 C 265.628906 151.113281 265.207031 151.53125 265.207031 152.046875 C 265.207031 152.566406 265.628906 152.980469 266.140625 152.980469 L 280.042969 152.980469 C 280.558594 152.980469 280.976562 152.566406 280.976562 152.046875 Z M 245.640625 150.667969 C 244.882812 150.667969 244.1875 151.289062 244.085938 152.050781 C 243.992188 152.8125 244.53125 153.429688 245.292969 153.429688 C 246.058594 153.429688 246.753906 152.8125 246.847656 152.050781 C 246.945312 151.289062 246.40625 150.667969 245.640625 150.667969 Z M 240.414062 150.667969 C 239.652344 150.667969 238.957031 151.289062 238.863281 152.050781 C 238.761719 152.8125 239.308594 153.429688 240.070312 153.429688 C 240.832031 153.429688 241.527344 152.8125 241.621094 152.050781 C 241.71875 151.289062 241.175781 150.667969 240.414062 150.667969 Z M 252.078125 152.050781 C 251.980469 152.8125 251.285156 153.429688 250.523438 153.429688 C 249.761719 153.429688 249.222656 152.8125 249.316406 152.050781 C 249.410156 151.289062 250.109375 150.667969 250.871094 150.667969 C 251.632812 150.667969 252.171875 151.289062 252.078125 152.050781"/></g></svg>